<svg width="900" height="900" viewBox="0 0 900 900" fill="none" xmlns="http://www.w3.org/2000/svg">
<rect width="900" height="900" rx="30" fill="#73A6E4" fill-opacity="0.3"/>
<g filter="url(#filter0_d_1067_295)">
<rect x="57" y="104" width="452" height="366" rx="30" fill="white" fill-opacity="0.7" shape-rendering="crispEdges"/>
</g>
<g filter="url(#filter1_d_1067_295)">
<rect x="229" y="514" width="452" height="282" rx="30" fill="white" fill-opacity="0.7" shape-rendering="crispEdges"/>
</g>
<g filter="url(#filter2_d_1067_295)">
<rect x="564" y="168" width="278" height="302" rx="30" fill="white" fill-opacity="0.7" shape-rendering="crispEdges"/>
</g>
<path d="M768.351 362.131H637.932C637.343 362.131 636.806 362.461 636.547 362.989L624.275 387.741C623.352 389.608 623 391.528 623 393.412C623 399.347 628.232 405.281 635.159 405.281H771.119C778.054 405.281 783.283 399.347 783.283 393.412C783.283 391.536 782.926 389.599 782.004 387.741L769.73 362.989C769.471 362.461 768.936 362.131 768.351 362.131Z" fill="#ED4B45" fill-opacity="0.7"/>
<path d="M680.528 274.282L671.699 292.095C671.19 293.117 671.936 294.317 673.077 294.317H733.201C734.343 294.317 735.09 293.117 734.58 292.095L714.83 252.253C712.431 247.421 707.785 245 703.142 245C698.495 245 693.846 247.421 691.453 252.253L685.9 263.449" fill="#5CCAB2" fill-opacity="0.7"/>
<path d="M747.139 317.423L742.223 307.503C741.964 306.982 741.428 306.647 740.84 306.647H665.439C664.849 306.647 664.319 306.982 664.055 307.503L644.191 347.575C643.682 348.598 644.428 349.802 645.571 349.802H760.708C761.849 349.802 762.597 348.598 762.088 347.575L752.494 328.225" fill="#F7C945" fill-opacity="0.7"/>
<path d="M685.891 274.282H618.08C616.38 274.282 615 272.902 615 271.202V261.957" stroke="#73A6E4" stroke-opacity="0.7" stroke-width="6.16469" stroke-miterlimit="10" stroke-linecap="round" stroke-linejoin="round"/>
<path d="M727.503 328.225H787.608C789.312 328.225 790.691 326.845 790.691 325.141V315.894" stroke="#73A6E4" stroke-opacity="0.7" stroke-width="6.16469" stroke-miterlimit="10" stroke-linecap="round" stroke-linejoin="round"/>
<path d="M627.327 261.957H645.819" stroke="#73A6E4" stroke-opacity="0.7" stroke-width="6.16469" stroke-miterlimit="10" stroke-linecap="round" stroke-linejoin="round"/>
<path d="M778.361 315.894H762.952" stroke="#73A6E4" stroke-opacity="0.7" stroke-width="6.16469" stroke-miterlimit="10" stroke-linecap="round" stroke-linejoin="round"/>
<path d="M118.543 256.909C118.543 258.827 118.196 260.484 117.504 261.881C116.811 263.277 115.862 264.355 114.654 265.112C113.447 265.87 112.068 266.249 110.517 266.249C108.966 266.249 107.587 265.87 106.38 265.112C105.173 264.355 104.223 263.277 103.53 261.881C102.838 260.484 102.491 258.827 102.491 256.909C102.491 254.991 102.838 253.334 103.53 251.938C104.223 250.541 105.173 249.464 106.38 248.706C107.587 247.948 108.966 247.57 110.517 247.57C112.068 247.57 113.447 247.948 114.654 248.706C115.862 249.464 116.811 250.541 117.504 251.938C118.196 253.334 118.543 254.991 118.543 256.909ZM116.412 256.909C116.412 255.335 116.149 254.006 115.622 252.923C115.101 251.84 114.394 251.02 113.5 250.464C112.612 249.907 111.618 249.629 110.517 249.629C109.416 249.629 108.419 249.907 107.525 250.464C106.637 251.02 105.93 251.84 105.403 252.923C104.883 254.006 104.622 255.335 104.622 256.909C104.622 258.483 104.883 259.812 105.403 260.895C105.93 261.978 106.637 262.798 107.525 263.354C108.419 263.911 109.416 264.189 110.517 264.189C111.618 264.189 112.612 263.911 113.5 263.354C114.394 262.798 115.101 261.978 115.622 260.895C116.149 259.812 116.412 258.483 116.412 256.909ZM121.961 266V252.364H123.985V254.423H124.127C124.375 253.749 124.825 253.201 125.476 252.781C126.127 252.361 126.861 252.151 127.678 252.151C127.832 252.151 128.024 252.154 128.255 252.159C128.486 252.165 128.66 252.174 128.779 252.186V254.317C128.708 254.299 128.545 254.272 128.29 254.237C128.042 254.195 127.779 254.175 127.5 254.175C126.837 254.175 126.246 254.314 125.725 254.592C125.21 254.864 124.801 255.243 124.5 255.728C124.204 256.208 124.056 256.755 124.056 257.371V266H121.961ZM136.352 271.398C135.339 271.398 134.469 271.268 133.741 271.007C133.013 270.753 132.407 270.415 131.922 269.995C131.442 269.581 131.06 269.137 130.776 268.663L132.445 267.491C132.635 267.74 132.874 268.024 133.164 268.344C133.454 268.669 133.851 268.95 134.354 269.187C134.863 269.43 135.529 269.551 136.352 269.551C137.452 269.551 138.361 269.285 139.077 268.752C139.793 268.219 140.151 267.385 140.151 266.249V263.479H139.974C139.82 263.727 139.601 264.035 139.317 264.402C139.039 264.763 138.636 265.086 138.109 265.37C137.589 265.648 136.884 265.787 135.996 265.787C134.896 265.787 133.907 265.527 133.031 265.006C132.161 264.485 131.472 263.727 130.963 262.733C130.46 261.739 130.208 260.531 130.208 259.111C130.208 257.714 130.454 256.498 130.945 255.462C131.436 254.42 132.12 253.615 132.996 253.047C133.872 252.473 134.884 252.186 136.032 252.186C136.92 252.186 137.624 252.334 138.145 252.63C138.672 252.92 139.074 253.251 139.352 253.624C139.636 253.991 139.855 254.293 140.009 254.53H140.222V252.364H142.246V266.391C142.246 267.562 141.98 268.515 141.447 269.249C140.921 269.989 140.21 270.531 139.317 270.874C138.429 271.223 137.441 271.398 136.352 271.398ZM136.281 263.905C137.121 263.905 137.831 263.712 138.411 263.328C138.991 262.943 139.432 262.39 139.734 261.668C140.036 260.946 140.187 260.081 140.187 259.075C140.187 258.093 140.039 257.226 139.743 256.474C139.447 255.722 139.009 255.134 138.429 254.707C137.849 254.281 137.133 254.068 136.281 254.068C135.393 254.068 134.653 254.293 134.061 254.743C133.475 255.193 133.034 255.796 132.738 256.554C132.448 257.312 132.303 258.152 132.303 259.075C132.303 260.022 132.451 260.86 132.747 261.588C133.049 262.31 133.493 262.878 134.079 263.292C134.671 263.701 135.405 263.905 136.281 263.905ZM150.094 266.32C149.23 266.32 148.446 266.157 147.742 265.831C147.038 265.5 146.478 265.023 146.064 264.402C145.65 263.775 145.442 263.017 145.442 262.129C145.442 261.348 145.596 260.715 145.904 260.229C146.212 259.738 146.623 259.353 147.138 259.075C147.653 258.797 148.221 258.59 148.843 258.454C149.47 258.312 150.1 258.199 150.734 258.116C151.562 258.01 152.234 257.93 152.749 257.877C153.27 257.818 153.649 257.72 153.885 257.584C154.128 257.448 154.249 257.211 154.249 256.874V256.803C154.249 255.927 154.01 255.246 153.53 254.761C153.057 254.275 152.338 254.033 151.373 254.033C150.373 254.033 149.588 254.252 149.02 254.69C148.452 255.128 148.053 255.595 147.822 256.092L145.833 255.382C146.188 254.554 146.662 253.908 147.254 253.447C147.851 252.979 148.502 252.654 149.207 252.47C149.917 252.281 150.615 252.186 151.302 252.186C151.74 252.186 152.243 252.239 152.811 252.346C153.385 252.446 153.939 252.657 154.471 252.976C155.01 253.296 155.457 253.778 155.812 254.423C156.167 255.068 156.344 255.933 156.344 257.016V266H154.249V264.153H154.143C154.001 264.449 153.764 264.766 153.433 265.103C153.101 265.441 152.66 265.728 152.11 265.964C151.559 266.201 150.888 266.32 150.094 266.32ZM150.414 264.438C151.243 264.438 151.941 264.275 152.509 263.949C153.083 263.624 153.515 263.203 153.805 262.689C154.101 262.174 154.249 261.632 154.249 261.064V259.146C154.161 259.253 153.965 259.35 153.663 259.439C153.367 259.522 153.024 259.596 152.634 259.661C152.249 259.72 151.873 259.774 151.506 259.821C151.145 259.862 150.852 259.898 150.627 259.928C150.083 259.999 149.574 260.114 149.1 260.274C148.633 260.428 148.254 260.661 147.964 260.975C147.68 261.283 147.538 261.703 147.538 262.236C147.538 262.964 147.807 263.514 148.346 263.887C148.89 264.254 149.58 264.438 150.414 264.438ZM162.264 257.797V266H160.169V252.364H162.193V254.494H162.37C162.69 253.802 163.175 253.246 163.826 252.825C164.477 252.399 165.318 252.186 166.348 252.186C167.271 252.186 168.079 252.375 168.771 252.754C169.464 253.127 170.002 253.695 170.387 254.459C170.772 255.216 170.964 256.175 170.964 257.335V266H168.869V257.477C168.869 256.406 168.591 255.571 168.034 254.974C167.478 254.37 166.715 254.068 165.744 254.068C165.075 254.068 164.477 254.213 163.951 254.503C163.43 254.793 163.018 255.216 162.717 255.773C162.415 256.329 162.264 257.004 162.264 257.797ZM174.793 266V252.364H176.888V266H174.793ZM175.858 250.091C175.45 250.091 175.097 249.952 174.801 249.674C174.511 249.395 174.366 249.061 174.366 248.67C174.366 248.28 174.511 247.945 174.801 247.667C175.097 247.389 175.45 247.25 175.858 247.25C176.266 247.25 176.616 247.389 176.906 247.667C177.201 247.945 177.349 248.28 177.349 248.67C177.349 249.061 177.201 249.395 176.906 249.674C176.616 249.952 176.266 250.091 175.858 250.091ZM186.265 266.284C184.987 266.284 183.886 265.982 182.962 265.379C182.039 264.775 181.329 263.943 180.832 262.884C180.335 261.824 180.086 260.614 180.086 259.253C180.086 257.868 180.341 256.646 180.85 255.586C181.364 254.521 182.081 253.689 182.998 253.092C183.921 252.488 184.998 252.186 186.229 252.186C187.188 252.186 188.052 252.364 188.822 252.719C189.591 253.074 190.222 253.571 190.713 254.21C191.204 254.849 191.509 255.595 191.627 256.447H189.532C189.372 255.826 189.017 255.276 188.467 254.796C187.922 254.311 187.188 254.068 186.265 254.068C185.448 254.068 184.732 254.281 184.117 254.707C183.507 255.128 183.031 255.722 182.687 256.492C182.35 257.255 182.181 258.152 182.181 259.182C182.181 260.235 182.347 261.153 182.678 261.934C183.016 262.715 183.489 263.322 184.099 263.754C184.714 264.186 185.436 264.402 186.265 264.402C186.81 264.402 187.304 264.307 187.748 264.118C188.191 263.929 188.567 263.656 188.875 263.301C189.183 262.946 189.402 262.52 189.532 262.023H191.627C191.509 262.828 191.216 263.553 190.748 264.198C190.287 264.837 189.674 265.346 188.911 265.725C188.153 266.098 187.271 266.284 186.265 266.284ZM211.949 252.364C211.842 251.464 211.41 250.766 210.652 250.268C209.895 249.771 208.966 249.523 207.865 249.523C207.06 249.523 206.356 249.653 205.752 249.913C205.154 250.174 204.687 250.532 204.349 250.988C204.018 251.443 203.852 251.961 203.852 252.541C203.852 253.027 203.967 253.444 204.198 253.793C204.435 254.136 204.737 254.423 205.104 254.654C205.471 254.879 205.855 255.065 206.258 255.213C206.66 255.355 207.03 255.471 207.368 255.56L209.214 256.057C209.688 256.181 210.214 256.353 210.794 256.572C211.38 256.791 211.94 257.09 212.472 257.468C213.011 257.841 213.455 258.321 213.804 258.907C214.153 259.493 214.328 260.212 214.328 261.064C214.328 262.046 214.07 262.934 213.555 263.727C213.046 264.52 212.301 265.151 211.318 265.618C210.342 266.086 209.155 266.32 207.758 266.32C206.456 266.32 205.329 266.109 204.376 265.689C203.429 265.269 202.683 264.683 202.139 263.931C201.6 263.18 201.295 262.307 201.224 261.312H203.497C203.556 261.999 203.787 262.567 204.189 263.017C204.598 263.461 205.113 263.792 205.734 264.011C206.361 264.224 207.036 264.331 207.758 264.331C208.599 264.331 209.353 264.195 210.022 263.923C210.691 263.644 211.221 263.26 211.611 262.768C212.002 262.271 212.197 261.691 212.197 261.028C212.197 260.425 212.028 259.933 211.691 259.555C211.354 259.176 210.91 258.868 210.359 258.631C209.809 258.395 209.214 258.187 208.575 258.01L206.338 257.371C204.917 256.962 203.793 256.379 202.964 255.622C202.136 254.864 201.721 253.873 201.721 252.648C201.721 251.63 201.997 250.742 202.547 249.984C203.103 249.221 203.849 248.629 204.784 248.209C205.725 247.783 206.776 247.57 207.936 247.57C209.108 247.57 210.149 247.78 211.061 248.2C211.972 248.614 212.694 249.182 213.227 249.904C213.766 250.627 214.05 251.446 214.079 252.364H211.949ZM223.381 266.284C222.067 266.284 220.934 265.994 219.981 265.414C219.034 264.828 218.303 264.011 217.788 262.964C217.279 261.91 217.025 260.685 217.025 259.288C217.025 257.892 217.279 256.661 217.788 255.595C218.303 254.524 219.019 253.689 219.936 253.092C220.86 252.488 221.937 252.186 223.168 252.186C223.878 252.186 224.58 252.304 225.272 252.541C225.964 252.778 226.595 253.163 227.163 253.695C227.731 254.222 228.184 254.92 228.521 255.79C228.859 256.661 229.027 257.732 229.027 259.004V259.892H218.516V258.081H226.897C226.897 257.312 226.743 256.625 226.435 256.021C226.133 255.418 225.701 254.941 225.139 254.592C224.583 254.243 223.926 254.068 223.168 254.068C222.333 254.068 221.611 254.275 221.002 254.69C220.398 255.098 219.933 255.631 219.608 256.288C219.282 256.945 219.12 257.649 219.12 258.401V259.608C219.12 260.638 219.297 261.511 219.652 262.227C220.013 262.937 220.513 263.479 221.153 263.852C221.792 264.219 222.535 264.402 223.381 264.402C223.931 264.402 224.429 264.325 224.873 264.171C225.322 264.011 225.71 263.775 226.036 263.461C226.361 263.141 226.613 262.745 226.79 262.271L228.814 262.839C228.601 263.526 228.243 264.13 227.74 264.651C227.237 265.165 226.616 265.568 225.876 265.858C225.136 266.142 224.304 266.284 223.381 266.284ZM236.227 266.32C235.363 266.32 234.579 266.157 233.875 265.831C233.17 265.5 232.611 265.023 232.197 264.402C231.782 263.775 231.575 263.017 231.575 262.129C231.575 261.348 231.729 260.715 232.037 260.229C232.345 259.738 232.756 259.353 233.271 259.075C233.786 258.797 234.354 258.59 234.975 258.454C235.603 258.312 236.233 258.199 236.866 258.116C237.695 258.01 238.367 257.93 238.882 257.877C239.403 257.818 239.781 257.72 240.018 257.584C240.261 257.448 240.382 257.211 240.382 256.874V256.803C240.382 255.927 240.142 255.246 239.663 254.761C239.19 254.275 238.47 254.033 237.506 254.033C236.505 254.033 235.721 254.252 235.153 254.69C234.585 255.128 234.185 255.595 233.955 256.092L231.966 255.382C232.321 254.554 232.795 253.908 233.386 253.447C233.984 252.979 234.635 252.654 235.339 252.47C236.05 252.281 236.748 252.186 237.435 252.186C237.873 252.186 238.376 252.239 238.944 252.346C239.518 252.446 240.071 252.657 240.604 252.976C241.143 253.296 241.589 253.778 241.945 254.423C242.3 255.068 242.477 255.933 242.477 257.016V266H240.382V264.153H240.276C240.134 264.449 239.897 264.766 239.565 265.103C239.234 265.441 238.793 265.728 238.243 265.964C237.692 266.201 237.02 266.32 236.227 266.32ZM236.547 264.438C237.375 264.438 238.074 264.275 238.642 263.949C239.216 263.624 239.648 263.203 239.938 262.689C240.234 262.174 240.382 261.632 240.382 261.064V259.146C240.293 259.253 240.098 259.35 239.796 259.439C239.5 259.522 239.157 259.596 238.766 259.661C238.382 259.72 238.006 259.774 237.639 259.821C237.278 259.862 236.985 259.898 236.76 259.928C236.215 259.999 235.706 260.114 235.233 260.274C234.765 260.428 234.387 260.661 234.097 260.975C233.813 261.283 233.67 261.703 233.67 262.236C233.67 262.964 233.94 263.514 234.478 263.887C235.023 264.254 235.712 264.438 236.547 264.438ZM246.301 266V252.364H248.326V254.423H248.468C248.716 253.749 249.166 253.201 249.817 252.781C250.468 252.361 251.202 252.151 252.019 252.151C252.173 252.151 252.365 252.154 252.596 252.159C252.827 252.165 253.001 252.174 253.12 252.186V254.317C253.049 254.299 252.886 254.272 252.631 254.237C252.383 254.195 252.119 254.175 251.841 254.175C251.178 254.175 250.586 254.314 250.066 254.592C249.551 254.864 249.142 255.243 248.84 255.728C248.545 256.208 248.397 256.755 248.397 257.371V266H246.301ZM260.728 266.284C259.449 266.284 258.349 265.982 257.425 265.379C256.502 264.775 255.792 263.943 255.295 262.884C254.797 261.824 254.549 260.614 254.549 259.253C254.549 257.868 254.803 256.646 255.312 255.586C255.827 254.521 256.543 253.689 257.461 253.092C258.384 252.488 259.461 252.186 260.692 252.186C261.651 252.186 262.515 252.364 263.285 252.719C264.054 253.074 264.684 253.571 265.176 254.21C265.667 254.849 265.972 255.595 266.09 256.447H263.995C263.835 255.826 263.48 255.276 262.93 254.796C262.385 254.311 261.651 254.068 260.728 254.068C259.911 254.068 259.195 254.281 258.579 254.707C257.97 255.128 257.493 255.722 257.15 256.492C256.813 257.255 256.644 258.152 256.644 259.182C256.644 260.235 256.81 261.153 257.141 261.934C257.479 262.715 257.952 263.322 258.562 263.754C259.177 264.186 259.899 264.402 260.728 264.402C261.272 264.402 261.767 264.307 262.21 264.118C262.654 263.929 263.03 263.656 263.338 263.301C263.646 262.946 263.865 262.52 263.995 262.023H266.09C265.972 262.828 265.679 263.553 265.211 264.198C264.75 264.837 264.137 265.346 263.373 265.725C262.616 266.098 261.734 266.284 260.728 266.284ZM271.248 257.797V266H269.153V247.818H271.248V254.494H271.426C271.745 253.79 272.225 253.231 272.864 252.816C273.509 252.396 274.367 252.186 275.438 252.186C276.368 252.186 277.181 252.373 277.88 252.745C278.578 253.112 279.12 253.678 279.505 254.441C279.895 255.199 280.09 256.163 280.09 257.335V266H277.995V257.477C277.995 256.394 277.714 255.557 277.152 254.965C276.596 254.367 275.823 254.068 274.835 254.068C274.148 254.068 273.533 254.213 272.988 254.503C272.45 254.793 272.023 255.216 271.71 255.773C271.402 256.329 271.248 257.004 271.248 257.797Z" fill="black" fill-opacity="0.6"/>
<path d="M197.504 187L192.533 168.818H194.77L198.57 183.626H198.747L202.618 168.818H205.104L208.974 183.626H209.152L212.952 168.818H215.189L210.217 187H207.945L203.932 172.511H203.79L199.777 187H197.504ZM222.096 187.284C220.782 187.284 219.649 186.994 218.696 186.414C217.749 185.828 217.018 185.011 216.503 183.964C215.994 182.91 215.739 181.685 215.739 180.288C215.739 178.892 215.994 177.661 216.503 176.595C217.018 175.524 217.734 174.689 218.651 174.092C219.575 173.488 220.652 173.186 221.883 173.186C222.593 173.186 223.294 173.304 223.987 173.541C224.679 173.778 225.31 174.163 225.878 174.695C226.446 175.222 226.899 175.92 227.236 176.79C227.574 177.661 227.742 178.732 227.742 180.004V180.892H217.231V179.081H225.612C225.612 178.312 225.458 177.625 225.15 177.021C224.848 176.418 224.416 175.941 223.854 175.592C223.297 175.243 222.64 175.068 221.883 175.068C221.048 175.068 220.326 175.275 219.717 175.69C219.113 176.098 218.648 176.631 218.323 177.288C217.997 177.945 217.835 178.649 217.835 179.401V180.608C217.835 181.638 218.012 182.511 218.367 183.227C218.728 183.937 219.228 184.479 219.868 184.852C220.507 185.219 221.25 185.402 222.096 185.402C222.646 185.402 223.143 185.325 223.587 185.171C224.037 185.011 224.425 184.775 224.75 184.461C225.076 184.141 225.327 183.745 225.505 183.271L227.529 183.839C227.316 184.526 226.958 185.13 226.455 185.651C225.952 186.165 225.33 186.568 224.591 186.858C223.851 187.142 223.019 187.284 222.096 187.284ZM231.213 187V168.818H233.309V175.53H233.486C233.64 175.293 233.853 174.991 234.125 174.624C234.404 174.251 234.8 173.92 235.315 173.63C235.836 173.334 236.54 173.186 237.428 173.186C238.576 173.186 239.588 173.473 240.464 174.047C241.34 174.621 242.024 175.435 242.515 176.489C243.006 177.542 243.252 178.785 243.252 180.217C243.252 181.661 243.006 182.913 242.515 183.973C242.024 185.026 241.343 185.843 240.473 186.423C239.603 186.997 238.6 187.284 237.463 187.284C236.587 187.284 235.886 187.139 235.359 186.849C234.833 186.553 234.427 186.219 234.143 185.846C233.859 185.467 233.64 185.153 233.486 184.905H233.238V187H231.213ZM233.273 180.182C233.273 181.212 233.424 182.12 233.726 182.907C234.028 183.689 234.469 184.301 235.049 184.745C235.629 185.183 236.339 185.402 237.179 185.402C238.055 185.402 238.786 185.171 239.372 184.71C239.964 184.242 240.408 183.615 240.704 182.827C241.006 182.034 241.157 181.152 241.157 180.182C241.157 179.223 241.009 178.359 240.713 177.589C240.423 176.814 239.982 176.202 239.39 175.752C238.804 175.296 238.067 175.068 237.179 175.068C236.327 175.068 235.611 175.284 235.031 175.716C234.451 176.142 234.013 176.74 233.717 177.51C233.421 178.273 233.273 179.164 233.273 180.182ZM256.116 176.418L254.234 176.95C254.115 176.637 253.941 176.332 253.71 176.036C253.485 175.734 253.177 175.485 252.787 175.29C252.396 175.095 251.896 174.997 251.286 174.997C250.452 174.997 249.756 175.19 249.2 175.574C248.65 175.953 248.374 176.435 248.374 177.021C248.374 177.542 248.564 177.953 248.942 178.255C249.321 178.557 249.913 178.809 250.718 179.01L252.742 179.507C253.961 179.803 254.87 180.256 255.468 180.865C256.065 181.469 256.364 182.247 256.364 183.2C256.364 183.982 256.139 184.68 255.69 185.295C255.246 185.911 254.624 186.396 253.825 186.751C253.026 187.107 252.097 187.284 251.038 187.284C249.647 187.284 248.496 186.982 247.584 186.379C246.673 185.775 246.096 184.893 245.853 183.733L247.842 183.236C248.031 183.97 248.389 184.52 248.916 184.887C249.449 185.254 250.144 185.438 251.002 185.438C251.979 185.438 252.754 185.23 253.328 184.816C253.908 184.396 254.198 183.893 254.198 183.307C254.198 182.833 254.032 182.437 253.701 182.117C253.37 181.792 252.861 181.549 252.174 181.389L249.901 180.857C248.652 180.561 247.735 180.102 247.149 179.48C246.569 178.853 246.279 178.069 246.279 177.128C246.279 176.358 246.495 175.678 246.927 175.086C247.365 174.494 247.96 174.029 248.712 173.692C249.469 173.355 250.327 173.186 251.286 173.186C252.636 173.186 253.695 173.482 254.464 174.074C255.24 174.666 255.79 175.447 256.116 176.418ZM259.518 187V173.364H261.613V187H259.518ZM260.584 171.091C260.175 171.091 259.823 170.952 259.527 170.674C259.237 170.395 259.092 170.061 259.092 169.67C259.092 169.28 259.237 168.945 259.527 168.667C259.823 168.389 260.175 168.25 260.584 168.25C260.992 168.25 261.341 168.389 261.631 168.667C261.927 168.945 262.075 169.28 262.075 169.67C262.075 170.061 261.927 170.395 261.631 170.674C261.341 170.952 260.992 171.091 260.584 171.091ZM271.381 173.364V175.139H264.314V173.364H271.381ZM266.374 170.097H268.469V183.094C268.469 183.686 268.555 184.129 268.727 184.425C268.904 184.715 269.129 184.911 269.401 185.011C269.68 185.106 269.973 185.153 270.28 185.153C270.511 185.153 270.701 185.142 270.849 185.118C270.997 185.088 271.115 185.065 271.204 185.047L271.63 186.929C271.488 186.982 271.289 187.036 271.035 187.089C270.78 187.148 270.458 187.178 270.067 187.178C269.475 187.178 268.895 187.05 268.327 186.796C267.765 186.541 267.297 186.154 266.925 185.633C266.558 185.112 266.374 184.455 266.374 183.662V170.097ZM280.104 187.284C278.79 187.284 277.656 186.994 276.703 186.414C275.757 185.828 275.026 185.011 274.511 183.964C274.002 182.91 273.747 181.685 273.747 180.288C273.747 178.892 274.002 177.661 274.511 176.595C275.026 175.524 275.742 174.689 276.659 174.092C277.582 173.488 278.66 173.186 279.891 173.186C280.601 173.186 281.302 173.304 281.995 173.541C282.687 173.778 283.317 174.163 283.886 174.695C284.454 175.222 284.907 175.92 285.244 176.79C285.581 177.661 285.75 178.732 285.75 180.004V180.892H275.239V179.081H283.619C283.619 178.312 283.465 177.625 283.158 177.021C282.856 176.418 282.424 175.941 281.862 175.592C281.305 175.243 280.648 175.068 279.891 175.068C279.056 175.068 278.334 175.275 277.724 175.69C277.121 176.098 276.656 176.631 276.331 177.288C276.005 177.945 275.842 178.649 275.842 179.401V180.608C275.842 181.638 276.02 182.511 276.375 183.227C276.736 183.937 277.236 184.479 277.875 184.852C278.515 185.219 279.257 185.402 280.104 185.402C280.654 185.402 281.151 185.325 281.595 185.171C282.045 185.011 282.433 184.775 282.758 184.461C283.084 184.141 283.335 183.745 283.513 183.271L285.537 183.839C285.324 184.526 284.966 185.13 284.463 185.651C283.96 186.165 283.338 186.568 282.598 186.858C281.859 187.142 281.027 187.284 280.104 187.284ZM295.258 170.771V168.818H308.895V170.771H303.177V187H300.975V170.771H295.258ZM310.592 187V173.364H312.617V175.423H312.759C313.007 174.749 313.457 174.201 314.108 173.781C314.759 173.361 315.493 173.151 316.31 173.151C316.464 173.151 316.656 173.154 316.887 173.159C317.118 173.165 317.292 173.174 317.411 173.186V175.317C317.34 175.299 317.177 175.272 316.922 175.237C316.674 175.195 316.41 175.175 316.132 175.175C315.469 175.175 314.877 175.314 314.357 175.592C313.842 175.864 313.433 176.243 313.131 176.728C312.836 177.208 312.688 177.755 312.688 178.371V187H310.592ZM323.907 187.32C323.043 187.32 322.259 187.157 321.554 186.831C320.85 186.5 320.291 186.023 319.876 185.402C319.462 184.775 319.255 184.017 319.255 183.129C319.255 182.348 319.409 181.715 319.717 181.229C320.024 180.738 320.436 180.353 320.951 180.075C321.466 179.797 322.034 179.59 322.655 179.454C323.283 179.312 323.913 179.199 324.546 179.116C325.375 179.01 326.047 178.93 326.561 178.877C327.082 178.818 327.461 178.72 327.698 178.584C327.94 178.448 328.062 178.211 328.062 177.874V177.803C328.062 176.927 327.822 176.246 327.343 175.761C326.869 175.275 326.15 175.033 325.185 175.033C324.185 175.033 323.401 175.252 322.833 175.69C322.265 176.128 321.865 176.595 321.634 177.092L319.646 176.382C320.001 175.554 320.474 174.908 321.066 174.447C321.664 173.979 322.315 173.654 323.019 173.47C323.729 173.281 324.428 173.186 325.114 173.186C325.552 173.186 326.055 173.239 326.624 173.346C327.198 173.446 327.751 173.657 328.284 173.976C328.822 174.296 329.269 174.778 329.624 175.423C329.979 176.068 330.157 176.933 330.157 178.016V187H328.062V185.153H327.955C327.813 185.449 327.576 185.766 327.245 186.103C326.914 186.441 326.473 186.728 325.922 186.964C325.372 187.201 324.7 187.32 323.907 187.32ZM324.227 185.438C325.055 185.438 325.754 185.275 326.322 184.949C326.896 184.624 327.328 184.203 327.618 183.689C327.914 183.174 328.062 182.632 328.062 182.064V180.146C327.973 180.253 327.778 180.35 327.476 180.439C327.18 180.522 326.837 180.596 326.446 180.661C326.061 180.72 325.685 180.774 325.319 180.821C324.958 180.862 324.665 180.898 324.44 180.928C323.895 180.999 323.386 181.114 322.913 181.274C322.445 181.428 322.066 181.661 321.776 181.975C321.492 182.283 321.35 182.703 321.35 183.236C321.35 183.964 321.619 184.514 322.158 184.887C322.703 185.254 323.392 185.438 324.227 185.438ZM340.054 173.364V175.139H332.703V173.364H340.054ZM334.904 187V171.482C334.904 170.7 335.088 170.049 335.455 169.528C335.822 169.008 336.298 168.617 336.884 168.357C337.47 168.096 338.089 167.966 338.74 167.966C339.255 167.966 339.675 168.007 340 168.09C340.326 168.173 340.568 168.25 340.728 168.321L340.125 170.132C340.018 170.097 339.87 170.052 339.681 169.999C339.497 169.946 339.255 169.919 338.953 169.919C338.26 169.919 337.76 170.094 337.452 170.443C337.15 170.792 337 171.304 337 171.979V187H334.904ZM349.062 173.364V175.139H341.711V173.364H349.062ZM343.913 187V171.482C343.913 170.7 344.097 170.049 344.464 169.528C344.831 169.008 345.307 168.617 345.893 168.357C346.479 168.096 347.097 167.966 347.748 167.966C348.263 167.966 348.684 168.007 349.009 168.09C349.335 168.173 349.577 168.25 349.737 168.321L349.133 170.132C349.027 170.097 348.879 170.052 348.689 169.999C348.506 169.946 348.263 169.919 347.961 169.919C347.269 169.919 346.769 170.094 346.461 170.443C346.159 170.792 346.008 171.304 346.008 171.979V187H343.913ZM351.999 187V173.364H354.094V187H351.999ZM353.064 171.091C352.656 171.091 352.303 170.952 352.008 170.674C351.718 170.395 351.573 170.061 351.573 169.67C351.573 169.28 351.718 168.945 352.008 168.667C352.303 168.389 352.656 168.25 353.064 168.25C353.472 168.25 353.822 168.389 354.112 168.667C354.408 168.945 354.555 169.28 354.555 169.67C354.555 170.061 354.408 170.395 354.112 170.674C353.822 170.952 353.472 171.091 353.064 171.091ZM363.471 187.284C362.193 187.284 361.092 186.982 360.169 186.379C359.245 185.775 358.535 184.943 358.038 183.884C357.541 182.824 357.292 181.614 357.292 180.253C357.292 178.868 357.547 177.646 358.056 176.586C358.57 175.521 359.287 174.689 360.204 174.092C361.127 173.488 362.204 173.186 363.436 173.186C364.394 173.186 365.258 173.364 366.028 173.719C366.797 174.074 367.428 174.571 367.919 175.21C368.41 175.849 368.715 176.595 368.833 177.447H366.738C366.578 176.826 366.223 176.276 365.673 175.796C365.128 175.311 364.394 175.068 363.471 175.068C362.654 175.068 361.938 175.281 361.323 175.707C360.713 176.128 360.237 176.722 359.893 177.492C359.556 178.255 359.387 179.152 359.387 180.182C359.387 181.235 359.553 182.153 359.884 182.934C360.222 183.715 360.695 184.322 361.305 184.754C361.92 185.186 362.642 185.402 363.471 185.402C364.016 185.402 364.51 185.307 364.954 185.118C365.398 184.929 365.773 184.656 366.081 184.301C366.389 183.946 366.608 183.52 366.738 183.023H368.833C368.715 183.828 368.422 184.553 367.954 185.198C367.493 185.837 366.88 186.346 366.117 186.725C365.359 187.098 364.477 187.284 363.471 187.284Z" fill="black" fill-opacity="0.6"/>
<path d="M113.145 316.364C113.038 315.464 112.606 314.766 111.849 314.268C111.091 313.771 110.162 313.523 109.061 313.523C108.256 313.523 107.552 313.653 106.948 313.913C106.35 314.174 105.883 314.532 105.545 314.988C105.214 315.443 105.048 315.961 105.048 316.541C105.048 317.027 105.164 317.444 105.395 317.793C105.631 318.136 105.933 318.423 106.3 318.654C106.667 318.879 107.052 319.065 107.454 319.213C107.857 319.355 108.227 319.471 108.564 319.56L110.411 320.057C110.884 320.181 111.411 320.353 111.991 320.572C112.577 320.791 113.136 321.09 113.669 321.468C114.207 321.841 114.651 322.321 115 322.907C115.35 323.493 115.524 324.212 115.524 325.064C115.524 326.046 115.267 326.934 114.752 327.727C114.243 328.52 113.497 329.151 112.515 329.618C111.538 330.086 110.351 330.32 108.955 330.32C107.652 330.32 106.525 330.109 105.572 329.689C104.625 329.269 103.879 328.683 103.335 327.931C102.796 327.18 102.491 326.307 102.42 325.312H104.693C104.752 325.999 104.983 326.567 105.386 327.017C105.794 327.461 106.309 327.792 106.93 328.011C107.558 328.224 108.232 328.331 108.955 328.331C109.795 328.331 110.55 328.195 111.218 327.923C111.887 327.644 112.417 327.26 112.808 326.768C113.198 326.271 113.393 325.691 113.393 325.028C113.393 324.425 113.225 323.933 112.887 323.555C112.55 323.176 112.106 322.868 111.556 322.631C111.005 322.395 110.411 322.187 109.771 322.01L107.534 321.371C106.114 320.962 104.989 320.379 104.161 319.622C103.332 318.864 102.918 317.873 102.918 316.648C102.918 315.63 103.193 314.742 103.743 313.984C104.3 313.221 105.045 312.629 105.98 312.209C106.922 311.783 107.972 311.57 109.132 311.57C110.304 311.57 111.346 311.78 112.257 312.2C113.169 312.614 113.891 313.182 114.423 313.904C114.962 314.627 115.246 315.446 115.276 316.364H113.145ZM124.4 330.284C123.169 330.284 122.089 329.991 121.159 329.405C120.236 328.819 119.514 328 118.993 326.946C118.478 325.893 118.221 324.661 118.221 323.253C118.221 321.832 118.478 320.592 118.993 319.533C119.514 318.474 120.236 317.651 121.159 317.065C122.089 316.479 123.169 316.186 124.4 316.186C125.631 316.186 126.708 316.479 127.631 317.065C128.561 317.651 129.283 318.474 129.797 319.533C130.318 320.592 130.579 321.832 130.579 323.253C130.579 324.661 130.318 325.893 129.797 326.946C129.283 328 128.561 328.819 127.631 329.405C126.708 329.991 125.631 330.284 124.4 330.284ZM124.4 328.402C125.335 328.402 126.104 328.162 126.708 327.683C127.312 327.203 127.759 326.573 128.049 325.792C128.339 325.011 128.484 324.164 128.484 323.253C128.484 322.341 128.339 321.492 128.049 320.705C127.759 319.918 127.312 319.281 126.708 318.796C126.104 318.311 125.335 318.068 124.4 318.068C123.465 318.068 122.695 318.311 122.092 318.796C121.488 319.281 121.041 319.918 120.751 320.705C120.461 321.492 120.316 322.341 120.316 323.253C120.316 324.164 120.461 325.011 120.751 325.792C121.041 326.573 121.488 327.203 122.092 327.683C122.695 328.162 123.465 328.402 124.4 328.402ZM139.317 330.284C138.038 330.284 136.938 329.982 136.014 329.379C135.091 328.775 134.381 327.943 133.884 326.884C133.386 325.824 133.138 324.614 133.138 323.253C133.138 321.868 133.392 320.646 133.901 319.586C134.416 318.521 135.132 317.689 136.05 317.092C136.973 316.488 138.05 316.186 139.281 316.186C140.24 316.186 141.104 316.364 141.874 316.719C142.643 317.074 143.273 317.571 143.765 318.21C144.256 318.849 144.561 319.595 144.679 320.447H142.584C142.424 319.826 142.069 319.276 141.518 318.796C140.974 318.311 140.24 318.068 139.317 318.068C138.5 318.068 137.784 318.281 137.168 318.707C136.559 319.128 136.082 319.722 135.739 320.492C135.402 321.255 135.233 322.152 135.233 323.182C135.233 324.235 135.399 325.153 135.73 325.934C136.067 326.715 136.541 327.322 137.151 327.754C137.766 328.186 138.488 328.402 139.317 328.402C139.861 328.402 140.355 328.307 140.799 328.118C141.243 327.929 141.619 327.656 141.927 327.301C142.235 326.946 142.454 326.52 142.584 326.023H144.679C144.561 326.828 144.268 327.553 143.8 328.198C143.338 328.837 142.726 329.346 141.962 329.725C141.205 330.098 140.323 330.284 139.317 330.284ZM147.742 330V316.364H149.837V330H147.742ZM148.807 314.091C148.399 314.091 148.047 313.952 147.751 313.674C147.461 313.395 147.316 313.061 147.316 312.67C147.316 312.28 147.461 311.945 147.751 311.667C148.047 311.389 148.399 311.25 148.807 311.25C149.216 311.25 149.565 311.389 149.855 311.667C150.151 311.945 150.299 312.28 150.299 312.67C150.299 313.061 150.151 313.395 149.855 313.674C149.565 313.952 149.216 314.091 148.807 314.091ZM157.687 330.32C156.823 330.32 156.039 330.157 155.335 329.831C154.63 329.5 154.071 329.023 153.657 328.402C153.242 327.775 153.035 327.017 153.035 326.129C153.035 325.348 153.189 324.715 153.497 324.229C153.805 323.738 154.216 323.353 154.731 323.075C155.246 322.797 155.814 322.59 156.435 322.454C157.063 322.312 157.693 322.199 158.326 322.116C159.155 322.01 159.827 321.93 160.342 321.877C160.863 321.818 161.241 321.72 161.478 321.584C161.721 321.448 161.842 321.211 161.842 320.874V320.803C161.842 319.927 161.602 319.246 161.123 318.761C160.649 318.275 159.93 318.033 158.966 318.033C157.965 318.033 157.181 318.252 156.613 318.69C156.045 319.128 155.645 319.595 155.415 320.092L153.426 319.382C153.781 318.554 154.254 317.908 154.846 317.447C155.444 316.979 156.095 316.654 156.799 316.47C157.51 316.281 158.208 316.186 158.895 316.186C159.333 316.186 159.836 316.239 160.404 316.346C160.978 316.446 161.531 316.657 162.064 316.976C162.603 317.296 163.049 317.778 163.405 318.423C163.76 319.068 163.937 319.933 163.937 321.016V330H161.842V328.153H161.736C161.593 328.449 161.357 328.766 161.025 329.103C160.694 329.441 160.253 329.728 159.703 329.964C159.152 330.201 158.48 330.32 157.687 330.32ZM158.007 328.438C158.835 328.438 159.534 328.275 160.102 327.949C160.676 327.624 161.108 327.203 161.398 326.689C161.694 326.174 161.842 325.632 161.842 325.064V323.146C161.753 323.253 161.558 323.35 161.256 323.439C160.96 323.522 160.617 323.596 160.226 323.661C159.842 323.72 159.466 323.774 159.099 323.821C158.738 323.862 158.445 323.898 158.22 323.928C157.675 323.999 157.166 324.114 156.693 324.274C156.225 324.428 155.847 324.661 155.557 324.975C155.272 325.283 155.13 325.703 155.13 326.236C155.13 326.964 155.4 327.514 155.938 327.887C156.483 328.254 157.172 328.438 158.007 328.438ZM169.857 311.818V330H167.761V311.818H169.857Z" fill="black" fill-opacity="0.6"/>
<path d="M103.202 394V375.818H114.175V377.771H105.403V383.915H113.607V385.868H105.403V392.047H114.317V394H103.202ZM117.859 394V380.364H119.883V382.494H120.061C120.345 381.766 120.804 381.201 121.437 380.799C122.07 380.39 122.831 380.186 123.718 380.186C124.618 380.186 125.367 380.39 125.964 380.799C126.568 381.201 127.039 381.766 127.376 382.494H127.518C127.867 381.79 128.391 381.231 129.089 380.816C129.788 380.396 130.625 380.186 131.602 380.186C132.821 380.186 133.818 380.568 134.594 381.331C135.369 382.089 135.757 383.27 135.757 384.874V394H133.662V384.874C133.662 383.867 133.386 383.148 132.836 382.716C132.286 382.284 131.637 382.068 130.892 382.068C129.933 382.068 129.19 382.358 128.663 382.938C128.137 383.512 127.873 384.24 127.873 385.122V394H125.743V384.661C125.743 383.885 125.491 383.261 124.988 382.787C124.485 382.308 123.837 382.068 123.044 382.068C122.499 382.068 121.99 382.213 121.517 382.503C121.049 382.793 120.67 383.196 120.38 383.711C120.096 384.22 119.954 384.808 119.954 385.477V394H117.859ZM143.6 394.32C142.736 394.32 141.952 394.157 141.248 393.831C140.543 393.5 139.984 393.023 139.57 392.402C139.155 391.775 138.948 391.017 138.948 390.129C138.948 389.348 139.102 388.715 139.41 388.229C139.718 387.738 140.129 387.353 140.644 387.075C141.159 386.797 141.727 386.59 142.349 386.454C142.976 386.312 143.606 386.199 144.24 386.116C145.068 386.01 145.74 385.93 146.255 385.877C146.776 385.818 147.154 385.72 147.391 385.584C147.634 385.448 147.755 385.211 147.755 384.874V384.803C147.755 383.927 147.515 383.246 147.036 382.761C146.563 382.275 145.843 382.033 144.879 382.033C143.878 382.033 143.094 382.252 142.526 382.69C141.958 383.128 141.558 383.595 141.328 384.092L139.339 383.382C139.694 382.554 140.168 381.908 140.759 381.447C141.357 380.979 142.008 380.654 142.713 380.47C143.423 380.281 144.121 380.186 144.808 380.186C145.246 380.186 145.749 380.239 146.317 380.346C146.891 380.446 147.444 380.657 147.977 380.976C148.516 381.296 148.963 381.778 149.318 382.423C149.673 383.068 149.85 383.933 149.85 385.016V394H147.755V392.153H147.649C147.507 392.449 147.27 392.766 146.938 393.103C146.607 393.441 146.166 393.728 145.616 393.964C145.065 394.201 144.393 394.32 143.6 394.32ZM143.92 392.438C144.749 392.438 145.447 392.275 146.015 391.949C146.589 391.624 147.021 391.203 147.311 390.689C147.607 390.174 147.755 389.632 147.755 389.064V387.146C147.666 387.253 147.471 387.35 147.169 387.439C146.873 387.522 146.53 387.596 146.139 387.661C145.755 387.72 145.379 387.774 145.012 387.821C144.651 387.862 144.358 387.898 144.133 387.928C143.588 387.999 143.079 388.114 142.606 388.274C142.138 388.428 141.76 388.661 141.47 388.975C141.186 389.283 141.044 389.703 141.044 390.236C141.044 390.964 141.313 391.514 141.851 391.887C142.396 392.254 143.085 392.438 143.92 392.438ZM153.674 394V380.364H155.77V394H153.674ZM154.74 378.091C154.331 378.091 153.979 377.952 153.683 377.674C153.393 377.395 153.248 377.061 153.248 376.67C153.248 376.28 153.393 375.945 153.683 375.667C153.979 375.389 154.331 375.25 154.74 375.25C155.148 375.25 155.497 375.389 155.787 375.667C156.083 375.945 156.231 376.28 156.231 376.67C156.231 377.061 156.083 377.395 155.787 377.674C155.497 377.952 155.148 378.091 154.74 378.091ZM161.702 375.818V394H159.607V375.818H161.702ZM172.855 394V375.818H175.057V392.047H183.508V394H172.855ZM192.351 394.284C191.037 394.284 189.903 393.994 188.951 393.414C188.004 392.828 187.273 392.011 186.758 390.964C186.249 389.91 185.994 388.685 185.994 387.288C185.994 385.892 186.249 384.661 186.758 383.595C187.273 382.524 187.989 381.689 188.906 381.092C189.829 380.488 190.907 380.186 192.138 380.186C192.848 380.186 193.549 380.304 194.242 380.541C194.934 380.778 195.565 381.163 196.133 381.695C196.701 382.222 197.154 382.92 197.491 383.79C197.828 384.661 197.997 385.732 197.997 387.004V387.892H187.486V386.081H195.866C195.866 385.312 195.713 384.625 195.405 384.021C195.103 383.418 194.671 382.941 194.109 382.592C193.552 382.243 192.895 382.068 192.138 382.068C191.303 382.068 190.581 382.275 189.972 382.69C189.368 383.098 188.903 383.631 188.578 384.288C188.252 384.945 188.089 385.649 188.089 386.401V387.608C188.089 388.638 188.267 389.511 188.622 390.227C188.983 390.937 189.483 391.479 190.122 391.852C190.762 392.219 191.504 392.402 192.351 392.402C192.901 392.402 193.398 392.325 193.842 392.171C194.292 392.011 194.68 391.775 195.005 391.461C195.331 391.141 195.582 390.745 195.76 390.271L197.784 390.839C197.571 391.526 197.213 392.13 196.71 392.651C196.207 393.165 195.585 393.568 194.845 393.858C194.106 394.142 193.274 394.284 192.351 394.284ZM205.197 394.32C204.333 394.32 203.549 394.157 202.844 393.831C202.14 393.5 201.581 393.023 201.166 392.402C200.752 391.775 200.545 391.017 200.545 390.129C200.545 389.348 200.699 388.715 201.007 388.229C201.314 387.738 201.726 387.353 202.241 387.075C202.756 386.797 203.324 386.59 203.945 386.454C204.573 386.312 205.203 386.199 205.836 386.116C206.665 386.01 207.337 385.93 207.851 385.877C208.372 385.818 208.751 385.72 208.988 385.584C209.23 385.448 209.352 385.211 209.352 384.874V384.803C209.352 383.927 209.112 383.246 208.633 382.761C208.159 382.275 207.44 382.033 206.475 382.033C205.475 382.033 204.691 382.252 204.123 382.69C203.555 383.128 203.155 383.595 202.924 384.092L200.936 383.382C201.291 382.554 201.764 381.908 202.356 381.447C202.954 380.979 203.605 380.654 204.309 380.47C205.019 380.281 205.718 380.186 206.404 380.186C206.842 380.186 207.345 380.239 207.914 380.346C208.488 380.446 209.041 380.657 209.574 380.976C210.112 381.296 210.559 381.778 210.914 382.423C211.269 383.068 211.447 383.933 211.447 385.016V394H209.352V392.153H209.245C209.103 392.449 208.867 392.766 208.535 393.103C208.204 393.441 207.763 393.728 207.212 393.964C206.662 394.201 205.99 394.32 205.197 394.32ZM205.517 392.438C206.345 392.438 207.044 392.275 207.612 391.949C208.186 391.624 208.618 391.203 208.908 390.689C209.204 390.174 209.352 389.632 209.352 389.064V387.146C209.263 387.253 209.068 387.35 208.766 387.439C208.47 387.522 208.127 387.596 207.736 387.661C207.351 387.72 206.976 387.774 206.609 387.821C206.248 387.862 205.955 387.898 205.73 387.928C205.185 387.999 204.676 388.114 204.203 388.274C203.735 388.428 203.356 388.661 203.066 388.975C202.782 389.283 202.64 389.703 202.64 390.236C202.64 390.964 202.909 391.514 203.448 391.887C203.993 392.254 204.682 392.438 205.517 392.438ZM220.42 394.284C219.284 394.284 218.281 393.997 217.411 393.423C216.541 392.843 215.86 392.026 215.369 390.973C214.878 389.913 214.632 388.661 214.632 387.217C214.632 385.785 214.878 384.542 215.369 383.489C215.86 382.435 216.544 381.621 217.42 381.047C218.296 380.473 219.308 380.186 220.456 380.186C221.344 380.186 222.045 380.334 222.56 380.63C223.081 380.92 223.477 381.251 223.749 381.624C224.028 381.991 224.244 382.293 224.398 382.53H224.575V375.818H226.67V394H224.646V391.905H224.398C224.244 392.153 224.025 392.467 223.741 392.846C223.456 393.219 223.051 393.553 222.524 393.849C221.998 394.139 221.296 394.284 220.42 394.284ZM220.704 392.402C221.545 392.402 222.255 392.183 222.835 391.745C223.415 391.301 223.856 390.689 224.158 389.907C224.46 389.12 224.611 388.212 224.611 387.182C224.611 386.164 224.463 385.273 224.167 384.51C223.871 383.74 223.433 383.142 222.853 382.716C222.273 382.284 221.557 382.068 220.704 382.068C219.817 382.068 219.077 382.296 218.485 382.752C217.899 383.202 217.458 383.814 217.162 384.589C216.872 385.359 216.727 386.223 216.727 387.182C216.727 388.152 216.875 389.034 217.171 389.827C217.473 390.615 217.917 391.242 218.503 391.71C219.095 392.171 219.828 392.402 220.704 392.402Z" fill="black" fill-opacity="0.6"/>
<rect x="323" y="253" width="133" height="8" rx="4" fill="#C0C0C0" fill-opacity="0.3"/>
<rect x="323" y="253" width="43" height="8" rx="4" fill="#73A6E4" fill-opacity="0.7"/>
<rect x="323" y="317" width="133" height="8" rx="4" fill="#C0C0C0" fill-opacity="0.3"/>
<rect x="323" y="317" width="84" height="8" rx="4" fill="#73A6E4" fill-opacity="0.7"/>
<rect x="322" y="381" width="133" height="8" rx="4" fill="#C0C0C0" fill-opacity="0.3"/>
<rect x="382" y="554" width="254" height="50" rx="25" fill="#C0C0C0" fill-opacity="0.3"/>
<rect x="382" y="630" width="254" height="50" rx="25" fill="#C0C0C0" fill-opacity="0.3"/>
<rect x="382" y="706" width="254" height="50" rx="25" fill="#C0C0C0" fill-opacity="0.3"/>
<rect x="322" y="381" width="63" height="8" rx="4" fill="#73A6E4" fill-opacity="0.7"/>
<circle cx="322" cy="579" r="25" fill="#5CCAB2" fill-opacity="0.7"/>
<circle cx="322" cy="655" r="25" fill="#F7C945" fill-opacity="0.7"/>
<circle cx="322" cy="731" r="25" fill="#ED4B45" fill-opacity="0.7"/>
<defs>
<filter id="filter0_d_1067_295" x="53" y="104" width="460" height="374" filterUnits="userSpaceOnUse" color-interpolation-filters="sRGB">
<feFlood flood-opacity="0" result="BackgroundImageFix"/>
<feColorMatrix in="SourceAlpha" type="matrix" values="0 0 0 0 0 0 0 0 0 0 0 0 0 0 0 0 0 0 127 0" result="hardAlpha"/>
<feOffset dy="4"/>
<feGaussianBlur stdDeviation="2"/>
<feComposite in2="hardAlpha" operator="out"/>
<feColorMatrix type="matrix" values="0 0 0 0 0 0 0 0 0 0 0 0 0 0 0 0 0 0 0.25 0"/>
<feBlend mode="normal" in2="BackgroundImageFix" result="effect1_dropShadow_1067_295"/>
<feBlend mode="normal" in="SourceGraphic" in2="effect1_dropShadow_1067_295" result="shape"/>
</filter>
<filter id="filter1_d_1067_295" x="225" y="514" width="460" height="290" filterUnits="userSpaceOnUse" color-interpolation-filters="sRGB">
<feFlood flood-opacity="0" result="BackgroundImageFix"/>
<feColorMatrix in="SourceAlpha" type="matrix" values="0 0 0 0 0 0 0 0 0 0 0 0 0 0 0 0 0 0 127 0" result="hardAlpha"/>
<feOffset dy="4"/>
<feGaussianBlur stdDeviation="2"/>
<feComposite in2="hardAlpha" operator="out"/>
<feColorMatrix type="matrix" values="0 0 0 0 0 0 0 0 0 0 0 0 0 0 0 0 0 0 0.25 0"/>
<feBlend mode="normal" in2="BackgroundImageFix" result="effect1_dropShadow_1067_295"/>
<feBlend mode="normal" in="SourceGraphic" in2="effect1_dropShadow_1067_295" result="shape"/>
</filter>
<filter id="filter2_d_1067_295" x="560" y="168" width="286" height="310" filterUnits="userSpaceOnUse" color-interpolation-filters="sRGB">
<feFlood flood-opacity="0" result="BackgroundImageFix"/>
<feColorMatrix in="SourceAlpha" type="matrix" values="0 0 0 0 0 0 0 0 0 0 0 0 0 0 0 0 0 0 127 0" result="hardAlpha"/>
<feOffset dy="4"/>
<feGaussianBlur stdDeviation="2"/>
<feComposite in2="hardAlpha" operator="out"/>
<feColorMatrix type="matrix" values="0 0 0 0 0 0 0 0 0 0 0 0 0 0 0 0 0 0 0.25 0"/>
<feBlend mode="normal" in2="BackgroundImageFix" result="effect1_dropShadow_1067_295"/>
<feBlend mode="normal" in="SourceGraphic" in2="effect1_dropShadow_1067_295" result="shape"/>
</filter>
</defs>
</svg>
