<svg width="900" height="900" viewBox="0 0 900 900" fill="none" xmlns="http://www.w3.org/2000/svg">
<rect width="900" height="900" rx="30" fill="#567EAF" fill-opacity="0.3"/>
<g filter="url(#filter0_d_1067_294)">
<rect x="131" y="678" width="452" height="285" rx="30" transform="rotate(-90 131 678)" fill="white" fill-opacity="0.7" shape-rendering="crispEdges"/>
</g>
<rect x="221" y="346" width="171" height="50" rx="25" fill="#C0C0C0" fill-opacity="0.3"/>
<circle cx="184" cy="371" r="25" fill="#5CCAB2" fill-opacity="0.7"/>
<g filter="url(#filter1_d_1067_294)">
<rect x="484" y="416" width="312" height="285" rx="30" transform="rotate(-90 484 416)" fill="white" fill-opacity="0.7" shape-rendering="crispEdges"/>
</g>
<path d="M654.534 321.885H598.494" stroke="#F7A745" stroke-opacity="0.7" stroke-width="6.22682" stroke-miterlimit="10" stroke-linecap="round" stroke-linejoin="round"/>
<path d="M644.416 311.768L654.533 321.885L644.416 332.005" stroke="#F7A745" stroke-opacity="0.7" stroke-width="6.22682" stroke-miterlimit="10" stroke-linecap="round" stroke-linejoin="round"/>
<path d="M626.514 223.814V235.936" stroke="#73A6E4" stroke-opacity="0.7" stroke-width="6.22682" stroke-miterlimit="10" stroke-linecap="round" stroke-linejoin="round"/>
<path d="M593.495 268.957H570.476C563.599 268.957 558.021 274.534 558.021 281.411V296.981" stroke="#73A6E4" stroke-opacity="0.7" stroke-width="6.22682" stroke-miterlimit="10" stroke-linecap="round" stroke-linejoin="round"/>
<path d="M659.539 268.957H682.558C689.435 268.957 695.007 274.534 695.007 281.411V296.981" stroke="#73A6E4" stroke-opacity="0.7" stroke-width="6.22682" stroke-miterlimit="10" stroke-linecap="round" stroke-linejoin="round"/>
<path d="M670.102 174H582.924C571.797 174 562.688 183.104 562.688 194.237V203.577C562.688 214.706 571.797 223.814 582.924 223.814H670.102C681.229 223.814 690.339 214.706 690.339 203.577V194.237C690.339 183.104 681.229 174 670.102 174Z" stroke="#73A6E4" stroke-opacity="0.7" stroke-width="6.22682" stroke-miterlimit="10" stroke-linecap="round" stroke-linejoin="round"/>
<path d="M670.104 198.904H582.926" stroke="#73A6E4" stroke-width="6.22682" stroke-miterlimit="10" stroke-linecap="round" stroke-linejoin="round"/>
<g filter="url(#filter2_d_1067_294)">
<rect x="484" y="796" width="312" height="285" rx="30" transform="rotate(-90 484 796)" fill="white" fill-opacity="0.7" shape-rendering="crispEdges"/>
</g>
<path d="M626.979 544V574.219C663.304 574.219 692.749 603.665 692.749 639.983C692.749 676.31 663.304 705.753 626.979 705.753C590.659 705.753 561.215 676.31 561.215 639.983C561.215 621.822 568.575 605.383 580.477 593.481L559.112 572.112C541.74 589.483 531 613.479 531 639.983C531 692.997 573.972 735.969 626.979 735.969C679.993 735.969 722.965 692.997 722.965 639.983C722.965 586.976 679.993 544 626.979 544Z" stroke="#C0C0C0" stroke-width="7.1099" stroke-miterlimit="10" stroke-linecap="round" stroke-linejoin="round"/>
<path d="M693 640H723.215" stroke="#C0C0C0" stroke-width="7.1099" stroke-miterlimit="10" stroke-linecap="round" stroke-linejoin="round"/>
<path d="M566.365 669L545 690.363" stroke="#C0C0C0" stroke-width="7.1099" stroke-miterlimit="10" stroke-linecap="round" stroke-linejoin="round"/>
<path d="M176.403 272.818V291H174.202V272.818H176.403ZM182.629 282.797V291H180.534V277.364H182.558V279.494H182.736C183.055 278.802 183.54 278.246 184.191 277.825C184.843 277.399 185.683 277.186 186.713 277.186C187.636 277.186 188.444 277.375 189.136 277.754C189.829 278.127 190.368 278.695 190.752 279.459C191.137 280.216 191.329 281.175 191.329 282.335V291H189.234V282.477C189.234 281.406 188.956 280.571 188.4 279.974C187.843 279.37 187.08 279.068 186.109 279.068C185.44 279.068 184.843 279.213 184.316 279.503C183.795 279.793 183.384 280.216 183.082 280.773C182.78 281.329 182.629 282.004 182.629 282.797ZM204.817 280.418L202.935 280.95C202.816 280.637 202.642 280.332 202.411 280.036C202.186 279.734 201.878 279.485 201.488 279.29C201.097 279.095 200.597 278.997 199.987 278.997C199.153 278.997 198.457 279.19 197.901 279.574C197.351 279.953 197.075 280.435 197.075 281.021C197.075 281.542 197.265 281.953 197.644 282.255C198.022 282.557 198.614 282.809 199.419 283.01L201.443 283.507C202.663 283.803 203.571 284.256 204.169 284.865C204.767 285.469 205.066 286.247 205.066 287.2C205.066 287.982 204.841 288.68 204.391 289.295C203.947 289.911 203.325 290.396 202.526 290.751C201.727 291.107 200.798 291.284 199.739 291.284C198.348 291.284 197.197 290.982 196.285 290.379C195.374 289.775 194.797 288.893 194.554 287.733L196.543 287.236C196.732 287.97 197.09 288.52 197.617 288.887C198.15 289.254 198.845 289.438 199.703 289.438C200.68 289.438 201.455 289.23 202.029 288.816C202.609 288.396 202.899 287.893 202.899 287.307C202.899 286.833 202.734 286.437 202.402 286.117C202.071 285.792 201.562 285.549 200.875 285.389L198.602 284.857C197.354 284.561 196.436 284.102 195.85 283.48C195.27 282.853 194.98 282.069 194.98 281.128C194.98 280.358 195.196 279.678 195.628 279.086C196.066 278.494 196.661 278.029 197.413 277.692C198.17 277.355 199.029 277.186 199.987 277.186C201.337 277.186 202.396 277.482 203.166 278.074C203.941 278.666 204.491 279.447 204.817 280.418ZM208.219 291V277.364H210.315V291H208.219ZM209.285 275.091C208.876 275.091 208.524 274.952 208.228 274.674C207.938 274.395 207.793 274.061 207.793 273.67C207.793 273.28 207.938 272.945 208.228 272.667C208.524 272.389 208.876 272.25 209.285 272.25C209.693 272.25 210.042 272.389 210.332 272.667C210.628 272.945 210.776 273.28 210.776 273.67C210.776 274.061 210.628 274.395 210.332 274.674C210.042 274.952 209.693 275.091 209.285 275.091ZM219.656 296.398C218.644 296.398 217.774 296.268 217.046 296.007C216.318 295.753 215.712 295.415 215.226 294.995C214.747 294.581 214.365 294.137 214.081 293.663L215.75 292.491C215.939 292.74 216.179 293.024 216.469 293.344C216.759 293.669 217.156 293.95 217.659 294.187C218.168 294.43 218.834 294.551 219.656 294.551C220.757 294.551 221.666 294.285 222.382 293.752C223.098 293.219 223.456 292.385 223.456 291.249V288.479H223.278C223.125 288.727 222.906 289.035 222.621 289.402C222.343 289.763 221.941 290.086 221.414 290.37C220.893 290.648 220.189 290.787 219.301 290.787C218.2 290.787 217.212 290.527 216.336 290.006C215.466 289.485 214.776 288.727 214.267 287.733C213.764 286.739 213.513 285.531 213.513 284.111C213.513 282.714 213.758 281.498 214.25 280.462C214.741 279.42 215.424 278.615 216.3 278.047C217.176 277.473 218.188 277.186 219.337 277.186C220.224 277.186 220.929 277.334 221.45 277.63C221.976 277.92 222.379 278.251 222.657 278.624C222.941 278.991 223.16 279.293 223.314 279.53H223.527V277.364H225.551V291.391C225.551 292.562 225.285 293.515 224.752 294.249C224.225 294.989 223.515 295.531 222.621 295.874C221.734 296.223 220.745 296.398 219.656 296.398ZM219.585 288.905C220.426 288.905 221.136 288.712 221.716 288.328C222.296 287.943 222.737 287.39 223.039 286.668C223.341 285.946 223.491 285.081 223.491 284.075C223.491 283.093 223.344 282.226 223.048 281.474C222.752 280.722 222.314 280.134 221.734 279.707C221.154 279.281 220.438 279.068 219.585 279.068C218.697 279.068 217.958 279.293 217.366 279.743C216.78 280.193 216.339 280.796 216.043 281.554C215.753 282.312 215.608 283.152 215.608 284.075C215.608 285.022 215.756 285.86 216.052 286.588C216.354 287.31 216.798 287.878 217.384 288.292C217.975 288.701 218.709 288.905 219.585 288.905ZM231.482 282.797V291H229.386V272.818H231.482V279.494H231.659C231.979 278.79 232.458 278.231 233.097 277.816C233.742 277.396 234.601 277.186 235.672 277.186C236.601 277.186 237.415 277.373 238.113 277.745C238.812 278.112 239.353 278.678 239.738 279.441C240.129 280.199 240.324 281.163 240.324 282.335V291H238.229V282.477C238.229 281.394 237.948 280.557 237.385 279.965C236.829 279.367 236.057 279.068 235.068 279.068C234.382 279.068 233.766 279.213 233.222 279.503C232.683 279.793 232.257 280.216 231.943 280.773C231.635 281.329 231.482 282.004 231.482 282.797ZM250.087 277.364V279.139H243.021V277.364H250.087ZM245.08 274.097H247.175V287.094C247.175 287.686 247.261 288.129 247.433 288.425C247.61 288.715 247.835 288.911 248.108 289.011C248.386 289.106 248.679 289.153 248.986 289.153C249.217 289.153 249.407 289.142 249.555 289.118C249.703 289.088 249.821 289.065 249.91 289.047L250.336 290.929C250.194 290.982 249.996 291.036 249.741 291.089C249.487 291.148 249.164 291.178 248.773 291.178C248.181 291.178 247.601 291.05 247.033 290.796C246.471 290.541 246.003 290.154 245.631 289.633C245.264 289.112 245.08 288.455 245.08 287.662V274.097ZM271.421 277.364L266.378 291H264.247L259.205 277.364H261.478L265.242 288.23H265.384L269.148 277.364H271.421ZM283.845 280.418L281.963 280.95C281.845 280.637 281.67 280.332 281.439 280.036C281.214 279.734 280.907 279.485 280.516 279.29C280.125 279.095 279.625 278.997 279.016 278.997C278.181 278.997 277.486 279.19 276.929 279.574C276.379 279.953 276.104 280.435 276.104 281.021C276.104 281.542 276.293 281.953 276.672 282.255C277.051 282.557 277.643 282.809 278.448 283.01L280.472 283.507C281.691 283.803 282.599 284.256 283.197 284.865C283.795 285.469 284.094 286.247 284.094 287.2C284.094 287.982 283.869 288.68 283.419 289.295C282.975 289.911 282.354 290.396 281.555 290.751C280.756 291.107 279.827 291.284 278.767 291.284C277.376 291.284 276.225 290.982 275.314 290.379C274.402 289.775 273.825 288.893 273.582 287.733L275.571 287.236C275.761 287.97 276.119 288.52 276.645 288.887C277.178 289.254 277.873 289.438 278.732 289.438C279.708 289.438 280.484 289.23 281.058 288.816C281.638 288.396 281.928 287.893 281.928 287.307C281.928 286.833 281.762 286.437 281.43 286.117C281.099 285.792 280.59 285.549 279.903 285.389L277.631 284.857C276.382 284.561 275.465 284.102 274.879 283.48C274.299 282.853 274.009 282.069 274.009 281.128C274.009 280.358 274.225 279.678 274.657 279.086C275.095 278.494 275.689 278.029 276.441 277.692C277.199 277.355 278.057 277.186 279.016 277.186C280.365 277.186 281.425 277.482 282.194 278.074C282.969 278.666 283.52 279.447 283.845 280.418ZM288.775 291.142C288.337 291.142 287.961 290.985 287.647 290.672C287.334 290.358 287.177 289.982 287.177 289.544C287.177 289.106 287.334 288.73 287.647 288.417C287.961 288.103 288.337 287.946 288.775 287.946C289.213 287.946 289.588 288.103 289.902 288.417C290.216 288.73 290.373 289.106 290.373 289.544C290.373 289.834 290.299 290.1 290.151 290.343C290.009 290.586 289.816 290.781 289.574 290.929C289.337 291.071 289.071 291.142 288.775 291.142ZM302.194 291H299.885L306.561 272.818H308.834L315.51 291H313.202L307.769 275.695H307.627L302.194 291ZM303.046 283.898H312.35V285.851H303.046V283.898ZM323.598 291.284C322.32 291.284 321.219 290.982 320.295 290.379C319.372 289.775 318.662 288.943 318.165 287.884C317.668 286.824 317.419 285.614 317.419 284.253C317.419 282.868 317.674 281.646 318.183 280.586C318.697 279.521 319.414 278.689 320.331 278.092C321.254 277.488 322.331 277.186 323.562 277.186C324.521 277.186 325.385 277.364 326.155 277.719C326.924 278.074 327.555 278.571 328.046 279.21C328.537 279.849 328.842 280.595 328.96 281.447H326.865C326.705 280.826 326.35 280.276 325.8 279.796C325.255 279.311 324.521 279.068 323.598 279.068C322.781 279.068 322.065 279.281 321.45 279.707C320.84 280.128 320.364 280.722 320.02 281.492C319.683 282.255 319.514 283.152 319.514 284.182C319.514 285.235 319.68 286.153 320.011 286.934C320.349 287.715 320.822 288.322 321.432 288.754C322.047 289.186 322.769 289.402 323.598 289.402C324.143 289.402 324.637 289.307 325.081 289.118C325.525 288.929 325.9 288.656 326.208 288.301C326.516 287.946 326.735 287.52 326.865 287.023H328.96C328.842 287.828 328.549 288.553 328.081 289.198C327.62 289.837 327.007 290.346 326.244 290.725C325.486 291.098 324.604 291.284 323.598 291.284ZM337.953 277.364V279.139H330.887V277.364H337.953ZM332.946 274.097H335.042V287.094C335.042 287.686 335.127 288.129 335.299 288.425C335.477 288.715 335.701 288.911 335.974 289.011C336.252 289.106 336.545 289.153 336.853 289.153C337.083 289.153 337.273 289.142 337.421 289.118C337.569 289.088 337.687 289.065 337.776 289.047L338.202 290.929C338.06 290.982 337.862 291.036 337.607 291.089C337.353 291.148 337.03 291.178 336.64 291.178C336.048 291.178 335.468 291.05 334.9 290.796C334.337 290.541 333.87 290.154 333.497 289.633C333.13 289.112 332.946 288.455 332.946 287.662V274.097ZM341.105 291V277.364H343.2V291H341.105ZM342.17 275.091C341.762 275.091 341.41 274.952 341.114 274.674C340.824 274.395 340.679 274.061 340.679 273.67C340.679 273.28 340.824 272.945 341.114 272.667C341.41 272.389 341.762 272.25 342.17 272.25C342.579 272.25 342.928 272.389 343.218 272.667C343.514 272.945 343.662 273.28 343.662 273.67C343.662 274.061 343.514 274.395 343.218 274.674C342.928 274.952 342.579 275.091 342.17 275.091ZM352.578 291.284C351.346 291.284 350.266 290.991 349.337 290.405C348.414 289.819 347.692 289 347.171 287.946C346.656 286.893 346.399 285.661 346.399 284.253C346.399 282.832 346.656 281.592 347.171 280.533C347.692 279.474 348.414 278.651 349.337 278.065C350.266 277.479 351.346 277.186 352.578 277.186C353.809 277.186 354.886 277.479 355.809 278.065C356.738 278.651 357.46 279.474 357.975 280.533C358.496 281.592 358.756 282.832 358.756 284.253C358.756 285.661 358.496 286.893 357.975 287.946C357.46 289 356.738 289.819 355.809 290.405C354.886 290.991 353.809 291.284 352.578 291.284ZM352.578 289.402C353.513 289.402 354.282 289.162 354.886 288.683C355.489 288.203 355.936 287.573 356.226 286.792C356.516 286.011 356.661 285.164 356.661 284.253C356.661 283.341 356.516 282.492 356.226 281.705C355.936 280.918 355.489 280.281 354.886 279.796C354.282 279.311 353.513 279.068 352.578 279.068C351.642 279.068 350.873 279.311 350.269 279.796C349.666 280.281 349.219 280.918 348.929 281.705C348.639 282.492 348.494 283.341 348.494 284.253C348.494 285.164 348.639 286.011 348.929 286.792C349.219 287.573 349.666 288.203 350.269 288.683C350.873 289.162 351.642 289.402 352.578 289.402ZM364.05 282.797V291H361.955V277.364H363.979V279.494H364.156C364.476 278.802 364.961 278.246 365.612 277.825C366.263 277.399 367.104 277.186 368.134 277.186C369.057 277.186 369.865 277.375 370.557 277.754C371.25 278.127 371.788 278.695 372.173 279.459C372.558 280.216 372.75 281.175 372.75 282.335V291H370.655V282.477C370.655 281.406 370.377 280.571 369.82 279.974C369.264 279.37 368.501 279.068 367.53 279.068C366.861 279.068 366.263 279.213 365.737 279.503C365.216 279.793 364.805 280.216 364.503 280.773C364.201 281.329 364.05 282.004 364.05 282.797Z" fill="black" fill-opacity="0.6"/>
<path d="M608.341 629.818V656H602.409L592.949 642.244H592.795V656H585.688V629.818H591.722L601.028 643.523H601.233V629.818H608.341Z" fill="#5CCAB2" fill-opacity="0.8"/>
<path d="M619.623 656V629.818H630.924C632.867 629.818 634.568 630.202 636.025 630.969C637.482 631.736 638.616 632.814 639.426 634.203C640.235 635.592 640.64 637.216 640.64 639.074C640.64 640.949 640.223 642.572 639.387 643.945C638.561 645.317 637.397 646.374 635.897 647.115C634.406 647.857 632.663 648.227 630.669 648.227H623.919V642.705H629.237C630.072 642.705 630.784 642.56 631.372 642.27C631.968 641.972 632.424 641.55 632.74 641.004C633.063 640.459 633.225 639.815 633.225 639.074C633.225 638.324 633.063 637.685 632.74 637.156C632.424 636.619 631.968 636.21 631.372 635.929C630.784 635.639 630.072 635.494 629.237 635.494H626.731V656H619.623Z" fill="#F7C945" fill-opacity="0.7"/>
<path d="M661.682 638C661.614 637.148 661.294 636.483 660.723 636.006C660.16 635.528 659.304 635.29 658.153 635.29C657.42 635.29 656.82 635.379 656.351 635.558C655.891 635.729 655.55 635.963 655.328 636.261C655.106 636.56 654.991 636.901 654.983 637.284C654.966 637.599 655.021 637.885 655.149 638.141C655.285 638.388 655.499 638.614 655.788 638.818C656.078 639.014 656.449 639.193 656.901 639.355C657.352 639.517 657.889 639.662 658.511 639.79L660.659 640.25C662.108 640.557 663.348 640.962 664.379 641.464C665.41 641.967 666.254 642.56 666.91 643.241C667.567 643.915 668.048 644.673 668.355 645.517C668.67 646.361 668.832 647.281 668.841 648.278C668.832 650 668.402 651.457 667.55 652.651C666.697 653.844 665.479 654.751 663.893 655.374C662.317 655.996 660.42 656.307 658.204 656.307C655.929 656.307 653.943 655.97 652.247 655.297C650.56 654.624 649.247 653.588 648.31 652.19C647.381 650.784 646.912 648.986 646.903 646.795H653.653C653.696 647.597 653.896 648.27 654.254 648.815C654.612 649.361 655.115 649.774 655.763 650.055C656.419 650.337 657.199 650.477 658.102 650.477C658.861 650.477 659.496 650.384 660.007 650.196C660.518 650.009 660.906 649.749 661.17 649.416C661.435 649.084 661.571 648.705 661.579 648.278C661.571 647.878 661.439 647.528 661.183 647.23C660.936 646.923 660.527 646.651 659.956 646.412C659.385 646.165 658.614 645.935 657.642 645.722L655.034 645.159C652.716 644.656 650.888 643.817 649.55 642.641C648.22 641.456 647.56 639.841 647.568 637.795C647.56 636.134 648.003 634.68 648.898 633.436C649.801 632.183 651.05 631.207 652.643 630.509C654.246 629.81 656.082 629.46 658.153 629.46C660.267 629.46 662.095 629.814 663.638 630.521C665.18 631.229 666.369 632.226 667.204 633.513C668.048 634.791 668.474 636.287 668.483 638H661.682Z" fill="#ED4B45" fill-opacity="0.7"/>
<path d="M185.084 385C183.946 385 182.809 384.53 181.94 383.591L169.302 369.923C167.566 368.045 167.566 365.001 169.302 363.123C171.039 361.245 173.854 361.245 175.591 363.123L185.084 373.39L205.409 351.409C207.146 349.53 209.961 349.53 211.698 351.409C213.434 353.286 213.434 356.331 211.698 358.209L188.229 383.591C187.36 384.53 186.222 385 185.084 385Z" fill="white"/>
<rect x="221" y="419" width="171" height="50" rx="25" fill="#C0C0C0" fill-opacity="0.3"/>
<circle cx="184" cy="444" r="25" fill="#5CCAB2" fill-opacity="0.7"/>
<path d="M185.084 458C183.946 458 182.809 457.53 181.94 456.591L169.302 442.923C167.566 441.045 167.566 438.001 169.302 436.123C171.039 434.245 173.854 434.245 175.591 436.123L185.084 446.39L205.409 424.409C207.146 422.53 209.961 422.53 211.698 424.409C213.434 426.286 213.434 429.331 211.698 431.209L188.229 456.591C187.36 457.53 186.222 458 185.084 458Z" fill="white"/>
<rect x="221" y="492" width="171" height="50" rx="25" fill="#C0C0C0" fill-opacity="0.3"/>
<circle cx="184" cy="517" r="25" fill="#5CCAB2" fill-opacity="0.7"/>
<path d="M185.084 531C183.946 531 182.809 530.53 181.94 529.591L169.302 515.923C167.566 514.045 167.566 511.001 169.302 509.123C171.039 507.245 173.854 507.245 175.591 509.123L185.084 519.39L205.409 497.409C207.146 495.53 209.961 495.53 211.698 497.409C213.434 499.286 213.434 502.331 211.698 504.209L188.229 529.591C187.36 530.53 186.222 531 185.084 531Z" fill="white"/>
<rect x="221" y="565" width="171" height="50" rx="25" fill="#C0C0C0" fill-opacity="0.3"/>
<circle cx="184" cy="590" r="25" fill="#5CCAB2" fill-opacity="0.7"/>
<path d="M185.084 604C183.946 604 182.809 603.53 181.94 602.591L169.302 588.923C167.566 587.045 167.566 584.001 169.302 582.123C171.039 580.245 173.854 580.245 175.591 582.123L185.084 592.39L205.409 570.409C207.146 568.53 209.961 568.53 211.698 570.409C213.434 572.286 213.434 575.331 211.698 577.209L188.229 602.591C187.36 603.53 186.222 604 185.084 604Z" fill="white"/>
<path d="M626.513 301.981L593.494 268.957L626.513 235.936L659.539 268.957L626.513 301.981Z" stroke="#F7C945" stroke-opacity="0.7" stroke-width="6.22682" stroke-miterlimit="10" stroke-linecap="round" stroke-linejoin="round"/>
<path d="M579.814 345.236H536.226C532.787 345.236 530 342.451 530 339.012V303.205C530 299.766 532.787 296.981 536.226 296.981H579.814C583.252 296.981 586.039 299.766 586.039 303.205V339.012C586.039 342.451 583.252 345.236 579.814 345.236Z" stroke="#5CCAB2" stroke-opacity="0.8" stroke-width="6.22682" stroke-miterlimit="10" stroke-linecap="round" stroke-linejoin="round"/>
<path d="M716.802 345.236H673.217C669.779 345.236 666.988 342.451 666.988 339.012V303.205C666.988 299.766 669.779 296.981 673.217 296.981H716.802C720.241 296.981 723.031 299.766 723.031 303.205V339.012C723.031 342.451 720.241 345.236 716.802 345.236Z" stroke="#5CCAB2" stroke-opacity="0.8" stroke-width="6.22682" stroke-miterlimit="10" stroke-linecap="round" stroke-linejoin="round"/>
<defs>
<filter id="filter0_d_1067_294" x="127" y="226" width="293" height="460" filterUnits="userSpaceOnUse" color-interpolation-filters="sRGB">
<feFlood flood-opacity="0" result="BackgroundImageFix"/>
<feColorMatrix in="SourceAlpha" type="matrix" values="0 0 0 0 0 0 0 0 0 0 0 0 0 0 0 0 0 0 127 0" result="hardAlpha"/>
<feOffset dy="4"/>
<feGaussianBlur stdDeviation="2"/>
<feComposite in2="hardAlpha" operator="out"/>
<feColorMatrix type="matrix" values="0 0 0 0 0 0 0 0 0 0 0 0 0 0 0 0 0 0 0.25 0"/>
<feBlend mode="normal" in2="BackgroundImageFix" result="effect1_dropShadow_1067_294"/>
<feBlend mode="normal" in="SourceGraphic" in2="effect1_dropShadow_1067_294" result="shape"/>
</filter>
<filter id="filter1_d_1067_294" x="480" y="104" width="293" height="320" filterUnits="userSpaceOnUse" color-interpolation-filters="sRGB">
<feFlood flood-opacity="0" result="BackgroundImageFix"/>
<feColorMatrix in="SourceAlpha" type="matrix" values="0 0 0 0 0 0 0 0 0 0 0 0 0 0 0 0 0 0 127 0" result="hardAlpha"/>
<feOffset dy="4"/>
<feGaussianBlur stdDeviation="2"/>
<feComposite in2="hardAlpha" operator="out"/>
<feColorMatrix type="matrix" values="0 0 0 0 0 0 0 0 0 0 0 0 0 0 0 0 0 0 0.25 0"/>
<feBlend mode="normal" in2="BackgroundImageFix" result="effect1_dropShadow_1067_294"/>
<feBlend mode="normal" in="SourceGraphic" in2="effect1_dropShadow_1067_294" result="shape"/>
</filter>
<filter id="filter2_d_1067_294" x="480" y="484" width="293" height="320" filterUnits="userSpaceOnUse" color-interpolation-filters="sRGB">
<feFlood flood-opacity="0" result="BackgroundImageFix"/>
<feColorMatrix in="SourceAlpha" type="matrix" values="0 0 0 0 0 0 0 0 0 0 0 0 0 0 0 0 0 0 127 0" result="hardAlpha"/>
<feOffset dy="4"/>
<feGaussianBlur stdDeviation="2"/>
<feComposite in2="hardAlpha" operator="out"/>
<feColorMatrix type="matrix" values="0 0 0 0 0 0 0 0 0 0 0 0 0 0 0 0 0 0 0.25 0"/>
<feBlend mode="normal" in2="BackgroundImageFix" result="effect1_dropShadow_1067_294"/>
<feBlend mode="normal" in="SourceGraphic" in2="effect1_dropShadow_1067_294" result="shape"/>
</filter>
</defs>
</svg>
