<svg width="512" height="160" viewBox="0 0 512 160" fill="none" xmlns="http://www.w3.org/2000/svg">
<path d="M38.6353 44.8168L41.7261 45.2583L46.1416 47.466L55.1933 52.7646L61.3749 56.2969L67.7773 60.0501L71.3096 62.037L76.6082 65.1278L81.2444 67.7771L86.5429 70.8679L90.2961 73.2964L92.7246 75.2834L94.9323 77.2703L96.4777 78.8157L99.3477 82.5689L101.555 86.322L103.322 90.0751L104.646 94.2698L105.309 96.9191L105.75 101.114V108.399L105.088 112.815L103.984 117.009L102.439 120.983L100.452 124.736L98.0231 128.269L95.8154 130.697L94.7115 132.022L92.9453 133.567L90.5168 135.554L87.2053 137.762L83.0106 139.97L78.8159 141.515L73.5174 142.84L69.5435 143.281H64.9072L59.8295 142.619L55.414 141.515L50.9986 139.749L46.5831 137.541L41.7261 134.671L36.4276 131.58L30.9083 128.49L27.5967 126.503L22.5189 123.633L18.7658 121.425L15.4542 119.438L10.1557 116.568L5.29869 113.698L4.19482 112.815V112.373L9.05182 109.724L10.5972 108.841L15.8958 105.75L20.532 103.101L24.2851 100.893L26.9344 102.218L30.6875 104.425L36.6484 107.737L39.5184 109.503L45.2585 112.815L53.6479 117.672L58.9464 120.762L62.4787 122.087L65.7903 122.749H68.2188L72.6343 121.866L76.1666 120.321L79.0367 118.334L81.4652 115.906L83.0106 113.477L84.1144 111.049L84.9975 108.399L85.2183 106.854V102.659L84.7768 100.01L83.8937 97.3606L82.3483 94.4906L80.3613 92.0621L77.9328 89.8544L74.6212 87.8674L68.4396 84.335L63.1411 81.2442L59.1672 79.0365L51.6609 74.6211L47.0247 71.9718L41.7261 68.881L36.2068 65.7902L31.7914 62.9201L30.246 61.1539L28.9213 58.5047L28.4798 55.8554V53.6477L29.3629 50.7776L30.9083 48.3491L32.8952 46.583L35.103 45.4791L38.6353 44.8168Z" fill="#9DBDE3"/>
<path d="M37.0898 16.3372H40.1806L44.596 16.7787L48.5699 17.6618L53.8685 19.428L60.2709 22.7396L64.9071 25.3888L69.3225 28.0381L72.8549 30.0251L76.8288 32.4535L77.2704 33.1159V56.297L75.7249 55.6347L72.8549 53.8685L70.4264 52.5438L58.0632 45.4791L53.6477 42.8299L48.5699 39.9598L45.0376 38.1936L41.726 37.3105L40.4014 37.0898H36.869L33.3366 37.7521L30.0251 39.0767L27.155 41.0637L25.6096 42.3883L23.4019 45.2583L21.6357 49.0115L20.7526 52.3231L20.5318 53.6477V56.5177L21.1942 60.0501L22.5188 63.3617L24.0642 66.011L26.4927 68.6602L29.5835 70.868L34.882 73.9588L39.9598 76.8288L49.8946 82.5689L52.1023 83.8935L55.1931 85.6597L60.4916 88.7505L66.011 91.8413L73.5172 96.2568L75.5042 98.2437L76.608 100.231L77.2704 101.997V106.854L76.3873 109.282L75.0626 111.269L73.0757 113.035L70.6472 114.36L68.881 114.802H66.011L63.1409 113.919L57.6216 111.049L54.31 109.062L49.0115 105.971L43.4922 102.88L40.6221 101.114L35.5444 98.2437L29.8043 94.9322L25.1681 92.2829L19.8695 89.1921L16.1164 86.7636L13.2463 84.5558L11.0386 82.5689L8.8309 80.1404L6.62317 77.0496L4.85699 74.1795L3.09081 70.6472L1.54541 66.6733L0.441545 61.5955L0 58.9462V51.6608L0.662317 47.4661L1.98695 42.3883L3.31159 39.0767L5.51931 34.882L7.06472 32.6743L9.27244 29.8043L11.7009 27.155L13.4671 25.6096L16.3372 23.4019L20.5318 20.7526L25.8304 18.5449L29.5835 17.441L34.4405 16.5579L37.0898 16.3372Z" fill="#9DBDE3"/>
<path d="M0 119.879L0.88309 120.1L4.63622 122.308L8.61013 124.516L14.571 128.048L20.5318 131.36L23.8434 133.347L35.3236 139.97L39.5183 142.398L44.8168 145.489L48.3492 147.255L53.2062 149.021L58.7255 150.346L63.1409 151.229V151.891L61.3747 152.774L56.5177 155.424L52.5438 157.19L50.1153 158.073L45.2584 159.177L38.8559 159.839H37.3105L31.1289 158.956L26.2719 157.631L21.8565 155.865L17.6618 153.658L7.72704 147.917L2.4285 144.827L0.220772 143.502L0 143.281V119.879Z" fill="#9DBDE3"/>
<path d="M64.9069 0H69.9847L73.0755 0.441545L78.1533 1.54541L83.0102 3.31159L86.5426 5.07777L92.2827 8.38935L98.6851 12.1425L101.555 13.6879L101.334 14.571L96.4774 17.2203L94.2696 18.5449L89.1919 21.4149L84.3349 24.285L82.1272 25.6096L80.5817 25.3888L77.2702 23.6227L73.0755 21.1942L67.7769 18.1033L61.5953 14.571L58.063 12.8048L53.6475 11.0386L49.0113 9.71399L45.6997 9.05167L42.6089 8.61013L42.8297 7.94781L48.1282 4.85699L51.6606 3.09081L56.9591 1.32463L61.1538 0.441545L64.9069 0Z" fill="#9DBDE3"/>
<path d="M105.088 21.4149H105.75V44.596L105.088 45.2583L99.5685 48.3492L90.0753 53.8685L86.3221 56.0762L85.2183 56.297V33.1159L86.1014 32.2328L90.0753 30.025L95.3738 26.9342L101.555 23.4019L105.088 21.4149Z" fill="#9DBDE3"/>
<path d="M147.369 100.257C147.369 99.2505 147.214 98.3474 146.904 97.5475C146.62 96.7219 146.079 95.9736 145.279 95.3027C144.479 94.6061 143.356 93.9223 141.911 93.2515C140.467 92.5806 138.596 91.8839 136.299 91.1615C133.745 90.3358 131.32 89.4069 129.023 88.3748C126.753 87.3427 124.74 86.1429 122.985 84.7754C121.257 83.3821 119.889 81.7694 118.883 79.9375C117.902 78.1055 117.412 75.9768 117.412 73.5514C117.412 71.2034 117.928 69.0747 118.96 67.1653C119.992 65.2301 121.437 63.5788 123.295 62.2113C125.153 60.8179 127.346 59.7472 129.875 58.9989C132.429 58.2506 135.229 57.8765 138.273 57.8765C142.428 57.8765 146.053 58.6248 149.149 60.1213C152.245 61.6178 154.645 63.6691 156.348 66.2751C158.077 68.8812 158.941 71.8613 158.941 75.2156H147.407C147.407 73.5643 147.059 72.1194 146.362 70.8809C145.692 69.6165 144.659 68.6231 143.266 67.9007C141.899 67.1782 140.17 66.817 138.08 66.817C136.067 66.817 134.39 67.1266 133.048 67.7459C131.707 68.3393 130.7 69.1521 130.03 70.1842C129.359 71.1905 129.023 72.3258 129.023 73.5901C129.023 74.5448 129.255 75.4092 129.72 76.1832C130.21 76.9573 130.933 77.6798 131.887 78.3506C132.842 79.0215 134.016 79.6536 135.409 80.2471C136.803 80.8405 138.415 81.4211 140.247 81.9887C143.318 82.9176 146.014 83.9626 148.336 85.1237C150.684 86.2848 152.645 87.5878 154.219 89.0328C155.793 90.4777 156.98 92.1162 157.78 93.9481C158.58 95.7801 158.98 97.8572 158.98 100.179C158.98 102.631 158.502 104.824 157.548 106.759C156.593 108.694 155.213 110.333 153.406 111.674C151.6 113.016 149.446 114.035 146.943 114.732C144.44 115.429 141.641 115.777 138.544 115.777C135.758 115.777 133.01 115.416 130.3 114.693C127.591 113.945 125.127 112.823 122.908 111.326C120.715 109.829 118.96 107.92 117.644 105.598C116.328 103.276 115.671 100.528 115.671 97.354H127.32C127.32 99.1086 127.591 100.592 128.133 101.805C128.675 103.018 129.436 103.998 130.417 104.746C131.423 105.495 132.61 106.037 133.977 106.372C135.371 106.707 136.893 106.875 138.544 106.875C140.557 106.875 142.208 106.591 143.498 106.024C144.814 105.456 145.782 104.669 146.401 103.663C147.046 102.656 147.369 101.521 147.369 100.257Z" fill="#1A1A1A"/>
<path d="M203.697 96.309H215.27C215.037 100.102 213.992 103.469 212.135 106.411C210.303 109.352 207.735 111.649 204.433 113.3C201.156 114.951 197.208 115.777 192.589 115.777C188.977 115.777 185.739 115.158 182.875 113.919C180.011 112.655 177.559 110.849 175.521 108.501C173.508 106.153 171.973 103.314 170.915 99.9859C169.857 96.6574 169.328 92.9289 169.328 88.8006V84.8915C169.328 80.7631 169.87 77.0347 170.954 73.7062C172.064 70.3519 173.637 67.5007 175.676 65.1527C177.74 62.8047 180.204 60.9986 183.068 59.7343C185.932 58.4699 189.132 57.8378 192.667 57.8378C197.363 57.8378 201.323 58.6893 204.549 60.3922C207.8 62.0952 210.315 64.4432 212.096 67.4362C213.902 70.4293 214.986 73.8352 215.347 77.654H203.736C203.607 75.3834 203.155 73.4611 202.381 71.8871C201.607 70.2874 200.433 69.0876 198.859 68.2877C197.311 67.462 195.247 67.0492 192.667 67.0492C190.732 67.0492 189.041 67.4104 187.597 68.1329C186.152 68.8554 184.939 69.952 183.958 71.4227C182.978 72.8934 182.243 74.7512 181.752 76.996C181.288 79.215 181.056 81.821 181.056 84.8141V88.8006C181.056 91.7162 181.275 94.2835 181.714 96.5025C182.152 98.6957 182.823 100.554 183.726 102.076C184.655 103.572 185.842 104.708 187.287 105.482C188.758 106.23 190.525 106.604 192.589 106.604C195.015 106.604 197.014 106.217 198.588 105.443C200.162 104.669 201.362 103.521 202.188 101.998C203.039 100.476 203.542 98.5796 203.697 96.309Z" fill="#1A1A1A"/>
<path d="M267.62 58.6506H247.146C242.863 58.6506 239.186 59.2956 236.116 60.5857C233.045 61.8758 230.684 63.7852 229.033 66.3138C227.382 68.8425 226.556 71.9516 226.556 75.6414C226.556 78.557 227.072 81.0857 228.104 83.2273C229.136 85.3688 230.594 87.1621 232.477 88.607C234.335 90.052 236.528 91.1873 239.057 92.0129L242.386 93.7159H260.46L260.537 85.3172H247.03C244.837 85.3172 243.018 84.9302 241.573 84.1561C240.128 83.3821 239.044 82.3113 238.322 80.9438C237.573 79.5762 237.199 78.0152 237.199 76.2606C237.199 74.3771 237.561 72.7515 238.283 71.384C239.005 69.9907 240.102 68.9199 241.573 68.1716C243.044 67.4233 244.901 67.0492 247.146 67.0492H256.977V115.003H267.62V58.6506ZM235.806 115.003L248.849 89.7681L237.586 89.7294L224.388 114.461V115.003H235.806Z" fill="#1A1A1A"/>
<path d="M294.378 58.6506V115.003H282.806V58.6506H294.378Z" fill="#1A1A1A"/>
<path d="M332.092 90.2713H317.617L317.54 82.2984H329.693C331.834 82.2984 333.589 82.0274 334.956 81.4856C336.324 80.918 337.343 80.1052 338.014 79.0473C338.711 77.9636 339.059 76.6477 339.059 75.0995C339.059 73.345 338.724 71.9258 338.053 70.8421C337.408 69.7584 336.389 68.9715 334.995 68.4812C333.628 67.991 331.86 67.7459 329.693 67.7459H321.642V115.003H310.031V58.6506H329.693C332.97 58.6506 335.898 58.9602 338.479 59.5794C341.085 60.1987 343.291 61.1405 345.097 62.4048C346.903 63.6691 348.283 65.2688 349.238 67.204C350.193 69.1134 350.67 71.384 350.67 74.0158C350.67 76.338 350.141 78.4796 349.083 80.4406C348.051 82.4016 346.413 84.0013 344.168 85.2398C341.949 86.4783 339.046 87.1621 335.46 87.2911L332.092 90.2713ZM331.589 115.003H314.444L318.972 105.946H331.589C333.628 105.946 335.292 105.624 336.582 104.979C337.872 104.308 338.827 103.405 339.446 102.269C340.065 101.134 340.375 99.831 340.375 98.3603C340.375 96.709 340.091 95.2769 339.523 94.0642C338.982 92.8515 338.104 91.9226 336.892 91.2776C335.679 90.6067 334.079 90.2713 332.092 90.2713H320.907L320.985 82.2984H334.918L337.588 85.4334C341.02 85.3818 343.781 85.9881 345.871 87.2524C347.987 88.4909 349.522 90.1036 350.477 92.0904C351.457 94.0771 351.947 96.2058 351.947 98.4764C351.947 102.089 351.16 105.133 349.586 107.61C348.012 110.062 345.703 111.907 342.658 113.145C339.64 114.384 335.95 115.003 331.589 115.003Z" fill="#1A1A1A"/>
<path d="M387.092 90.2713H372.617L372.54 82.2984H384.693C386.834 82.2984 388.589 82.0274 389.956 81.4856C391.324 80.918 392.343 80.1052 393.014 79.0473C393.711 77.9636 394.059 76.6477 394.059 75.0995C394.059 73.345 393.724 71.9258 393.053 70.8421C392.408 69.7584 391.389 68.9715 389.995 68.4812C388.628 67.991 386.86 67.7459 384.693 67.7459H376.642V115.003H365.031V58.6506H384.693C387.97 58.6506 390.898 58.9602 393.479 59.5794C396.085 60.1987 398.291 61.1405 400.097 62.4048C401.903 63.6691 403.283 65.2688 404.238 67.204C405.193 69.1134 405.67 71.384 405.67 74.0158C405.67 76.338 405.141 78.4796 404.083 80.4406C403.051 82.4016 401.413 84.0013 399.168 85.2398C396.949 86.4783 394.046 87.1621 390.46 87.2911L387.092 90.2713ZM386.589 115.003H369.444L373.972 105.946H386.589C388.628 105.946 390.292 105.624 391.582 104.979C392.872 104.308 393.827 103.405 394.446 102.269C395.065 101.134 395.375 99.831 395.375 98.3603C395.375 96.709 395.091 95.2769 394.523 94.0642C393.982 92.8515 393.104 91.9226 391.892 91.2776C390.679 90.6067 389.079 90.2713 387.092 90.2713H375.907L375.985 82.2984H389.918L392.588 85.4334C396.02 85.3818 398.781 85.9881 400.871 87.2524C402.987 88.4909 404.522 90.1036 405.477 92.0904C406.457 94.0771 406.947 96.2058 406.947 98.4764C406.947 102.089 406.16 105.133 404.586 107.61C403.012 110.062 400.703 111.907 397.658 113.145C394.64 114.384 390.95 115.003 386.589 115.003Z" fill="#1A1A1A"/>
<path d="M427.772 58.6506L439.538 84.3497L451.304 58.6506H463.96L445.421 94.49V115.003H433.655V94.49L415.077 58.6506H427.772Z" fill="#1A1A1A"/>
<path d="M510.258 105.946V115.003H481.888V105.946H510.258ZM485.642 58.6506V115.003H474.031V58.6506H485.642Z" fill="#1A1A1A"/>
</svg>
