<svg width="184" height="38" viewBox="0 0 184 38" fill="none" xmlns="http://www.w3.org/2000/svg">
<g clip-path="url(#clip0_815_19)">
<path d="M6.00211 24.9121C6.00211 27.0339 6.46782 28.6629 7.07654 29.6485C7.87463 30.9393 9.065 31.4862 10.2786 31.4862C11.8438 31.4862 13.2757 31.0978 16.0352 27.2812C18.2459 24.2222 20.8508 19.9284 22.6036 17.2365L25.5718 12.676C27.6336 9.50874 30.0202 5.98787 32.7565 3.60133C34.9904 1.65345 37.4001 0.571289 39.8253 0.571289C43.8969 0.571289 47.7753 2.93078 50.7435 7.35603C53.9919 12.2025 55.5688 18.3071 55.5688 24.6068C55.5688 28.3518 54.8306 31.1036 53.5745 33.2775C52.3609 35.38 49.9956 37.4806 46.0168 37.4806V31.4862C49.4236 31.4862 50.2739 28.3557 50.2739 24.773C50.2739 19.6675 49.0835 14.0016 46.4612 9.9532C44.6003 7.08162 42.1887 5.32698 39.5354 5.32698C36.6658 5.32698 34.3565 7.49129 31.7613 11.3503C30.3816 13.4006 28.9651 15.8993 27.3747 18.7187L25.6239 21.8202C22.1069 28.0561 21.2161 29.4765 19.4576 31.8205C16.3754 35.925 13.7434 37.4806 10.2786 37.4806C6.1683 37.4806 3.56919 35.7008 1.95948 33.0186C0.645433 30.833 3.8147e-06 27.9653 3.8147e-06 24.6976L6.00211 24.9121Z" fill="#0081FB"/>
<path d="M4.73251 7.77923C7.48428 3.53756 11.4554 0.571289 16.0101 0.571289C18.6479 0.571289 21.2702 1.35199 24.0084 3.5878C27.0037 6.03232 30.196 10.0576 34.1788 16.6916L35.6068 19.0723C39.0543 24.8155 41.0157 27.7701 42.1635 29.1634C43.6399 30.9528 44.6737 31.4862 46.0168 31.4862C49.4236 31.4862 50.2739 28.3557 50.2739 24.773L55.5687 24.6068C55.5687 28.3518 54.8306 31.1036 53.5745 33.2775C52.3609 35.38 49.9956 37.4806 46.0168 37.4806C43.5433 37.4806 41.3519 36.9434 38.9287 34.6573C37.0658 32.9027 34.888 29.7857 33.2125 26.9836L28.2288 18.6588C25.7283 14.4809 23.4345 11.3658 22.1069 9.95513C20.6789 8.43818 18.8431 6.60625 15.9135 6.60625C13.5424 6.60625 11.5288 8.27006 9.84376 10.8151L4.73251 7.77923Z" fill="url(#paint0_linear_815_19)"/>
<path d="M15.9135 6.60625C13.5424 6.60625 11.5288 8.27006 9.84377 10.8151C7.46109 14.4113 6.00211 19.768 6.00211 24.9121C6.00211 27.0339 6.46782 28.6629 7.07654 29.6485L1.95948 33.0186C0.645433 30.833 3.8147e-06 27.9653 3.8147e-06 24.6976C3.8147e-06 18.7554 1.63097 12.562 4.73251 7.77923C7.48428 3.53756 11.4554 0.571289 16.0101 0.571289L15.9135 6.60625Z" fill="url(#paint1_linear_815_19)"/>
<path d="M67.2367 1.73828H74.1799L85.9851 23.0954L97.7922 1.73828H104.585V36.8311H98.9207V9.93562L88.5668 28.5603H83.2526L72.9007 9.93562V36.8311H67.2367V1.73828ZM122.332 14.8227C118.27 14.8227 115.824 17.8798 115.238 21.6654H129.024C128.74 17.7658 126.491 14.8227 122.332 14.8227ZM109.622 23.822C109.622 15.8566 114.77 10.0593 122.431 10.0593C129.965 10.0593 134.464 15.7831 134.464 24.2471V25.8027H115.238C115.92 29.9207 118.653 32.6957 123.059 32.6957C126.574 32.6957 128.771 31.6232 130.854 29.6618L133.863 33.3469C131.028 35.9538 127.422 37.4572 122.858 37.4572C114.566 37.4572 109.622 31.4106 109.622 23.822ZM141.332 15.3251H136.118V10.6873H141.332V3.01755H146.797V10.6873H154.718V15.3251H146.797V27.0801C146.797 31.0937 148.08 32.5198 151.233 32.5198C152.673 32.5198 153.498 32.3962 154.718 32.1933V36.7808C153.199 37.2098 151.749 37.4069 150.18 37.4069C144.28 37.4069 141.332 34.1837 141.332 27.7313V15.3251ZM177.729 19.8354C176.631 17.0643 174.183 15.0237 170.585 15.0237C165.908 15.0237 162.915 18.3417 162.915 23.7466C162.915 29.0164 165.67 32.4947 170.36 32.4947C174.048 32.4947 176.679 30.3497 177.729 27.6811V19.8354ZM183.194 36.8311H177.829V33.1711C176.33 35.3257 173.601 37.4572 169.182 37.4572C162.074 37.4572 157.324 31.5073 157.324 23.7466C157.324 15.9126 162.188 10.0593 169.483 10.0593C173.089 10.0593 175.918 11.5009 177.829 14.0459V10.6873H183.194V36.8311Z" fill="#C0C0C0"/>
</g>
<defs>
<linearGradient id="paint0_linear_815_19" x1="11.7878" y1="23.1806" x2="50.0497" y2="25.1131" gradientUnits="userSpaceOnUse">
<stop stop-color="#0064E1"/>
<stop offset="0.4" stop-color="#0064E1"/>
<stop offset="0.83" stop-color="#0073EE"/>
<stop offset="1" stop-color="#0082FB"/>
</linearGradient>
<linearGradient id="paint1_linear_815_19" x1="8.69591" y1="27.432" x2="8.69591" y2="13.3253" gradientUnits="userSpaceOnUse">
<stop stop-color="#0082FB"/>
<stop offset="1" stop-color="#0064E0"/>
</linearGradient>
<clipPath id="clip0_815_19">
<rect width="183.194" height="36.9093" fill="white" transform="translate(0 0.571289)"/>
</clipPath>
</defs>
</svg>
