<svg width="900" height="900" viewBox="0 0 900 900" fill="none" xmlns="http://www.w3.org/2000/svg">
<rect width="900" height="900" rx="30" fill="#A3CCFF" fill-opacity="0.3"/>
<g filter="url(#filter0_d_1068_412)">
<rect width="452" height="366" rx="30" transform="matrix(-1 0 0 1 842 104)" fill="white" fill-opacity="0.7" shape-rendering="crispEdges"/>
</g>
<g filter="url(#filter1_d_1068_412)">
<rect width="452" height="282" rx="30" transform="matrix(-1 0 0 1 670 514)" fill="white" fill-opacity="0.7" shape-rendering="crispEdges"/>
</g>
<g filter="url(#filter2_d_1068_412)">
<rect width="278" height="302" rx="30" transform="matrix(-1 0 0 1 335 168)" fill="white" fill-opacity="0.7" shape-rendering="crispEdges"/>
</g>
<path d="M195.498 226C212.895 226 227 240.103 227 257.5C227 274.897 212.895 289.001 195.498 289.001C178.103 289.001 163.998 274.897 163.998 257.5C163.998 240.103 178.103 226 195.498 226Z" stroke="#73A6E4" stroke-width="5.99993" stroke-miterlimit="10" stroke-linecap="round" stroke-linejoin="round"/>
<path d="M195.498 289.001V383.499" stroke="#73A6E4" stroke-width="5.99993" stroke-miterlimit="10" stroke-linecap="round" stroke-linejoin="round"/>
<path d="M156.499 375.998L195.498 359.499" stroke="#73A6E4" stroke-width="5.99993" stroke-miterlimit="10" stroke-linecap="round" stroke-linejoin="round"/>
<path d="M156.499 319.001L195.498 302.503" stroke="#73A6E4" stroke-width="5.99993" stroke-miterlimit="10" stroke-linecap="round" stroke-linejoin="round"/>
<path d="M234.5 375.998L195.499 359.499" stroke="#73A6E4" stroke-width="5.99993" stroke-miterlimit="10" stroke-linecap="round" stroke-linejoin="round"/>
<path d="M234.5 319.001L195.499 302.503" stroke="#73A6E4" stroke-width="5.99993" stroke-miterlimit="10" stroke-linecap="round" stroke-linejoin="round"/>
<path d="M676.539 166.226H493.641C477.818 166.226 465 179.002 465 194.756V329.696C465 345.477 477.804 358.281 493.586 358.281H738.414C754.196 358.281 767 345.477 767 329.696V194.756C767 179.002 754.182 166.226 738.359 166.226H729.424" stroke="#3D5A80" stroke-opacity="0.7" stroke-width="9.74193" stroke-miterlimit="10" stroke-linecap="round"/>
<path d="M580.512 374.982V380.701C580.512 390.527 575.488 399.67 567.207 404.959L544.272 419.572C543.437 420.101 542.936 421.019 542.936 422.021V436.23H683.498V422.035C683.498 421.047 682.997 420.115 682.148 419.586L659.254 405.001C650.946 399.698 645.908 390.527 645.908 380.674V374.995" stroke="#3D5A80" stroke-opacity="0.7" stroke-width="9.74193" stroke-miterlimit="10" stroke-linecap="round"/>
<path d="M544.326 419.516H615.303" stroke="#3D5A80" stroke-opacity="0.7" stroke-width="9.74193" stroke-miterlimit="10" stroke-linecap="round"/>
<path d="M517.885 280.633V309.929" stroke="#ED4B45" stroke-opacity="0.7" stroke-width="9.74193" stroke-miterlimit="10" stroke-linecap="round"/>
<path d="M540.152 257.893V309.929" stroke="#F7C945" stroke-opacity="0.7" stroke-width="9.74193" stroke-miterlimit="10" stroke-linecap="round"/>
<path d="M563.811 241.735V309.929" stroke="#5CCAB2" stroke-opacity="0.7" stroke-width="9.74193" stroke-miterlimit="10" stroke-linecap="round"/>
<path d="M587.471 255.652V309.929" stroke="#F7C945" stroke-opacity="0.7" stroke-width="9.74193" stroke-miterlimit="10" stroke-linecap="round"/>
<path d="M611.129 290.445V309.929" stroke="#ED4B45" stroke-opacity="0.7" stroke-width="9.74193" stroke-miterlimit="10" stroke-linecap="round"/>
<path d="M634.789 255.652V309.929" stroke="#F7C945" stroke-opacity="0.7" stroke-width="9.74193" stroke-miterlimit="10" stroke-linecap="round"/>
<path d="M658.447 230.601V309.929" stroke="#5CCAB2" stroke-opacity="0.7" stroke-width="9.74193" stroke-miterlimit="10" stroke-linecap="round"/>
<path d="M682.105 207.082V309.929" stroke="#5CCAB2" stroke-opacity="0.7" stroke-width="9.74193" stroke-miterlimit="10" stroke-linecap="round"/>
<path d="M704.373 186.067V309.929" stroke="#5CCAB2" stroke-opacity="0.7" stroke-width="9.74193" stroke-miterlimit="10" stroke-linecap="round"/>
<path d="M715.508 137H730.817V152.309" stroke="#73A6E4" stroke-width="9.74193" stroke-miterlimit="10" stroke-linecap="round"/>
<path d="M564.506 221.894C570.271 221.894 574.944 217.221 574.944 211.456C574.944 205.692 570.271 201.018 564.506 201.018C558.742 201.018 554.068 205.692 554.068 211.456C554.068 217.221 558.742 221.894 564.506 221.894Z" stroke="#73A6E4" stroke-width="9.74193" stroke-miterlimit="10" stroke-linecap="round"/>
<path d="M611.825 266.429C617.589 266.429 622.262 261.755 622.262 255.991C622.262 250.226 617.589 245.553 611.825 245.553C606.06 245.553 601.387 250.226 601.387 255.991C601.387 261.755 606.06 266.429 611.825 266.429Z" stroke="#73A6E4" stroke-width="9.74193" stroke-miterlimit="10" stroke-linecap="round"/>
<path d="M619.467 247.975L722.801 144.64" stroke="#73A6E4" stroke-width="9.74193" stroke-miterlimit="10" stroke-linecap="round"/>
<path d="M573.33 220.6L602.932 249.756" stroke="#73A6E4" stroke-width="9.74193" stroke-miterlimit="10" stroke-linecap="round"/>
<path d="M497.51 277.757L554.431 220.836" stroke="#73A6E4" stroke-width="9.74193" stroke-miterlimit="10" stroke-linecap="round"/>
<rect x="271" y="543" width="358" height="31" rx="5.5681" fill="#C0C0C0" fill-opacity="0.3"/>
<path d="M280 578H618V760.432C618 763.507 615.507 766 612.432 766H285.568C282.493 766 280 763.507 280 760.432V578Z" fill="#C0C0C0" fill-opacity="0.3"/>
<rect x="412.5" y="677.5" width="170" height="8" rx="4" fill="#C0C0C0" fill-opacity="0.3" stroke="#C0C0C0"/>
<rect x="412.5" y="707.5" width="170" height="8" rx="4" fill="#C0C0C0" fill-opacity="0.3" stroke="#C0C0C0"/>
<rect x="547.5" y="721.5" width="35" height="8" rx="4" fill="#C0C0C0" fill-opacity="0.3" stroke="#C0C0C0"/>
<rect x="412.5" y="721.5" width="98" height="8" rx="4" fill="#C0C0C0" fill-opacity="0.3" stroke="#C0C0C0"/>
<rect x="481.5" y="691.5" width="101" height="8" rx="4" fill="#C0C0C0" fill-opacity="0.3" stroke="#C0C0C0"/>
<rect x="412.5" y="693.5" width="31" height="8" rx="4" fill="#C0C0C0" fill-opacity="0.3" stroke="#C0C0C0"/>
<path d="M383.999 627.5C383.999 647.658 367.658 664 347.499 664C327.341 664 311 647.658 311 627.5C311 607.342 327.341 591 347.499 591C367.658 591 383.999 607.342 383.999 627.5Z" stroke="#ED4B45" stroke-opacity="0.7" stroke-width="2.80766" stroke-miterlimit="10" stroke-linecap="round" stroke-linejoin="round"/>
<path d="M365.046 627.5C365.046 637.191 357.189 645.047 347.498 645.047C337.808 645.047 329.951 637.191 329.951 627.5C329.951 617.807 337.808 609.952 347.498 609.952C357.189 609.952 365.046 617.807 365.046 627.5Z" stroke="#ED4B45" stroke-opacity="0.7" stroke-width="2.80766" stroke-miterlimit="10" stroke-linecap="round" stroke-linejoin="round"/>
<path d="M347.498 591V609.952" stroke="#ED4B45" stroke-opacity="0.7" stroke-width="2.80766" stroke-miterlimit="10" stroke-linecap="round" stroke-linejoin="round"/>
<path d="M356.438 642.605L366.088 658.916" stroke="#ED4B45" stroke-opacity="0.7" stroke-width="2.80766" stroke-miterlimit="10" stroke-linecap="round" stroke-linejoin="round"/>
<path d="M384.001 627.5H365.049" stroke="#ED4B45" stroke-opacity="0.7" stroke-width="2.80766" stroke-miterlimit="10" stroke-linecap="round" stroke-linejoin="round"/>
<path d="M335.634 640.428L322.232 653.47" stroke="#ED4B45" stroke-opacity="0.7" stroke-width="2.80766" stroke-miterlimit="10" stroke-linecap="round" stroke-linejoin="round"/>
<path d="M506.666 622.035H485.367C484.06 622.035 483 620.974 483 619.667V598.368C483 597.061 484.06 596 485.367 596H506.666C507.973 596 509.035 597.061 509.035 598.368V619.667C509.035 620.974 507.973 622.035 506.666 622.035Z" fill="#73A6E4" fill-opacity="0.7" stroke="#5E8CC3" stroke-width="2.3667" stroke-miterlimit="10" stroke-linecap="round" stroke-linejoin="round"/>
<path d="M472.851 622.035H451.551C450.244 622.035 449.184 620.974 449.184 619.667V598.368C449.184 597.061 450.244 596 451.551 596H472.851C474.158 596 475.217 597.061 475.217 598.368V619.667C475.217 620.974 474.158 622.035 472.851 622.035Z" fill="#73A6E4" fill-opacity="0.7" stroke="#5E8CC3" stroke-width="2.3667" stroke-miterlimit="10" stroke-linecap="round" stroke-linejoin="round"/>
<path d="M472.667 657.852H451.367C450.06 657.852 449 656.792 449 655.485V634.185C449 632.878 450.06 631.817 451.367 631.817H472.667C473.974 631.817 475.033 632.878 475.033 634.185V655.485C475.033 656.792 473.974 657.852 472.667 657.852Z" fill="#73A6E4" fill-opacity="0.7" stroke="#5E8CC3" stroke-width="2.3667" stroke-miterlimit="10" stroke-linecap="round" stroke-linejoin="round"/>
<path d="M506.666 658.069H485.367C484.06 658.069 483 657.009 483 655.702V634.402C483 633.095 484.06 632.035 485.367 632.035H506.666C507.973 632.035 509.035 633.095 509.035 634.402V655.702C509.035 657.009 507.973 658.069 506.666 658.069Z" fill="#F7A745" fill-opacity="0.7" stroke="#D38E39" stroke-width="2.3667" stroke-miterlimit="10" stroke-linecap="round" stroke-linejoin="round"/>
<path d="M541.851 622.217H520.551C519.244 622.217 518.184 621.157 518.184 619.85V598.55C518.184 597.243 519.244 596.182 520.551 596.182H541.851C543.158 596.182 544.217 597.243 544.217 598.55V619.85C544.217 621.157 543.158 622.217 541.851 622.217Z" fill="#F7A745" fill-opacity="0.7" stroke="#D38E39" stroke-width="2.3667" stroke-miterlimit="10" stroke-linecap="round" stroke-linejoin="round"/>
<path d="M577.666 622.035H556.367C555.06 622.035 554 620.974 554 619.667V598.368C554 597.061 555.06 596 556.367 596H577.666C578.973 596 580.035 597.061 580.035 598.368V619.667C580.035 620.974 578.973 622.035 577.666 622.035Z" fill="#B999FF" fill-opacity="0.7" stroke="#947BC4" stroke-width="2.3667" stroke-miterlimit="10" stroke-linecap="round" stroke-linejoin="round"/>
<path d="M541.667 658.035H520.367C519.06 658.035 518 656.974 518 655.667V634.368C518 633.061 519.06 632 520.367 632H541.667C542.974 632 544.033 633.061 544.033 634.368V655.667C544.033 656.974 542.974 658.035 541.667 658.035Z" fill="#F7A745" fill-opacity="0.7" stroke="#D38E39" stroke-width="2.3667" stroke-miterlimit="10" stroke-linecap="round" stroke-linejoin="round"/>
<path d="M577.666 658.035H556.367C555.06 658.035 554 656.974 554 655.667V634.368C554 633.061 555.06 632 556.367 632H577.666C578.973 632 580.035 633.061 580.035 634.368V655.667C580.035 656.974 578.973 658.035 577.666 658.035Z" fill="#B999FF" fill-opacity="0.7" stroke="#947BC4" stroke-width="2.3667" stroke-miterlimit="10" stroke-linecap="round" stroke-linejoin="round"/>
<path d="M347.035 681.931C327.134 681.931 311 698.064 311 717.965C311 737.866 327.134 754 347.035 754C366.936 754 383.069 737.866 383.069 717.965H347.035" stroke="#5CCAB2" stroke-opacity="0.8" stroke-width="2.77189" stroke-miterlimit="10" stroke-linecap="round" stroke-linejoin="round"/>
<path d="M372.514 743.445L347.035 717.965V681.931" stroke="#5CCAB2" stroke-opacity="0.8" stroke-width="2.77189" stroke-miterlimit="10" stroke-linecap="round" stroke-linejoin="round"/>
<path d="M390 711.035H353.965V675C373.867 675 390 691.133 390 711.035Z" stroke="#F7C945" stroke-opacity="0.7" stroke-width="2.77189" stroke-miterlimit="10" stroke-linecap="round" stroke-linejoin="round"/>
<path d="M156.5 302.503V335.5C156.5 338.813 153.815 341.502 150.501 341.502H131.002C127.688 341.502 125 338.813 125 335.5V302.503C125 299.185 127.688 296.499 131.002 296.499H150.501C153.815 296.499 156.5 299.185 156.5 302.503Z" stroke="#F7A745" stroke-opacity="0.7" stroke-width="5.99993" stroke-miterlimit="10" stroke-linecap="round" stroke-linejoin="round"/>
<path d="M234.5 302.503V335.5C234.5 338.813 237.188 341.502 240.502 341.502H260.001C263.315 341.502 266 338.813 266 335.5V302.503C266 299.185 263.315 296.499 260.001 296.499H240.502C237.188 296.499 234.5 299.185 234.5 302.503Z" stroke="#5CCAB2" stroke-opacity="0.7" stroke-width="5.99993" stroke-miterlimit="10" stroke-linecap="round" stroke-linejoin="round"/>
<path d="M156.5 359.5V392.498C156.5 395.812 153.815 398.5 150.501 398.5H131.002C127.688 398.5 125 395.812 125 392.498V359.5C125 356.187 127.688 353.498 131.002 353.498H150.501C153.815 353.498 156.5 356.187 156.5 359.5Z" stroke="#5CCAB2" stroke-opacity="0.7" stroke-width="5.99993" stroke-miterlimit="10" stroke-linecap="round" stroke-linejoin="round"/>
<path d="M234.5 359.5V392.498C234.5 395.812 237.188 398.5 240.502 398.5H260.001C263.315 398.5 266 395.812 266 392.498V359.5C266 356.187 263.315 353.498 260.001 353.498H240.502C237.188 353.498 234.5 356.187 234.5 359.5Z" stroke="#ED4B45" stroke-opacity="0.7" stroke-width="5.99993" stroke-miterlimit="10" stroke-linecap="round" stroke-linejoin="round"/>
<path d="M195.497 383.499L175.652 407.068C174.011 409.017 175.395 411.998 177.949 411.998H213.048C215.601 411.998 216.986 409.017 215.344 407.068L195.497 383.499Z" stroke="#F7C945" stroke-opacity="0.7" stroke-width="5.99993" stroke-miterlimit="10" stroke-linecap="round" stroke-linejoin="round"/>
<defs>
<filter id="filter0_d_1068_412" x="386" y="104" width="460" height="374" filterUnits="userSpaceOnUse" color-interpolation-filters="sRGB">
<feFlood flood-opacity="0" result="BackgroundImageFix"/>
<feColorMatrix in="SourceAlpha" type="matrix" values="0 0 0 0 0 0 0 0 0 0 0 0 0 0 0 0 0 0 127 0" result="hardAlpha"/>
<feOffset dy="4"/>
<feGaussianBlur stdDeviation="2"/>
<feComposite in2="hardAlpha" operator="out"/>
<feColorMatrix type="matrix" values="0 0 0 0 0 0 0 0 0 0 0 0 0 0 0 0 0 0 0.25 0"/>
<feBlend mode="normal" in2="BackgroundImageFix" result="effect1_dropShadow_1068_412"/>
<feBlend mode="normal" in="SourceGraphic" in2="effect1_dropShadow_1068_412" result="shape"/>
</filter>
<filter id="filter1_d_1068_412" x="214" y="514" width="460" height="290" filterUnits="userSpaceOnUse" color-interpolation-filters="sRGB">
<feFlood flood-opacity="0" result="BackgroundImageFix"/>
<feColorMatrix in="SourceAlpha" type="matrix" values="0 0 0 0 0 0 0 0 0 0 0 0 0 0 0 0 0 0 127 0" result="hardAlpha"/>
<feOffset dy="4"/>
<feGaussianBlur stdDeviation="2"/>
<feComposite in2="hardAlpha" operator="out"/>
<feColorMatrix type="matrix" values="0 0 0 0 0 0 0 0 0 0 0 0 0 0 0 0 0 0 0.25 0"/>
<feBlend mode="normal" in2="BackgroundImageFix" result="effect1_dropShadow_1068_412"/>
<feBlend mode="normal" in="SourceGraphic" in2="effect1_dropShadow_1068_412" result="shape"/>
</filter>
<filter id="filter2_d_1068_412" x="53" y="168" width="286" height="310" filterUnits="userSpaceOnUse" color-interpolation-filters="sRGB">
<feFlood flood-opacity="0" result="BackgroundImageFix"/>
<feColorMatrix in="SourceAlpha" type="matrix" values="0 0 0 0 0 0 0 0 0 0 0 0 0 0 0 0 0 0 127 0" result="hardAlpha"/>
<feOffset dy="4"/>
<feGaussianBlur stdDeviation="2"/>
<feComposite in2="hardAlpha" operator="out"/>
<feColorMatrix type="matrix" values="0 0 0 0 0 0 0 0 0 0 0 0 0 0 0 0 0 0 0.25 0"/>
<feBlend mode="normal" in2="BackgroundImageFix" result="effect1_dropShadow_1068_412"/>
<feBlend mode="normal" in="SourceGraphic" in2="effect1_dropShadow_1068_412" result="shape"/>
</filter>
</defs>
</svg>
