<svg width="35" height="53" viewBox="0 0 35 53" fill="none" xmlns="http://www.w3.org/2000/svg">
<path d="M12.7869 14.8329L13.8099 14.979L15.2713 15.7097L18.2671 17.4634L20.313 18.6325L22.432 19.8746L23.6011 20.5323L25.3548 21.5552L26.8892 22.4321L28.6429 23.455L29.8851 24.2588L30.6888 24.9164L31.4195 25.574L31.931 26.0855L32.8809 27.3277L33.6116 28.5698L34.1961 29.812L34.6345 31.2003L34.8537 32.0771L34.9999 33.4655V35.8767L34.7807 37.3381L34.4153 38.7264L33.9038 40.0417L33.2462 41.2838L32.4425 42.4529L31.7118 43.2567L31.3464 43.6951L30.7619 44.2066L29.9581 44.8642L28.8621 45.5949L27.4738 46.3256L26.0855 46.8371L24.3318 47.2755L23.0166 47.4216H21.4821L19.8015 47.2024L18.3402 46.8371L16.8788 46.2525L15.4174 45.5218L13.8099 44.5719L12.0562 43.549L10.2295 42.526L9.13349 41.8684L7.4529 40.9185L6.21073 40.1878L5.1147 39.5302L3.36104 38.5803L1.75353 37.6304L1.38818 37.3381V37.192L2.9957 36.3151L3.50718 36.0229L5.26083 34.9999L6.79528 34.1231L8.03745 33.3924L8.91428 33.8308L10.1565 34.5615L12.1293 35.6575L13.0792 36.2421L14.979 37.3381L17.7556 38.9456L19.5093 39.9686L20.6784 40.407L21.7744 40.6262H22.5782L24.0395 40.3339L25.2086 39.8224L26.1585 39.1648L26.9623 38.3611L27.4738 37.5573L27.8391 36.7536L28.1314 35.8767L28.2045 35.3652V33.9769L28.0583 33.1001L27.7661 32.2233L27.2546 31.2734L26.597 30.4696L25.7932 29.7389L24.6972 29.0813L22.6512 27.9122L20.8976 26.8893L19.5823 26.1586L17.098 24.6972L15.5635 23.8204L13.8099 22.7974L11.9832 21.7744L10.5218 20.8245L10.0103 20.24L9.5719 19.3632L9.42576 18.4863V17.7556L9.71804 16.8057L10.2295 16.002L10.8871 15.4174L11.6178 15.0521L12.7869 14.8329Z" fill="#9C9C9C" fill-opacity="0.2"/>
<path d="M12.2756 5.40735H13.2985L14.7599 5.55349L16.0752 5.84576L17.8288 6.43031L19.9478 7.52635L21.4823 8.40317L22.9436 9.28L24.1127 9.93762L25.428 10.7414L25.5741 10.9606V18.6328L25.0626 18.4136L24.1127 17.8291L23.309 17.3906L19.2171 15.0524L17.7557 14.1756L16.0752 13.2257L14.9061 12.6412L13.81 12.3489L13.3716 12.2758H12.2025L11.0334 12.495L9.93737 12.9334L8.98747 13.5911L8.47599 14.0295L7.7453 14.9794L7.16075 16.2215L6.86848 17.3176L6.79541 17.756V18.7059L7.01461 19.875L7.45303 20.971L7.96451 21.8479L8.76827 22.7247L9.79123 23.4554L11.5449 24.4783L13.2255 25.4282L16.5136 27.328L17.2443 27.7664L18.2672 28.351L20.0209 29.3739L21.8476 30.3969L24.3319 31.8583L24.9896 32.5159L25.3549 33.1735L25.5741 33.7581V35.3656L25.2818 36.1694L24.8434 36.827L24.1858 37.4115L23.382 37.8499L22.7975 37.9961H21.8476L20.8977 37.7038L19.071 36.7539L17.9749 36.0963L16.2213 35.0733L14.3946 34.0504L13.4447 33.4658L11.7641 32.5159L9.8643 31.4199L8.32985 30.543L6.5762 29.5201L5.33403 28.7163L4.38413 27.9856L3.65344 27.328L2.92276 26.5243L2.19207 25.5013L1.60752 24.5514L1.02296 23.3823L0.511482 22.0671L0.146138 20.3865L0 19.5096V17.0984L0.219207 15.7101L0.65762 14.0295L1.09603 12.9334L1.82672 11.5451L2.3382 10.8144L3.06889 9.86455L3.87265 8.98772L4.4572 8.47624L5.4071 7.74555L6.79541 6.86873L8.54906 6.13804L9.79123 5.77269L11.3987 5.48042L12.2756 5.40735Z" fill="#D1D1D1" fill-opacity="0.2"/>
<path d="M0 39.6763L0.292276 39.7493L1.53445 40.48L2.84969 41.2107L4.82255 42.3798L6.79541 43.4759L7.89144 44.1335L11.691 46.3255L13.0793 47.1293L14.833 48.1523L16.0021 48.7368L17.6096 49.3214L19.4363 49.7598L20.8977 50.0521V50.2713L20.3132 50.5635L18.7056 51.4404L17.3904 52.0249L16.5866 52.3172L14.9791 52.6825L12.8601 52.9017H12.3486L10.3027 52.6095L8.6952 52.1711L7.23382 51.5865L5.84551 50.8558L2.55741 48.956L0.803758 47.9331L0.0730689 47.4946L0 47.4216V39.6763Z" fill="#D1D1D1" fill-opacity="0.2"/>
<path d="M21.482 0H23.1626L24.1856 0.146138L25.8661 0.511482L27.4737 1.09603L28.6428 1.68058L30.5426 2.77662L32.6616 4.01879L33.6114 4.53027L33.5384 4.82255L31.9309 5.69937L31.2002 6.13779L29.5196 7.08768L27.9121 8.03758L27.1814 8.47599L26.6699 8.40292L25.5739 7.81837L24.1856 7.01461L22.4319 5.99165L20.386 4.82255L19.2169 4.238L17.7555 3.65345L16.221 3.21503L15.125 2.99583L14.1021 2.84969L14.1751 2.63048L15.9288 1.60752L17.0979 1.02296L18.8515 0.438413L20.2398 0.146138L21.482 0Z" fill="#9C9C9C" fill-opacity="0.2"/>
<path d="M34.7808 7.0874H35V14.7596L34.7808 14.9788L32.9541 16.0018L29.8121 17.8285L28.5699 18.5592L28.2046 18.6323V10.9601L28.4969 10.6678L29.8121 9.93709L31.5658 8.91412L33.6117 7.74502L34.7808 7.0874Z" fill="#D1D1D1" fill-opacity="0.2"/>
</svg>
