<svg width="512" height="160" viewBox="0 0 512 160" fill="none" xmlns="http://www.w3.org/2000/svg">
<path d="M38.6353 44.8168L41.7261 45.2583L46.1416 47.466L55.1933 52.7646L61.3749 56.2969L67.7773 60.0501L71.3096 62.037L76.6082 65.1278L81.2444 67.7771L86.5429 70.8679L90.2961 73.2964L92.7246 75.2834L94.9323 77.2703L96.4777 78.8157L99.3477 82.5689L101.555 86.322L103.322 90.0751L104.646 94.2698L105.309 96.9191L105.75 101.114V108.399L105.088 112.815L103.984 117.009L102.439 120.983L100.452 124.736L98.0231 128.269L95.8154 130.697L94.7115 132.022L92.9453 133.567L90.5168 135.554L87.2053 137.762L83.0106 139.97L78.8159 141.515L73.5174 142.84L69.5435 143.281H64.9072L59.8295 142.619L55.414 141.515L50.9986 139.749L46.5831 137.541L41.7261 134.671L36.4276 131.58L30.9083 128.49L27.5967 126.503L22.5189 123.633L18.7658 121.425L15.4542 119.438L10.1557 116.568L5.29869 113.698L4.19482 112.815V112.373L9.05182 109.724L10.5972 108.841L15.8958 105.75L20.532 103.101L24.2851 100.893L26.9344 102.218L30.6875 104.425L36.6484 107.737L39.5184 109.503L45.2585 112.815L53.6479 117.672L58.9464 120.762L62.4787 122.087L65.7903 122.749H68.2188L72.6343 121.866L76.1666 120.321L79.0367 118.334L81.4652 115.906L83.0106 113.477L84.1144 111.049L84.9975 108.399L85.2183 106.854V102.659L84.7768 100.01L83.8937 97.3606L82.3483 94.4906L80.3613 92.0621L77.9328 89.8544L74.6212 87.8674L68.4396 84.335L63.1411 81.2442L59.1672 79.0365L51.6609 74.6211L47.0247 71.9718L41.7261 68.881L36.2068 65.7902L31.7914 62.9201L30.246 61.1539L28.9213 58.5047L28.4798 55.8554V53.6477L29.3629 50.7776L30.9083 48.3491L32.8952 46.583L35.103 45.4791L38.6353 44.8168Z" fill="#9DBDE3"/>
<path d="M37.0898 16.3372H40.1806L44.596 16.7787L48.5699 17.6618L53.8685 19.428L60.2709 22.7396L64.9071 25.3888L69.3225 28.0381L72.8549 30.0251L76.8288 32.4535L77.2704 33.1159V56.297L75.7249 55.6347L72.8549 53.8685L70.4264 52.5438L58.0632 45.4791L53.6477 42.8299L48.5699 39.9598L45.0376 38.1936L41.726 37.3105L40.4014 37.0898H36.869L33.3366 37.7521L30.0251 39.0767L27.155 41.0637L25.6096 42.3883L23.4019 45.2583L21.6357 49.0115L20.7526 52.3231L20.5318 53.6477V56.5177L21.1942 60.0501L22.5188 63.3617L24.0642 66.011L26.4927 68.6602L29.5835 70.868L34.882 73.9588L39.9598 76.8288L49.8946 82.5689L52.1023 83.8935L55.1931 85.6597L60.4916 88.7505L66.011 91.8413L73.5172 96.2568L75.5042 98.2437L76.608 100.231L77.2704 101.997V106.854L76.3873 109.282L75.0626 111.269L73.0757 113.035L70.6472 114.36L68.881 114.802H66.011L63.1409 113.919L57.6216 111.049L54.31 109.062L49.0115 105.971L43.4922 102.88L40.6221 101.114L35.5444 98.2437L29.8043 94.9322L25.1681 92.2829L19.8695 89.1921L16.1164 86.7636L13.2463 84.5558L11.0386 82.5689L8.8309 80.1404L6.62317 77.0496L4.85699 74.1795L3.09081 70.6472L1.54541 66.6733L0.441545 61.5955L0 58.9462V51.6608L0.662317 47.4661L1.98695 42.3883L3.31159 39.0767L5.51931 34.882L7.06472 32.6743L9.27244 29.8043L11.7009 27.155L13.4671 25.6096L16.3372 23.4019L20.5318 20.7526L25.8304 18.5449L29.5835 17.441L34.4405 16.5579L37.0898 16.3372Z" fill="#9DBDE3"/>
<path d="M0 119.879L0.88309 120.1L4.63622 122.308L8.61013 124.516L14.571 128.048L20.5318 131.36L23.8434 133.347L35.3236 139.97L39.5183 142.398L44.8168 145.489L48.3492 147.255L53.2062 149.021L58.7255 150.346L63.1409 151.229V151.891L61.3747 152.774L56.5177 155.424L52.5438 157.19L50.1153 158.073L45.2584 159.177L38.8559 159.839H37.3105L31.1289 158.956L26.2719 157.631L21.8565 155.865L17.6618 153.658L7.72704 147.917L2.4285 144.827L0.220772 143.502L0 143.281V119.879Z" fill="#9DBDE3"/>
<path d="M64.9069 0H69.9847L73.0755 0.441545L78.1533 1.54541L83.0102 3.31159L86.5426 5.07777L92.2827 8.38935L98.6851 12.1425L101.555 13.6879L101.334 14.571L96.4774 17.2203L94.2696 18.5449L89.1919 21.4149L84.3349 24.285L82.1272 25.6096L80.5817 25.3888L77.2702 23.6227L73.0755 21.1942L67.7769 18.1033L61.5953 14.571L58.063 12.8048L53.6475 11.0386L49.0113 9.71399L45.6997 9.05167L42.6089 8.61013L42.8297 7.94781L48.1282 4.85699L51.6606 3.09081L56.9591 1.32463L61.1538 0.441545L64.9069 0Z" fill="#9DBDE3"/>
<path d="M105.088 21.4149H105.75V44.596L105.088 45.2583L99.5685 48.3492L90.0753 53.8685L86.3221 56.0762L85.2183 56.297V33.1159L86.1014 32.2328L90.0753 30.025L95.3738 26.9342L101.555 23.4019L105.088 21.4149Z" fill="#9DBDE3"/>
<path d="M145.256 104.169C145.256 103.026 145.153 101.986 144.948 101.049C144.743 100.111 144.304 99.2471 143.63 98.4561C142.985 97.665 142.033 96.874 140.773 96.083C139.543 95.292 137.932 94.4717 135.939 93.6221C133.566 92.626 131.267 91.5713 129.04 90.458C126.813 89.3154 124.807 87.9971 123.02 86.5029C121.232 85.0088 119.812 83.251 118.757 81.2295C117.731 79.1787 117.219 76.7764 117.219 74.0225C117.219 71.3271 117.702 68.8809 118.669 66.6836C119.665 64.4863 121.071 62.6113 122.888 61.0586C124.704 59.4766 126.828 58.2607 129.26 57.4111C131.721 56.5615 134.46 56.1367 137.478 56.1367C141.579 56.1367 145.124 56.9863 148.112 58.6855C151.13 60.3848 153.459 62.7139 155.1 65.6729C156.77 68.6318 157.604 72.0303 157.604 75.8682H144.772C144.772 74.0518 144.509 72.4551 143.981 71.0781C143.483 69.6719 142.678 68.5732 141.564 67.7822C140.451 66.9912 139.016 66.5957 137.258 66.5957C135.617 66.5957 134.255 66.9326 133.171 67.6064C132.116 68.251 131.325 69.1445 130.798 70.2871C130.3 71.4004 130.051 72.6602 130.051 74.0664C130.051 75.1211 130.3 76.0732 130.798 76.9229C131.325 77.7432 132.043 78.4902 132.951 79.1641C133.859 79.8086 134.929 80.4385 136.159 81.0537C137.419 81.6689 138.796 82.2695 140.29 82.8555C143.19 83.998 145.754 85.2578 147.98 86.6348C150.207 87.9824 152.067 89.5059 153.562 91.2051C155.056 92.875 156.184 94.7646 156.945 96.874C157.707 98.9834 158.088 101.386 158.088 104.081C158.088 106.747 157.619 109.179 156.682 111.376C155.773 113.544 154.44 115.419 152.683 117.001C150.925 118.554 148.801 119.755 146.311 120.604C143.85 121.454 141.096 121.879 138.049 121.879C135.09 121.879 132.292 121.469 129.655 120.648C127.019 119.799 124.689 118.524 122.668 116.825C120.676 115.097 119.108 112.914 117.966 110.277C116.823 107.611 116.252 104.462 116.252 100.829H129.128C129.128 102.763 129.318 104.418 129.699 105.795C130.08 107.143 130.666 108.227 131.457 109.047C132.248 109.838 133.215 110.438 134.357 110.849C135.529 111.229 136.862 111.42 138.356 111.42C140.056 111.42 141.403 111.098 142.399 110.453C143.425 109.809 144.157 108.944 144.597 107.86C145.036 106.776 145.256 105.546 145.256 104.169Z" fill="#1A1A1A"/>
<path d="M201.684 99.6865H214.472C214.296 104.491 213.329 108.549 211.571 111.859C209.813 115.141 207.309 117.631 204.057 119.33C200.834 121.029 196.938 121.879 192.367 121.879C188.822 121.879 185.673 121.293 182.919 120.121C180.165 118.92 177.821 117.162 175.888 114.848C173.954 112.533 172.489 109.677 171.493 106.278C170.526 102.851 170.043 98.9102 170.043 94.457V83.6025C170.043 79.1494 170.556 75.209 171.581 71.7812C172.636 68.3535 174.13 65.4824 176.063 63.168C178.026 60.8242 180.385 59.0664 183.139 57.8945C185.922 56.6934 189.057 56.0928 192.543 56.0928C197.201 56.0928 201.098 56.9717 204.232 58.7295C207.367 60.4873 209.784 63.0508 211.483 66.4199C213.212 69.7598 214.252 73.8467 214.604 78.6807H201.728C201.669 75.6338 201.332 73.2461 200.717 71.5176C200.131 69.7598 199.193 68.5293 197.904 67.8262C196.615 67.0938 194.828 66.7275 192.543 66.7275C190.844 66.7275 189.379 67.0352 188.148 67.6504C186.918 68.2363 185.907 69.1885 185.116 70.5068C184.325 71.8252 183.739 73.5537 183.358 75.6924C183.007 77.8311 182.831 80.4385 182.831 83.5146V94.457C182.831 97.4746 182.992 100.053 183.314 102.191C183.637 104.301 184.149 106.029 184.853 107.377C185.556 108.725 186.508 109.706 187.709 110.321C188.939 110.937 190.492 111.244 192.367 111.244C194.535 111.244 196.278 110.922 197.597 110.277C198.944 109.633 199.94 108.476 200.585 106.806C201.229 105.136 201.596 102.763 201.684 99.6865Z" fill="#1A1A1A"/>
<path d="M266.771 57.0156H246.248C241.971 57.0156 238.323 57.748 235.306 59.2129C232.288 60.6777 229.974 62.8457 228.362 65.7168C226.751 68.5879 225.945 72.1328 225.945 76.3516C225.945 79.8086 226.414 82.7676 227.352 85.2285C228.289 87.6602 229.622 89.6963 231.351 91.3369C233.079 92.9482 235.145 94.2373 237.547 95.2041L241.458 97.5332H258.113L258.157 86.8545H246.6C244.842 86.8545 243.392 86.4736 242.249 85.7119C241.077 84.9209 240.213 83.8223 239.656 82.416C239.07 80.9805 238.777 79.3105 238.777 77.4062C238.777 75.3848 239.041 73.6562 239.568 72.2207C240.066 70.7559 240.872 69.6426 241.985 68.8809C243.069 68.0898 244.49 67.6943 246.248 67.6943H253.895V121H266.771V57.0156ZM237.723 121L249.456 92.4795L235.965 92.4355L223.968 120.385V121H237.723Z" fill="#1A1A1A"/>
<path d="M294.545 57.0156V121H281.757V57.0156H294.545Z" fill="#1A1A1A"/>
<path d="M331.807 93.0947H318.667L318.623 83.7783H329.785C331.543 83.7783 332.979 83.4854 334.092 82.8994C335.234 82.2842 336.069 81.3906 336.597 80.2188C337.153 79.0176 337.432 77.5674 337.432 75.8682C337.432 73.9053 337.168 72.3379 336.641 71.166C336.143 69.9648 335.337 69.0859 334.224 68.5293C333.14 67.9727 331.704 67.6943 329.917 67.6943H323.062V121H310.186V57.0156H329.917C333.081 57.0156 335.923 57.3672 338.442 58.0703C340.962 58.7734 343.101 59.8574 344.858 61.3223C346.616 62.7578 347.964 64.5742 348.901 66.7715C349.839 68.9395 350.308 71.5176 350.308 74.5059C350.308 77.1426 349.78 79.5742 348.726 81.8008C347.671 84.0273 346.016 85.8584 343.76 87.2939C341.504 88.7002 338.589 89.4766 335.015 89.623L331.807 93.0947ZM331.323 121H315.02L320.161 110.365H331.323C333.052 110.365 334.429 109.999 335.454 109.267C336.479 108.534 337.227 107.553 337.695 106.322C338.193 105.062 338.442 103.627 338.442 102.016C338.442 100.199 338.223 98.6172 337.783 97.2695C337.373 95.9219 336.685 94.8965 335.718 94.1934C334.751 93.4609 333.447 93.0947 331.807 93.0947H320.732L320.82 83.7783H334.268L337.3 87.4697C340.728 87.3525 343.467 88.0117 345.518 89.4473C347.568 90.8535 349.033 92.6992 349.912 94.9844C350.82 97.2402 351.274 99.6426 351.274 102.191C351.274 106.293 350.498 109.75 348.945 112.562C347.422 115.346 345.181 117.455 342.222 118.891C339.263 120.297 335.63 121 331.323 121Z" fill="#1A1A1A"/>
<path d="M386.807 93.0947H373.667L373.623 83.7783H384.785C386.543 83.7783 387.979 83.4854 389.092 82.8994C390.234 82.2842 391.069 81.3906 391.597 80.2188C392.153 79.0176 392.432 77.5674 392.432 75.8682C392.432 73.9053 392.168 72.3379 391.641 71.166C391.143 69.9648 390.337 69.0859 389.224 68.5293C388.14 67.9727 386.704 67.6943 384.917 67.6943H378.062V121H365.186V57.0156H384.917C388.081 57.0156 390.923 57.3672 393.442 58.0703C395.962 58.7734 398.101 59.8574 399.858 61.3223C401.616 62.7578 402.964 64.5742 403.901 66.7715C404.839 68.9395 405.308 71.5176 405.308 74.5059C405.308 77.1426 404.78 79.5742 403.726 81.8008C402.671 84.0273 401.016 85.8584 398.76 87.2939C396.504 88.7002 393.589 89.4766 390.015 89.623L386.807 93.0947ZM386.323 121H370.02L375.161 110.365H386.323C388.052 110.365 389.429 109.999 390.454 109.267C391.479 108.534 392.227 107.553 392.695 106.322C393.193 105.062 393.442 103.627 393.442 102.016C393.442 100.199 393.223 98.6172 392.783 97.2695C392.373 95.9219 391.685 94.8965 390.718 94.1934C389.751 93.4609 388.447 93.0947 386.807 93.0947H375.732L375.82 83.7783H389.268L392.3 87.4697C395.728 87.3525 398.467 88.0117 400.518 89.4473C402.568 90.8535 404.033 92.6992 404.912 94.9844C405.82 97.2402 406.274 99.6426 406.274 102.191C406.274 106.293 405.498 109.75 403.945 112.562C402.422 115.346 400.181 117.455 397.222 118.891C394.263 120.297 390.63 121 386.323 121Z" fill="#1A1A1A"/>
<path d="M429.678 57.0156L439.434 85.8438L449.102 57.0156H463.12L445.894 97.7529V121H432.93V97.7529L415.703 57.0156H429.678Z" fill="#1A1A1A"/>
<path d="M508.693 110.365V121H482.106V110.365H508.693ZM486.062 57.0156V121H473.186V57.0156H486.062Z" fill="#1A1A1A"/>
</svg>
