<svg width="354" height="94" viewBox="0 0 354 94" fill="none" xmlns="http://www.w3.org/2000/svg">
<path d="M24.7331 26.2559L26.7118 26.5146L29.5385 27.8082L35.3333 30.9127L39.2907 32.9825L43.3895 35.1816L45.6509 36.3458L49.043 38.1568L52.011 39.7091L55.4031 41.5201L57.8058 42.943L59.3605 44.1072L60.7739 45.2715L61.7632 46.177L63.6006 48.376L65.014 50.5751L66.1447 52.7742L66.9927 55.232L67.4167 56.7843L67.6994 59.2421V63.5109L67.2754 66.0981L66.5687 68.5559L65.5793 70.8843L64.3073 73.0834L62.7526 75.1531L61.3392 76.5761L60.6325 77.3522L59.5019 78.2577L57.9472 79.4219L55.8271 80.7155L53.1417 82.0091L50.4563 82.9146L47.0642 83.6907L44.5202 83.9495H41.5521L38.3014 83.5614L35.4746 82.9146L32.6479 81.8797L29.8212 80.5862L26.7118 78.9045L23.3197 77.0935L19.7863 75.2825L17.6662 74.1183L14.4155 72.4366L12.0128 71.143L9.89273 69.9788L6.50066 68.2972L3.39125 66.6155L2.68457 66.0981V65.8394L5.79397 64.2871L6.78333 63.7696L10.1754 61.9586L13.1435 60.4063L15.5462 59.1128L17.2422 59.8889L19.645 61.1825L23.461 63.1228L25.2984 64.1577L28.9732 66.0981L34.344 68.9439L37.736 70.755L39.9974 71.5311L42.1175 71.9192H43.6722L46.4989 71.4017L48.7603 70.4962L50.5977 69.332L52.1524 67.9091L53.1417 66.4861L53.8484 65.0632L54.4137 63.5109L54.5551 62.6054V60.1476L54.2724 58.5953L53.7071 57.043L52.7177 55.3614L51.4457 53.9384L49.891 52.6449L47.7709 51.4806L43.8135 49.4109L40.4214 47.5999L37.8774 46.3063L33.0719 43.7192L30.1039 42.1669L26.7118 40.3559L23.1784 38.5449L20.3516 36.8632L19.3623 35.8283L18.5143 34.276L18.2316 32.7238V31.4302L18.7969 29.7485L19.7863 28.3256L21.0583 27.2907L22.4717 26.6439L24.7331 26.2559Z" fill="#73A6E4"/>
<path d="M23.7445 9.57031H25.7233L28.55 9.82903L31.094 10.3465L34.4861 11.3813L38.5849 13.3217L41.5529 14.874L44.3797 16.4263L46.6411 17.5905L49.1851 19.0134L49.4678 19.4015V32.9841L48.4784 32.596L46.6411 31.5611L45.0864 30.785L37.1715 26.6455L34.3448 25.0933L31.094 23.4116L28.8327 22.3767L26.7126 21.8593L25.8646 21.7299H23.6032L21.3418 22.118L19.2218 22.8942L17.3844 24.0584L16.395 24.8345L14.9817 26.5162L13.851 28.7153L13.2856 30.6556L13.1443 31.4318V33.1134L13.5683 35.1832L14.4163 37.1235L15.4057 38.6758L16.9604 40.2281L18.9391 41.5217L22.3312 43.3327L25.5819 45.0144L31.9421 48.3777L33.3554 49.1538L35.3341 50.1887L38.7262 51.9997L42.2596 53.8107L47.0651 56.3979L48.3371 57.5621L49.0438 58.7263L49.4678 59.7612V62.607L48.9024 64.03L48.0544 65.1942L46.7824 66.229L45.2277 67.0052L44.097 67.2639H42.2596L40.4223 66.7465L36.8888 65.0648L34.7688 63.9006L31.3767 62.0896L27.8433 60.2786L26.0059 59.2437L22.7552 57.5621L19.0804 55.6217L16.1124 54.0694L12.7203 52.2584L10.3176 50.8355L8.48019 49.5419L7.06683 48.3777L5.65346 46.9547L4.2401 45.1437L3.1094 43.4621L1.97871 41.3923L0.989356 39.0639L0.282673 36.0887L0 34.5364V30.2676L0.42401 27.8098L1.27203 24.8345L2.12005 22.8942L3.53341 20.4364L4.52277 19.1428L5.93613 17.4611L7.49084 15.9088L8.62153 15.0033L10.4589 13.7098L13.1443 12.1575L16.5364 10.8639L18.9391 10.2171L22.0485 9.69967L23.7445 9.57031Z" fill="#9DBDE3"/>
<path d="M0 70.2422L0.565346 70.3715L2.96807 71.6651L5.51212 72.9587L9.32821 75.0284L13.1443 76.9688L15.2643 78.133L22.6138 82.0138L25.2992 83.4367L28.6913 85.2477L30.9527 86.2826L34.0621 87.3174L37.5955 88.0936L40.4222 88.611V88.9991L39.2916 89.5165L36.1822 91.0688L33.6381 92.1037L32.0834 92.6211L28.974 93.2679L24.8752 93.656H23.8859L19.9285 93.1385L16.819 92.3624L13.9923 91.3275L11.3069 90.0339L4.94678 86.6706L1.5547 84.8596L0.141337 84.0835L0 83.9541V70.2422Z" fill="#9DBDE3"/>
<path d="M41.5514 0H44.8021L46.7808 0.258716L50.0315 0.905505L53.141 1.94037L55.4023 2.97523L59.0771 4.9156L63.1758 7.11468L65.0132 8.02019L64.8719 8.53762L61.7625 10.0899L60.3491 10.8661L57.0984 12.5477L53.989 14.2294L52.5756 15.0055L51.5863 14.8762L49.4662 13.8413L46.7808 12.4184L43.3887 10.6073L39.4313 8.53762L37.1699 7.50275L34.3432 6.46789L31.3751 5.69175L29.2551 5.30367L27.2764 5.04496L27.4177 4.65688L30.8098 2.84587L33.0712 1.81101L36.4632 0.776147L39.1486 0.258716L41.5514 0Z" fill="#73A6E4"/>
<path d="M67.2769 12.5488H67.7009V26.1314L67.2769 26.5195L63.7435 28.3305L57.666 31.5644L55.2633 32.858L54.5566 32.9874V19.4048L55.122 18.8874L57.666 17.5938L61.0581 15.7828L65.0155 13.713L67.2769 12.5488Z" fill="#9DBDE3"/>
<path d="M96.5251 63.3311C96.5251 62.623 96.4162 61.9876 96.1983 61.4247C95.9986 60.8438 95.6173 60.3172 95.0545 59.8452C94.4917 59.355 93.7019 58.8739 92.6852 58.4018C91.6685 57.9298 90.3522 57.4396 88.7364 56.9312C86.9389 56.3502 85.2323 55.6966 83.6165 54.9704C82.0188 54.2442 80.6026 53.3999 79.368 52.4377C78.1516 51.4573 77.1894 50.3226 76.4813 49.0335C75.7914 47.7444 75.4464 46.2466 75.4464 44.54C75.4464 42.8878 75.8095 41.39 76.5358 40.0465C77.262 38.6848 78.2787 37.5228 79.5859 36.5606C80.8931 35.5802 82.4363 34.8267 84.2156 34.3002C86.013 33.7737 87.9829 33.5104 90.1253 33.5104C93.0483 33.5104 95.5992 34.0369 97.7779 35.09C99.9565 36.143 101.645 37.5864 102.843 39.4201C104.06 41.2538 104.668 43.3508 104.668 45.711H96.5524C96.5524 44.5491 96.3073 43.5323 95.8171 42.6609C95.345 41.7712 94.6188 41.0722 93.6384 40.5639C92.6761 40.0555 91.4597 39.8013 89.9891 39.8013C88.573 39.8013 87.3928 40.0192 86.4487 40.455C85.5046 40.8725 84.7966 41.4444 84.3245 42.1707C83.8525 42.8787 83.6165 43.6776 83.6165 44.5672C83.6165 45.239 83.7799 45.8472 84.1067 46.3919C84.4516 46.9365 84.96 47.4449 85.6317 47.9169C86.3035 48.389 87.1296 48.8338 88.11 49.2514C89.0904 49.6689 90.2251 50.0774 91.5142 50.4769C93.6747 51.1305 95.572 51.8658 97.206 52.6828C98.8581 53.4998 100.238 54.4166 101.345 55.4334C102.453 56.4501 103.288 57.603 103.851 58.892C104.414 60.1811 104.695 61.6426 104.695 63.2766C104.695 65.0014 104.359 66.5446 103.688 67.9063C103.016 69.268 102.044 70.4209 100.774 71.365C99.5027 72.309 97.9867 73.0262 96.2256 73.5164C94.4645 74.0066 92.4946 74.2517 90.3159 74.2517C88.3551 74.2517 86.4215 73.9975 84.5152 73.4892C82.6088 72.9626 80.875 72.1729 79.3136 71.1199C77.7703 70.0668 76.5358 68.7233 75.6098 67.0893C74.6839 65.4553 74.2209 63.5217 74.2209 61.2886H82.4182C82.4182 62.5231 82.6088 63.5671 82.9901 64.4204C83.3714 65.2737 83.9069 65.9636 84.5969 66.4902C85.3049 67.0167 86.1401 67.3979 87.1023 67.634C88.0827 67.87 89.1539 67.988 90.3159 67.988C91.732 67.988 92.894 67.7883 93.8018 67.3889C94.7277 66.9894 95.4086 66.4357 95.8443 65.7276C96.2982 65.0196 96.5251 64.2207 96.5251 63.3311Z" fill="#1A1A1A"/>
<path d="M136.682 60.5533H144.824C144.661 63.2221 143.926 65.5915 142.619 67.6612C141.33 69.7309 139.523 71.3468 137.199 72.5088C134.893 73.6707 132.116 74.2517 128.866 74.2517C126.324 74.2517 124.045 73.816 122.03 72.9445C120.015 72.0549 118.29 70.784 116.856 69.1318C115.44 67.4796 114.359 65.4825 113.615 63.1404C112.871 60.7984 112.498 58.1749 112.498 55.27V52.5194C112.498 49.6145 112.88 46.991 113.642 44.6489C114.423 42.2887 115.53 40.2825 116.965 38.6303C118.417 36.9781 120.151 35.7072 122.166 34.8176C124.181 33.928 126.433 33.4832 128.92 33.4832C132.224 33.4832 135.011 34.0823 137.281 35.2806C139.568 36.4789 141.339 38.131 142.591 40.2371C143.862 42.3431 144.625 44.7397 144.879 47.4267H136.709C136.618 45.829 136.3 44.4764 135.756 43.3689C135.211 42.2433 134.385 41.399 133.277 40.8362C132.188 40.2552 130.736 39.9648 128.92 39.9648C127.558 39.9648 126.369 40.2189 125.353 40.7273C124.336 41.2356 123.482 42.0073 122.793 43.0421C122.103 44.077 121.585 45.3842 121.24 46.9638C120.913 48.5251 120.75 50.3589 120.75 52.4649V55.27C120.75 57.3216 120.904 59.128 121.213 60.6894C121.522 62.2327 121.994 63.5399 122.629 64.611C123.283 65.6641 124.118 66.4629 125.135 67.0076C126.17 67.5341 127.413 67.7974 128.866 67.7974C130.572 67.7974 131.979 67.525 133.087 66.9804C134.194 66.4357 135.039 65.6278 135.62 64.5566C136.219 63.4854 136.573 62.151 136.682 60.5533Z" fill="#1A1A1A"/>
<path d="M182.185 34.0551H167.779C164.765 34.0551 162.178 34.509 160.017 35.4168C157.857 36.3245 156.195 37.6681 155.033 39.4473C153.872 41.2266 153.291 43.4143 153.291 46.0106C153.291 48.0622 153.654 49.8414 154.38 51.3483C155.106 52.8553 156.132 54.1171 157.457 55.1338C158.764 56.1505 160.308 56.9494 162.087 57.5303L164.429 58.7286H177.147L177.202 52.819H167.697C166.154 52.819 164.874 52.5466 163.857 52.0019C162.84 51.4573 162.078 50.7038 161.57 49.7416C161.043 48.7793 160.78 47.6809 160.78 46.4463C160.78 45.121 161.034 43.9771 161.542 43.0149C162.051 42.0345 162.822 41.281 163.857 40.7545C164.892 40.228 166.199 39.9648 167.779 39.9648H174.696V73.707H182.185V34.0551ZM159.799 73.707L168.977 55.9508L161.052 55.9236L151.765 73.3258V73.707H159.799Z" fill="#1A1A1A"/>
<path d="M201.013 34.0551V73.707H192.87V34.0551H201.013Z" fill="#1A1A1A"/>
<path d="M227.664 56.3048H217.479L217.424 50.6947H225.976C227.482 50.6947 228.717 50.5041 229.679 50.1228C230.642 49.7234 231.359 49.1515 231.831 48.4071C232.321 47.6446 232.566 46.7187 232.566 45.6293C232.566 44.3947 232.33 43.3962 231.858 42.6336C231.404 41.8711 230.687 41.3173 229.707 40.9724C228.744 40.6274 227.501 40.455 225.976 40.455H220.311V73.707H212.141V34.0551H225.976C228.281 34.0551 230.342 34.273 232.158 34.7087C233.991 35.1444 235.544 35.8071 236.814 36.6967C238.085 37.5864 239.057 38.712 239.728 40.0737C240.4 41.4172 240.736 43.0149 240.736 44.8668C240.736 46.5008 240.364 48.0077 239.62 49.3875C238.893 50.7674 237.74 51.893 236.161 52.7645C234.599 53.636 232.557 54.1171 230.033 54.2079L227.664 56.3048ZM227.31 73.707H215.246L218.432 67.3344H227.31C228.744 67.3344 229.915 67.1075 230.823 66.6536C231.731 66.1815 232.403 65.5461 232.838 64.7472C233.274 63.9484 233.492 63.0315 233.492 61.9966C233.492 60.8347 233.292 59.827 232.893 58.9737C232.512 58.1204 231.894 57.4668 231.041 57.0129C230.188 56.5409 229.062 56.3048 227.664 56.3048H219.794L219.848 50.6947H229.652L231.531 52.9007C233.946 52.8643 235.889 53.291 237.359 54.1806C238.848 55.0521 239.928 56.1868 240.6 57.5848C241.29 58.9828 241.635 60.4806 241.635 62.0783C241.635 64.6201 241.081 66.7625 239.974 68.5054C238.866 70.2302 237.241 71.5284 235.099 72.3998C232.975 73.2713 230.378 73.707 227.31 73.707Z" fill="#1A1A1A"/>
<path d="M266.478 56.3048H256.293L256.239 50.6947H264.79C266.297 50.6947 267.532 50.5041 268.494 50.1228C269.456 49.7234 270.173 49.1515 270.645 48.4071C271.135 47.6446 271.381 46.7187 271.381 45.6293C271.381 44.3947 271.144 43.3962 270.672 42.6336C270.219 41.8711 269.501 41.3173 268.521 40.9724C267.559 40.6274 266.315 40.455 264.79 40.455H259.125V73.707H250.955V34.0551H264.79C267.096 34.0551 269.156 34.273 270.972 34.7087C272.806 35.1444 274.358 35.8071 275.629 36.6967C276.9 37.5864 277.871 38.712 278.543 40.0737C279.215 41.4172 279.551 43.0149 279.551 44.8668C279.551 46.5008 279.178 48.0077 278.434 49.3875C277.708 50.7674 276.555 51.893 274.975 52.7645C273.414 53.636 271.371 54.1171 268.848 54.2079L266.478 56.3048ZM266.124 73.707H254.06L257.246 67.3344H266.124C267.559 67.3344 268.73 67.1075 269.638 66.6536C270.545 66.1815 271.217 65.5461 271.653 64.7472C272.089 63.9484 272.306 63.0315 272.306 61.9966C272.306 60.8347 272.107 59.827 271.707 58.9737C271.326 58.1204 270.709 57.4668 269.855 57.0129C269.002 56.5409 267.876 56.3048 266.478 56.3048H258.608L258.662 50.6947H268.467L270.346 52.9007C272.76 52.8643 274.703 53.291 276.174 54.1806C277.662 55.0521 278.743 56.1868 279.414 57.5848C280.104 58.9828 280.449 60.4806 280.449 62.0783C280.449 64.6201 279.896 66.7625 278.788 68.5054C277.681 70.2302 276.056 71.5284 273.913 72.3998C271.789 73.2713 269.193 73.707 266.124 73.707Z" fill="#1A1A1A"/>
<path d="M295.217 34.0551L303.496 52.1381L311.774 34.0551H320.68L307.635 59.2733V73.707H299.356V59.2733L286.284 34.0551H295.217Z" fill="#1A1A1A"/>
<path d="M353.075 67.3344V73.707H333.113V67.3344H353.075ZM335.754 34.0551V73.707H327.584V34.0551H335.754Z" fill="#1A1A1A"/>
</svg>
