<svg width="2629" height="1031" viewBox="0 0 2629 1031" fill="none" xmlns="http://www.w3.org/2000/svg">
<rect x="10" y="10" width="550" height="632" rx="40" fill="#FAF9F6" stroke="url(#paint0_linear_1064_38)" stroke-width="20"/>
<path d="M226.29 350.727C226.077 348.928 225.213 347.531 223.697 346.537C222.182 345.543 220.324 345.045 218.122 345.045C216.512 345.045 215.104 345.306 213.896 345.827C212.701 346.348 211.766 347.064 211.091 347.975C210.428 348.887 210.097 349.922 210.097 351.082C210.097 352.053 210.327 352.888 210.789 353.586C211.263 354.272 211.866 354.847 212.6 355.308C213.334 355.758 214.103 356.131 214.908 356.427C215.713 356.711 216.453 356.942 217.128 357.119L220.821 358.114C221.768 358.362 222.821 358.705 223.982 359.143C225.153 359.581 226.272 360.179 227.337 360.937C228.415 361.683 229.302 362.641 230.001 363.813C230.699 364.985 231.048 366.423 231.048 368.128C231.048 370.093 230.533 371.868 229.504 373.455C228.486 375.041 226.994 376.301 225.029 377.237C223.076 378.172 220.703 378.639 217.909 378.639C215.305 378.639 213.05 378.219 211.144 377.379C209.25 376.538 207.759 375.366 206.67 373.863C205.593 372.36 204.983 370.614 204.841 368.625H209.386C209.505 369.998 209.966 371.134 210.771 372.034C211.588 372.922 212.618 373.585 213.861 374.023C215.116 374.449 216.465 374.662 217.909 374.662C219.59 374.662 221.099 374.39 222.437 373.845C223.774 373.289 224.834 372.519 225.615 371.537C226.396 370.543 226.787 369.383 226.787 368.057C226.787 366.849 226.45 365.867 225.775 365.109C225.1 364.352 224.212 363.736 223.112 363.263C222.011 362.789 220.821 362.375 219.543 362.02L215.068 360.741C212.227 359.925 209.978 358.759 208.321 357.244C206.664 355.728 205.835 353.746 205.835 351.295C205.835 349.259 206.386 347.484 207.487 345.969C208.599 344.442 210.091 343.258 211.961 342.418C213.843 341.565 215.944 341.139 218.264 341.139C220.608 341.139 222.691 341.559 224.514 342.4C226.337 343.228 227.781 344.365 228.847 345.809C229.924 347.253 230.492 348.893 230.551 350.727H226.29ZM236.3 345.543V341.636H263.572V345.543H252.138V378H247.734V345.543H236.3ZM270.368 378V341.636H292.314V345.543H274.772V357.83H291.178V361.736H274.772V374.094H292.598V378H270.368ZM300.251 378V341.636H312.538C315.391 341.636 317.723 342.151 319.534 343.181C321.357 344.199 322.706 345.578 323.582 347.318C324.458 349.058 324.896 351 324.896 353.142C324.896 355.285 324.458 357.232 323.582 358.984C322.718 360.736 321.38 362.132 319.569 363.174C317.758 364.204 315.438 364.719 312.609 364.719H303.802V360.812H312.467C314.42 360.812 315.989 360.475 317.172 359.8C318.356 359.126 319.214 358.214 319.747 357.066C320.291 355.906 320.564 354.598 320.564 353.142C320.564 351.686 320.291 350.384 319.747 349.236C319.214 348.088 318.35 347.188 317.154 346.537C315.959 345.874 314.373 345.543 312.396 345.543H304.654V378H300.251ZM358.197 341.636V378H353.793V346.253H353.58L344.702 352.148V347.673L353.793 341.636H358.197Z" fill="#9B9DA2"/>
<path d="M181.498 473H173.06L188.422 429.364H198.181L213.564 473H205.127L193.472 438.312H193.131L181.498 473ZM181.775 455.891H204.786V462.24H181.775V455.891ZM239.83 459.236V440.273H247.543V473H240.065V467.183H239.724C238.985 469.016 237.771 470.514 236.08 471.679C234.404 472.844 232.337 473.426 229.88 473.426C227.735 473.426 225.839 472.95 224.191 471.999C222.558 471.033 221.279 469.634 220.356 467.801C219.433 465.955 218.971 463.724 218.971 461.111V440.273H226.684V459.918C226.684 461.991 227.252 463.639 228.388 464.861C229.525 466.082 231.016 466.693 232.863 466.693C233.999 466.693 235.1 466.416 236.165 465.862C237.231 465.308 238.104 464.484 238.786 463.391C239.482 462.283 239.83 460.898 239.83 459.236ZM267.62 473.575C265.049 473.575 262.748 472.915 260.716 471.594C258.685 470.273 257.08 468.355 255.901 465.841C254.722 463.327 254.132 460.273 254.132 456.679C254.132 453.043 254.729 449.974 255.922 447.474C257.13 444.96 258.756 443.064 260.801 441.786C262.847 440.493 265.127 439.847 267.641 439.847C269.559 439.847 271.135 440.173 272.371 440.827C273.607 441.466 274.587 442.24 275.311 443.149C276.036 444.044 276.597 444.889 276.995 445.685H277.314V429.364H285.049V473H277.463V467.844H276.995C276.597 468.639 276.022 469.484 275.269 470.379C274.516 471.26 273.522 472.013 272.286 472.638C271.05 473.263 269.495 473.575 267.62 473.575ZM269.772 467.247C271.405 467.247 272.797 466.807 273.948 465.926C275.098 465.031 275.972 463.788 276.569 462.197C277.165 460.607 277.463 458.753 277.463 456.636C277.463 454.52 277.165 452.68 276.569 451.118C275.986 449.555 275.12 448.341 273.969 447.474C272.833 446.608 271.434 446.175 269.772 446.175C268.053 446.175 266.618 446.622 265.468 447.517C264.317 448.412 263.451 449.648 262.868 451.224C262.286 452.801 261.995 454.605 261.995 456.636C261.995 458.682 262.286 460.507 262.868 462.112C263.465 463.703 264.338 464.96 265.489 465.884C266.654 466.793 268.081 467.247 269.772 467.247ZM293.268 473V440.273H300.981V473H293.268ZM297.146 435.628C295.924 435.628 294.873 435.223 293.992 434.413C293.112 433.589 292.671 432.602 292.671 431.452C292.671 430.287 293.112 429.3 293.992 428.49C294.873 427.666 295.924 427.254 297.146 427.254C298.381 427.254 299.433 427.666 300.299 428.49C301.18 429.3 301.62 430.287 301.62 431.452C301.62 432.602 301.18 433.589 300.299 434.413C299.433 435.223 298.381 435.628 297.146 435.628ZM325.255 440.273V446.239H306.441V440.273H325.255ZM311.086 432.432H318.799V463.156C318.799 464.193 318.955 464.989 319.267 465.543C319.594 466.082 320.02 466.452 320.546 466.651C321.071 466.849 321.654 466.949 322.293 466.949C322.776 466.949 323.216 466.913 323.614 466.842C324.026 466.771 324.338 466.707 324.551 466.651L325.851 472.68C325.439 472.822 324.85 472.979 324.083 473.149C323.33 473.32 322.407 473.419 321.313 473.447C319.381 473.504 317.641 473.213 316.093 472.574C314.544 471.92 313.316 470.912 312.407 469.548C311.512 468.185 311.071 466.48 311.086 464.435V432.432ZM359.628 473.639C356.645 473.639 354.081 473.099 351.936 472.02C349.791 470.94 348.136 469.484 346.972 467.652C345.821 465.805 345.246 463.724 345.246 461.409C345.246 459.662 345.601 458.114 346.311 456.764C347.036 455.415 348.03 454.165 349.294 453.014C350.572 451.864 352.05 450.72 353.726 449.584L361.46 444.321C362.597 443.582 363.456 442.801 364.038 441.977C364.635 441.153 364.933 440.187 364.933 439.08C364.933 438.142 364.536 437.254 363.74 436.416C362.959 435.578 361.879 435.159 360.501 435.159C359.578 435.159 358.761 435.379 358.051 435.82C357.355 436.246 356.808 436.807 356.411 437.503C356.027 438.199 355.835 438.938 355.835 439.719C355.835 440.67 356.098 441.636 356.624 442.616C357.163 443.597 357.859 444.612 358.712 445.663C359.578 446.714 360.501 447.83 361.482 449.009L381.957 473H373.605L356.602 453.526C355.338 452.048 354.116 450.592 352.938 449.158C351.773 447.723 350.814 446.232 350.061 444.683C349.322 443.121 348.953 441.43 348.953 439.612C348.953 437.553 349.429 435.713 350.381 434.094C351.332 432.46 352.661 431.175 354.365 430.237C356.084 429.3 358.094 428.831 360.395 428.831C362.696 428.831 364.67 429.286 366.318 430.195C367.966 431.104 369.237 432.311 370.132 433.817C371.027 435.322 371.474 436.963 371.474 438.739C371.474 440.798 370.963 442.645 369.94 444.278C368.918 445.898 367.497 447.368 365.679 448.689L356.858 455.145C355.409 456.196 354.372 457.261 353.747 458.341C353.122 459.406 352.81 460.315 352.81 461.068C352.81 462.219 353.101 463.263 353.683 464.2C354.266 465.138 355.082 465.891 356.134 466.459C357.199 467.013 358.442 467.29 359.862 467.29C361.425 467.29 362.966 466.942 364.486 466.246C366.006 465.536 367.391 464.527 368.641 463.22C369.891 461.913 370.885 460.351 371.624 458.533C372.362 456.7 372.732 454.669 372.732 452.439H379.358C379.358 455.195 379.053 457.595 378.442 459.641C377.831 461.672 377.043 463.391 376.077 464.797C375.111 466.189 374.088 467.304 373.009 468.142C372.668 468.384 372.341 468.625 372.028 468.866C371.716 469.108 371.389 469.349 371.048 469.591C369.514 470.983 367.717 472.006 365.658 472.659C363.612 473.312 361.602 473.639 359.628 473.639ZM170.423 546H161.986L177.348 502.364H187.107L202.49 546H194.053L182.398 511.312H182.057L170.423 546ZM170.7 528.891H193.712V535.24H170.7V528.891ZM215.61 526.824V546H207.897V513.273H215.269V518.834H215.652C216.405 517.001 217.605 515.545 219.253 514.466C220.915 513.386 222.968 512.847 225.411 512.847C227.669 512.847 229.637 513.33 231.313 514.295C233.003 515.261 234.31 516.661 235.233 518.493C236.171 520.325 236.632 522.548 236.618 525.162V546H228.905V526.355C228.905 524.168 228.337 522.456 227.201 521.22C226.078 519.984 224.523 519.366 222.534 519.366C221.185 519.366 219.985 519.665 218.934 520.261C217.897 520.844 217.08 521.689 216.483 522.797C215.901 523.905 215.61 525.247 215.61 526.824ZM253.877 546.661C251.803 546.661 249.935 546.291 248.273 545.553C246.625 544.8 245.319 543.692 244.353 542.229C243.401 540.766 242.925 538.962 242.925 536.817C242.925 534.97 243.266 533.443 243.948 532.236C244.63 531.028 245.56 530.062 246.739 529.338C247.918 528.614 249.246 528.067 250.723 527.697C252.215 527.314 253.756 527.037 255.347 526.866C257.265 526.668 258.82 526.49 260.013 526.334C261.206 526.163 262.073 525.908 262.613 525.567C263.167 525.212 263.444 524.665 263.444 523.926V523.798C263.444 522.193 262.968 520.95 262.016 520.07C261.064 519.189 259.694 518.749 257.904 518.749C256.015 518.749 254.516 519.161 253.408 519.984C252.314 520.808 251.576 521.781 251.192 522.903L243.99 521.881C244.559 519.892 245.496 518.23 246.803 516.895C248.11 515.545 249.708 514.537 251.597 513.869C253.486 513.188 255.574 512.847 257.861 512.847C259.438 512.847 261.007 513.031 262.57 513.401C264.132 513.77 265.56 514.381 266.853 515.233C268.145 516.071 269.182 517.214 269.963 518.663C270.759 520.112 271.157 521.923 271.157 524.097V546H263.742V541.504H263.486C263.017 542.413 262.357 543.266 261.505 544.061C260.667 544.842 259.608 545.474 258.33 545.957C257.066 546.426 255.581 546.661 253.877 546.661ZM255.88 540.993C257.428 540.993 258.77 540.687 259.907 540.077C261.043 539.452 261.917 538.628 262.527 537.605C263.152 536.582 263.465 535.467 263.465 534.26V530.403C263.223 530.602 262.811 530.787 262.229 530.957C261.661 531.128 261.022 531.277 260.311 531.405C259.601 531.533 258.898 531.646 258.202 531.746C257.506 531.845 256.902 531.93 256.391 532.001C255.24 532.158 254.211 532.413 253.301 532.768C252.392 533.124 251.675 533.621 251.15 534.26C250.624 534.885 250.361 535.695 250.361 536.689C250.361 538.109 250.88 539.182 251.917 539.906C252.953 540.631 254.275 540.993 255.88 540.993ZM286.625 502.364V546H278.912V502.364H286.625ZM299.351 558.273C298.3 558.273 297.327 558.188 296.432 558.017C295.551 557.861 294.848 557.676 294.322 557.463L296.112 551.455C297.234 551.781 298.236 551.938 299.116 551.923C299.997 551.909 300.771 551.632 301.439 551.092C302.121 550.567 302.696 549.686 303.165 548.45L303.825 546.682L291.957 513.273H300.139L307.682 537.989H308.023L315.587 513.273H323.79L310.686 549.963C310.075 551.696 309.266 553.18 308.257 554.416C307.249 555.666 306.013 556.618 304.55 557.271C303.101 557.939 301.368 558.273 299.351 558.273ZM328.701 546V541.099L345.576 519.942V519.665H329.255V513.273H355.015V518.536L338.95 539.331V539.608H355.569V546H328.701ZM376.37 546.639C373.088 546.639 370.255 545.957 367.868 544.594C365.496 543.216 363.671 541.27 362.392 538.756C361.114 536.227 360.475 533.251 360.475 529.828C360.475 526.462 361.114 523.507 362.392 520.964C363.685 518.408 365.489 516.419 367.804 514.999C370.12 513.564 372.84 512.847 375.965 512.847C377.982 512.847 379.885 513.173 381.675 513.827C383.479 514.466 385.07 515.46 386.448 516.81C387.84 518.159 388.934 519.878 389.729 521.966C390.525 524.04 390.922 526.511 390.922 529.381V531.746H364.097V526.547H383.529C383.515 525.07 383.195 523.756 382.57 522.605C381.945 521.44 381.071 520.524 379.949 519.857C378.841 519.189 377.549 518.855 376.071 518.855C374.495 518.855 373.11 519.239 371.917 520.006C370.723 520.759 369.793 521.753 369.125 522.989C368.472 524.21 368.138 525.553 368.124 527.016V531.554C368.124 533.457 368.472 535.091 369.168 536.455C369.864 537.804 370.837 538.841 372.087 539.565C373.337 540.276 374.8 540.631 376.476 540.631C377.598 540.631 378.614 540.474 379.523 540.162C380.432 539.835 381.221 539.359 381.888 538.734C382.556 538.109 383.06 537.335 383.401 536.412L390.603 537.222C390.148 539.125 389.282 540.787 388.003 542.207C386.739 543.614 385.12 544.707 383.145 545.489C381.171 546.256 378.912 546.639 376.37 546.639Z" fill="#395577"/>
<path d="M202.312 161.592C202.312 131.628 226.566 107.334 256.485 107.334C286.402 107.334 310.659 131.628 310.659 161.592C310.659 191.558 286.402 215.849 256.485 215.849C226.566 215.849 202.312 191.558 202.312 161.592ZM364.84 257.548L312.206 204.834C311.796 204.423 311.754 203.77 312.102 203.307C320.807 191.681 325.97 177.241 325.97 161.592C325.97 123.156 294.862 92 256.485 92C218.204 92 187 123.252 187 161.592C187 200.028 218.11 231.183 256.485 231.183C272.251 231.183 286.788 225.925 298.45 217.061C298.913 216.707 299.568 216.746 299.982 217.16L352.574 269.834C355.453 272.722 360.13 272.722 363.014 269.834L364.84 268.004C367.72 265.116 367.72 260.437 364.84 257.548Z" fill="url(#paint1_linear_1064_38)"/>
<rect x="693" y="347" width="550" height="632" rx="40" fill="#FAF9F6" stroke="url(#paint2_linear_1064_38)" stroke-width="20"/>
<path d="M905.29 700.727C905.077 698.928 904.213 697.531 902.697 696.537C901.182 695.543 899.324 695.045 897.122 695.045C895.512 695.045 894.104 695.306 892.896 695.827C891.701 696.348 890.766 697.064 890.091 697.975C889.428 698.887 889.097 699.922 889.097 701.082C889.097 702.053 889.327 702.888 889.789 703.586C890.263 704.272 890.866 704.847 891.6 705.308C892.334 705.758 893.103 706.131 893.908 706.427C894.713 706.711 895.453 706.942 896.128 707.119L899.821 708.114C900.768 708.362 901.821 708.705 902.982 709.143C904.153 709.581 905.272 710.179 906.337 710.937C907.415 711.683 908.302 712.641 909.001 713.813C909.699 714.985 910.048 716.423 910.048 718.128C910.048 720.093 909.533 721.868 908.504 723.455C907.486 725.041 905.994 726.301 904.029 727.237C902.076 728.172 899.703 728.639 896.909 728.639C894.305 728.639 892.05 728.219 890.144 727.379C888.25 726.538 886.759 725.366 885.67 723.863C884.593 722.36 883.983 720.614 883.841 718.625H888.386C888.505 719.998 888.966 721.134 889.771 722.034C890.588 722.922 891.618 723.585 892.861 724.023C894.116 724.449 895.465 724.662 896.909 724.662C898.59 724.662 900.099 724.39 901.437 723.845C902.774 723.289 903.834 722.519 904.615 721.537C905.396 720.543 905.787 719.383 905.787 718.057C905.787 716.849 905.45 715.867 904.775 715.109C904.1 714.352 903.212 713.736 902.112 713.263C901.011 712.789 899.821 712.375 898.543 712.02L894.068 710.741C891.227 709.925 888.978 708.759 887.321 707.244C885.664 705.728 884.835 703.746 884.835 701.295C884.835 699.259 885.386 697.484 886.487 695.969C887.599 694.442 889.091 693.258 890.961 692.418C892.843 691.565 894.944 691.139 897.264 691.139C899.608 691.139 901.691 691.559 903.514 692.4C905.337 693.228 906.781 694.365 907.847 695.809C908.924 697.253 909.492 698.893 909.551 700.727H905.29ZM915.3 695.543V691.636H942.572V695.543H931.138V728H926.734V695.543H915.3ZM949.368 728V691.636H971.314V695.543H953.772V707.83H970.178V711.736H953.772V724.094H971.598V728H949.368ZM979.251 728V691.636H991.538C994.391 691.636 996.723 692.151 998.534 693.181C1000.36 694.199 1001.71 695.578 1002.58 697.318C1003.46 699.058 1003.9 701 1003.9 703.142C1003.9 705.285 1003.46 707.232 1002.58 708.984C1001.72 710.736 1000.38 712.132 998.569 713.174C996.758 714.204 994.438 714.719 991.609 714.719H982.802V710.812H991.467C993.42 710.812 994.989 710.475 996.172 709.8C997.356 709.126 998.214 708.214 998.747 707.066C999.291 705.906 999.564 704.598 999.564 703.142C999.564 701.686 999.291 700.384 998.747 699.236C998.214 698.088 997.35 697.188 996.154 696.537C994.959 695.874 993.373 695.543 991.396 695.543H983.654V728H979.251ZM1024.41 728V724.804L1036.42 711.665C1037.82 710.126 1038.98 708.788 1039.9 707.652C1040.81 706.504 1041.48 705.427 1041.92 704.42C1042.37 703.402 1042.59 702.337 1042.59 701.224C1042.59 699.946 1042.29 698.839 1041.67 697.904C1041.07 696.969 1040.24 696.247 1039.19 695.738C1038.13 695.229 1036.95 694.974 1035.63 694.974C1034.24 694.974 1033.02 695.264 1031.98 695.844C1030.95 696.413 1030.15 697.212 1029.58 698.241C1029.02 699.271 1028.75 700.479 1028.75 701.864H1024.55C1024.55 699.733 1025.05 697.863 1026.03 696.253C1027.01 694.643 1028.35 693.388 1030.04 692.489C1031.75 691.589 1033.66 691.139 1035.78 691.139C1037.91 691.139 1039.79 691.589 1041.44 692.489C1043.09 693.388 1044.38 694.602 1045.31 696.129C1046.25 697.656 1046.71 699.354 1046.71 701.224C1046.71 702.562 1046.47 703.87 1045.99 705.148C1045.51 706.415 1044.68 707.83 1043.5 709.392C1042.33 710.943 1040.7 712.837 1038.62 715.074L1030.45 723.81V724.094H1047.35V728H1024.41Z" fill="#9B9DA2"/>
<path d="M846.075 791.359C845.876 789.499 845.038 788.05 843.561 787.013C842.098 785.976 840.194 785.457 837.851 785.457C836.203 785.457 834.79 785.706 833.611 786.203C832.432 786.7 831.53 787.375 830.905 788.227C830.28 789.08 829.96 790.053 829.946 791.146C829.946 792.055 830.152 792.844 830.564 793.511C830.99 794.179 831.565 794.747 832.29 795.216C833.014 795.67 833.817 796.054 834.697 796.366C835.578 796.679 836.466 796.942 837.361 797.155L841.452 798.178C843.099 798.561 844.683 799.08 846.203 799.733C847.737 800.386 849.108 801.21 850.315 802.205C851.537 803.199 852.503 804.399 853.213 805.805C853.923 807.212 854.278 808.859 854.278 810.749C854.278 813.305 853.625 815.557 852.318 817.503C851.011 819.435 849.122 820.947 846.65 822.041C844.193 823.121 841.217 823.661 837.723 823.661C834.328 823.661 831.381 823.135 828.881 822.084C826.395 821.033 824.449 819.499 823.042 817.482C821.65 815.464 820.898 813.007 820.784 810.109H828.561C828.675 811.629 829.143 812.893 829.967 813.902C830.791 814.911 831.863 815.663 833.184 816.161C834.52 816.658 836.011 816.906 837.659 816.906C839.378 816.906 840.883 816.651 842.176 816.139C843.483 815.614 844.506 814.889 845.244 813.966C845.983 813.028 846.359 811.935 846.373 810.685C846.359 809.548 846.025 808.611 845.372 807.872C844.719 807.119 843.802 806.494 842.623 805.997C841.459 805.486 840.095 805.031 838.532 804.634L833.568 803.355C829.974 802.432 827.133 801.033 825.045 799.158C822.971 797.268 821.934 794.761 821.934 791.636C821.934 789.065 822.631 786.814 824.023 784.882C825.429 782.95 827.339 781.452 829.754 780.386C832.169 779.307 834.903 778.767 837.957 778.767C841.054 778.767 843.767 779.307 846.096 780.386C848.44 781.452 850.28 782.936 851.615 784.839C852.95 786.729 853.639 788.902 853.682 791.359H846.075ZM877.327 790.273V796.239H858.513V790.273H877.327ZM863.158 782.432H870.871V813.156C870.871 814.193 871.027 814.989 871.34 815.543C871.666 816.082 872.093 816.452 872.618 816.651C873.144 816.849 873.726 816.949 874.365 816.949C874.848 816.949 875.289 816.913 875.686 816.842C876.098 816.771 876.411 816.707 876.624 816.651L877.923 822.68C877.512 822.822 876.922 822.979 876.155 823.149C875.402 823.32 874.479 823.419 873.385 823.447C871.453 823.504 869.713 823.213 868.165 822.574C866.617 821.92 865.388 820.912 864.479 819.548C863.584 818.185 863.144 816.48 863.158 814.435V782.432ZM883.778 823V790.273H891.256V795.727H891.597C892.194 793.838 893.216 792.382 894.665 791.359C896.128 790.322 897.797 789.804 899.672 789.804C900.099 789.804 900.574 789.825 901.1 789.868C901.64 789.896 902.087 789.946 902.442 790.017V797.112C902.116 796.999 901.597 796.899 900.887 796.814C900.191 796.714 899.516 796.665 898.863 796.665C897.456 796.665 896.192 796.97 895.07 797.581C893.962 798.178 893.089 799.009 892.449 800.074C891.81 801.139 891.491 802.368 891.491 803.76V823H883.778ZM916.398 823.661C914.324 823.661 912.456 823.291 910.795 822.553C909.147 821.8 907.84 820.692 906.874 819.229C905.922 817.766 905.447 815.962 905.447 813.817C905.447 811.97 905.787 810.443 906.469 809.236C907.151 808.028 908.081 807.062 909.26 806.338C910.439 805.614 911.768 805.067 913.245 804.697C914.736 804.314 916.278 804.037 917.868 803.866C919.786 803.668 921.341 803.49 922.535 803.334C923.728 803.163 924.594 802.908 925.134 802.567C925.688 802.212 925.965 801.665 925.965 800.926V800.798C925.965 799.193 925.489 797.95 924.537 797.07C923.586 796.189 922.215 795.749 920.425 795.749C918.536 795.749 917.037 796.161 915.93 796.984C914.836 797.808 914.097 798.781 913.714 799.903L906.512 798.881C907.08 796.892 908.018 795.23 909.324 793.895C910.631 792.545 912.229 791.537 914.118 790.869C916.008 790.188 918.096 789.847 920.383 789.847C921.959 789.847 923.529 790.031 925.091 790.401C926.654 790.77 928.081 791.381 929.374 792.233C930.667 793.071 931.704 794.214 932.485 795.663C933.28 797.112 933.678 798.923 933.678 801.097V823H926.263V818.504H926.008C925.539 819.413 924.878 820.266 924.026 821.061C923.188 821.842 922.13 822.474 920.851 822.957C919.587 823.426 918.103 823.661 916.398 823.661ZM918.401 817.993C919.949 817.993 921.292 817.687 922.428 817.077C923.564 816.452 924.438 815.628 925.049 814.605C925.674 813.582 925.986 812.467 925.986 811.26V807.403C925.745 807.602 925.333 807.787 924.751 807.957C924.182 808.128 923.543 808.277 922.833 808.405C922.123 808.533 921.42 808.646 920.724 808.746C920.028 808.845 919.424 808.93 918.912 809.001C917.762 809.158 916.732 809.413 915.823 809.768C914.914 810.124 914.197 810.621 913.671 811.26C913.145 811.885 912.883 812.695 912.883 813.689C912.883 815.109 913.401 816.182 914.438 816.906C915.475 817.631 916.796 817.993 918.401 817.993ZM957.776 790.273V796.239H938.962V790.273H957.776ZM943.607 782.432H951.32V813.156C951.32 814.193 951.476 814.989 951.789 815.543C952.116 816.082 952.542 816.452 953.067 816.651C953.593 816.849 954.175 816.949 954.814 816.949C955.297 816.949 955.738 816.913 956.135 816.842C956.547 816.771 956.86 816.707 957.073 816.651L958.373 822.68C957.961 822.822 957.371 822.979 956.604 823.149C955.851 823.32 954.928 823.419 953.834 823.447C951.903 823.504 950.162 823.213 948.614 822.574C947.066 821.92 945.837 820.912 944.928 819.548C944.033 818.185 943.593 816.48 943.607 814.435V782.432ZM978.364 823.639C975.083 823.639 972.249 822.957 969.862 821.594C967.49 820.216 965.665 818.27 964.387 815.756C963.108 813.227 962.469 810.251 962.469 806.828C962.469 803.462 963.108 800.507 964.387 797.964C965.679 795.408 967.483 793.419 969.798 791.999C972.114 790.564 974.834 789.847 977.959 789.847C979.976 789.847 981.879 790.173 983.669 790.827C985.473 791.466 987.064 792.46 988.442 793.81C989.834 795.159 990.928 796.878 991.723 798.966C992.519 801.04 992.916 803.511 992.916 806.381V808.746H966.091V803.547H985.523C985.509 802.07 985.189 800.756 984.564 799.605C983.939 798.44 983.066 797.524 981.943 796.857C980.835 796.189 979.543 795.855 978.066 795.855C976.489 795.855 975.104 796.239 973.911 797.006C972.718 797.759 971.787 798.753 971.119 799.989C970.466 801.21 970.132 802.553 970.118 804.016V808.554C970.118 810.457 970.466 812.091 971.162 813.455C971.858 814.804 972.831 815.841 974.081 816.565C975.331 817.276 976.794 817.631 978.47 817.631C979.593 817.631 980.608 817.474 981.517 817.162C982.426 816.835 983.215 816.359 983.882 815.734C984.55 815.109 985.054 814.335 985.395 813.412L992.597 814.222C992.142 816.125 991.276 817.787 989.997 819.207C988.733 820.614 987.114 821.707 985.139 822.489C983.165 823.256 980.906 823.639 978.364 823.639ZM1013.67 835.955C1010.9 835.955 1008.53 835.578 1006.54 834.825C1004.55 834.087 1002.95 833.092 1001.74 831.842C1000.54 830.592 999.697 829.207 999.229 827.688L1006.17 826.004C1006.49 826.643 1006.94 827.276 1007.54 827.901C1008.13 828.54 1008.94 829.065 1009.95 829.477C1010.97 829.903 1012.25 830.116 1013.8 830.116C1015.99 830.116 1017.8 829.584 1019.24 828.518C1020.67 827.467 1021.39 825.734 1021.39 823.32V817.119H1021C1020.61 817.915 1020.02 818.732 1019.26 819.57C1018.5 820.408 1017.5 821.111 1016.25 821.679C1015.02 822.247 1013.46 822.531 1011.59 822.531C1009.07 822.531 1006.79 821.942 1004.75 820.763C1002.72 819.57 1001.1 817.794 999.889 815.436C998.696 813.064 998.099 810.095 998.099 806.53C998.099 802.936 998.696 799.903 999.889 797.432C1001.1 794.946 1002.72 793.064 1004.77 791.786C1006.81 790.493 1009.09 789.847 1011.61 789.847C1013.53 789.847 1015.1 790.173 1016.34 790.827C1017.59 791.466 1018.58 792.24 1019.32 793.149C1020.06 794.044 1020.62 794.889 1021 795.685H1021.43V790.273H1029.04V823.533C1029.04 826.331 1028.37 828.646 1027.03 830.479C1025.7 832.311 1023.87 833.682 1021.56 834.591C1019.24 835.5 1016.61 835.955 1013.67 835.955ZM1013.74 816.48C1015.37 816.48 1016.76 816.082 1017.91 815.287C1019.07 814.491 1019.94 813.348 1020.54 811.857C1021.13 810.365 1021.43 808.575 1021.43 806.487C1021.43 804.428 1021.13 802.624 1020.54 801.075C1019.95 799.527 1019.09 798.327 1017.94 797.474C1016.8 796.608 1015.4 796.175 1013.74 796.175C1012.02 796.175 1010.59 796.622 1009.43 797.517C1008.28 798.412 1007.42 799.641 1006.84 801.203C1006.25 802.751 1005.96 804.513 1005.96 806.487C1005.96 808.49 1006.25 810.244 1006.84 811.75C1007.43 813.241 1008.31 814.406 1009.46 815.244C1010.62 816.068 1012.05 816.48 1013.74 816.48ZM1036.94 823V790.273H1044.65V823H1036.94ZM1040.82 785.628C1039.6 785.628 1038.55 785.223 1037.67 784.413C1036.79 783.589 1036.34 782.602 1036.34 781.452C1036.34 780.287 1036.79 779.3 1037.67 778.49C1038.55 777.666 1039.6 777.254 1040.82 777.254C1042.06 777.254 1043.11 777.666 1043.97 778.49C1044.85 779.3 1045.29 780.287 1045.29 781.452C1045.29 782.602 1044.85 783.589 1043.97 784.413C1043.11 785.223 1042.06 785.628 1040.82 785.628ZM1052.16 823V818.099L1069.03 796.942V796.665H1052.71V790.273H1078.47V795.536L1062.41 816.331V816.608H1079.03V823H1052.16ZM1099.83 823.639C1096.55 823.639 1093.71 822.957 1091.33 821.594C1088.96 820.216 1087.13 818.27 1085.85 815.756C1084.57 813.227 1083.93 810.251 1083.93 806.828C1083.93 803.462 1084.57 800.507 1085.85 797.964C1087.14 795.408 1088.95 793.419 1091.26 791.999C1093.58 790.564 1096.3 789.847 1099.42 789.847C1101.44 789.847 1103.34 790.173 1105.13 790.827C1106.94 791.466 1108.53 792.46 1109.91 793.81C1111.3 795.159 1112.39 796.878 1113.19 798.966C1113.98 801.04 1114.38 803.511 1114.38 806.381V808.746H1087.56V803.547H1106.99C1106.97 802.07 1106.65 800.756 1106.03 799.605C1105.4 798.44 1104.53 797.524 1103.41 796.857C1102.3 796.189 1101.01 795.855 1099.53 795.855C1097.95 795.855 1096.57 796.239 1095.38 797.006C1094.18 797.759 1093.25 798.753 1092.58 799.989C1091.93 801.21 1091.6 802.553 1091.58 804.016V808.554C1091.58 810.457 1091.93 812.091 1092.63 813.455C1093.32 814.804 1094.3 815.841 1095.55 816.565C1096.8 817.276 1098.26 817.631 1099.94 817.631C1101.06 817.631 1102.07 817.474 1102.98 817.162C1103.89 816.835 1104.68 816.359 1105.35 815.734C1106.01 815.109 1106.52 814.335 1106.86 813.412L1114.06 814.222C1113.61 816.125 1112.74 817.787 1111.46 819.207C1110.2 820.614 1108.58 821.707 1106.6 822.489C1104.63 823.256 1102.37 823.639 1099.83 823.639ZM894.532 896.639C891.549 896.639 888.985 896.099 886.84 895.02C884.695 893.94 883.041 892.484 881.876 890.652C880.725 888.805 880.15 886.724 880.15 884.409C880.15 882.662 880.505 881.114 881.215 879.764C881.94 878.415 882.934 877.165 884.198 876.014C885.477 874.864 886.954 873.72 888.63 872.584L896.365 867.321C897.501 866.582 898.36 865.801 898.943 864.977C899.539 864.153 899.838 863.187 899.838 862.08C899.838 861.142 899.44 860.254 898.644 859.416C897.863 858.578 896.784 858.159 895.406 858.159C894.482 858.159 893.666 858.379 892.955 858.82C892.259 859.246 891.713 859.807 891.315 860.503C890.931 861.199 890.74 861.938 890.74 862.719C890.74 863.67 891.002 864.636 891.528 865.616C892.068 866.597 892.764 867.612 893.616 868.663C894.482 869.714 895.406 870.83 896.386 872.009L916.862 896H908.509L891.507 876.526C890.242 875.048 889.021 873.592 887.842 872.158C886.677 870.723 885.718 869.232 884.965 867.683C884.227 866.121 883.857 864.43 883.857 862.612C883.857 860.553 884.333 858.713 885.285 857.094C886.237 855.46 887.565 854.175 889.269 853.237C890.988 852.3 892.998 851.831 895.299 851.831C897.6 851.831 899.575 852.286 901.222 853.195C902.87 854.104 904.142 855.311 905.036 856.817C905.931 858.322 906.379 859.963 906.379 861.739C906.379 863.798 905.867 865.645 904.845 867.278C903.822 868.898 902.401 870.368 900.583 871.689L891.762 878.145C890.313 879.196 889.276 880.261 888.651 881.341C888.026 882.406 887.714 883.315 887.714 884.068C887.714 885.219 888.005 886.263 888.588 887.2C889.17 888.138 889.987 888.891 891.038 889.459C892.103 890.013 893.346 890.29 894.767 890.29C896.329 890.29 897.87 889.942 899.39 889.246C900.91 888.536 902.295 887.527 903.545 886.22C904.795 884.913 905.789 883.351 906.528 881.533C907.267 879.7 907.636 877.669 907.636 875.439H914.262C914.262 878.195 913.957 880.595 913.346 882.641C912.735 884.672 911.947 886.391 910.981 887.797C910.015 889.189 908.992 890.304 907.913 891.142C907.572 891.384 907.245 891.625 906.933 891.866C906.62 892.108 906.294 892.349 905.953 892.591C904.419 893.983 902.622 895.006 900.562 895.659C898.517 896.312 896.507 896.639 894.532 896.639ZM936.501 896V852.364H952.865C956.217 852.364 959.03 852.989 961.302 854.239C963.589 855.489 965.315 857.207 966.48 859.395C967.659 861.568 968.248 864.04 968.248 866.81C968.248 869.608 967.659 872.094 966.48 874.267C965.301 876.44 963.561 878.152 961.26 879.402C958.959 880.638 956.125 881.256 952.758 881.256H941.913V874.757H951.693C953.653 874.757 955.258 874.416 956.508 873.734C957.758 873.053 958.682 872.115 959.278 870.922C959.889 869.729 960.194 868.358 960.194 866.81C960.194 865.261 959.889 863.898 959.278 862.719C958.682 861.54 957.751 860.624 956.487 859.97C955.237 859.303 953.625 858.969 951.65 858.969H944.406V896H936.501ZM982.487 852.364V896H974.774V852.364H982.487ZM999.836 896.661C997.762 896.661 995.894 896.291 994.232 895.553C992.584 894.8 991.278 893.692 990.312 892.229C989.36 890.766 988.884 888.962 988.884 886.817C988.884 884.97 989.225 883.443 989.907 882.236C990.589 881.028 991.519 880.062 992.698 879.338C993.877 878.614 995.205 878.067 996.682 877.697C998.174 877.314 999.715 877.037 1001.31 876.866C1003.22 876.668 1004.78 876.49 1005.97 876.334C1007.17 876.163 1008.03 875.908 1008.57 875.567C1009.13 875.212 1009.4 874.665 1009.4 873.926V873.798C1009.4 872.193 1008.93 870.95 1007.97 870.07C1007.02 869.189 1005.65 868.749 1003.86 868.749C1001.97 868.749 1000.47 869.161 999.367 869.984C998.273 870.808 997.535 871.781 997.151 872.903L989.949 871.881C990.518 869.892 991.455 868.23 992.762 866.895C994.069 865.545 995.667 864.537 997.556 863.869C999.445 863.188 1001.53 862.847 1003.82 862.847C1005.4 862.847 1006.97 863.031 1008.53 863.401C1010.09 863.77 1011.52 864.381 1012.81 865.233C1014.1 866.071 1015.14 867.214 1015.92 868.663C1016.72 870.112 1017.12 871.923 1017.12 874.097V896H1009.7V891.504H1009.45C1008.98 892.413 1008.32 893.266 1007.46 894.061C1006.63 894.842 1005.57 895.474 1004.29 895.957C1003.02 896.426 1001.54 896.661 999.836 896.661ZM1001.84 890.993C1003.39 890.993 1004.73 890.687 1005.87 890.077C1007 889.452 1007.88 888.628 1008.49 887.605C1009.11 886.582 1009.42 885.467 1009.42 884.26V880.403C1009.18 880.602 1008.77 880.787 1008.19 880.957C1007.62 881.128 1006.98 881.277 1006.27 881.405C1005.56 881.533 1004.86 881.646 1004.16 881.746C1003.47 881.845 1002.86 881.93 1002.35 882.001C1001.2 882.158 1000.17 882.413 999.26 882.768C998.351 883.124 997.634 883.621 997.108 884.26C996.583 884.885 996.32 885.695 996.32 886.689C996.32 888.109 996.839 889.182 997.876 889.906C998.912 890.631 1000.23 890.993 1001.84 890.993ZM1032.58 876.824V896H1024.87V863.273H1032.24V868.834H1032.63C1033.38 867.001 1034.58 865.545 1036.23 864.466C1037.89 863.386 1039.94 862.847 1042.39 862.847C1044.64 862.847 1046.61 863.33 1048.29 864.295C1049.98 865.261 1051.28 866.661 1052.21 868.493C1053.15 870.325 1053.61 872.548 1053.59 875.162V896H1045.88V876.355C1045.88 874.168 1045.31 872.456 1044.18 871.22C1043.05 869.984 1041.5 869.366 1039.51 869.366C1038.16 869.366 1036.96 869.665 1035.91 870.261C1034.87 870.844 1034.05 871.689 1033.46 872.797C1032.88 873.905 1032.58 875.247 1032.58 876.824Z" fill="#395577"/>
<path d="M940.823 573.474C940.878 575.722 941.597 578.933 942.999 581.58C944.402 584.229 946.483 586.302 949.258 586.302H985.745C988.175 586.302 990.256 584.23 991.746 581.579C993.235 578.931 994.124 575.721 994.179 573.474C994.407 564.292 996.614 557.764 999.797 552.479C1002.72 547.623 1006.47 543.819 1010.26 539.973C1010.59 539.634 1010.93 539.296 1011.26 538.956C1015.39 534.754 1019.48 530.387 1022.54 524.445C1025.61 518.503 1027.64 510.983 1027.64 500.474C1027.64 467.26 1000.71 440.335 967.501 440.335C934.283 440.335 907.361 467.26 907.361 500.474C907.361 510.983 909.395 518.503 912.458 524.445C915.521 530.387 919.615 534.754 923.74 538.956C924.074 539.296 924.408 539.634 924.741 539.973C928.531 543.819 932.28 547.623 935.206 552.479C938.389 557.764 940.596 564.292 940.823 573.474Z" fill="url(#paint3_linear_1064_38)" stroke="#CBDDF3" stroke-width="0.0765106"/>
<path d="M945.523 600.738H989.481H945.523Z" fill="url(#paint4_linear_1064_38)"/>
<path d="M945.523 600.738H989.481" stroke="#73A6E4" stroke-width="7.34209" stroke-miterlimit="2.6131" stroke-linecap="round" stroke-linejoin="round"/>
<path d="M945.522 612.772H989.48H945.522Z" fill="url(#paint5_linear_1064_38)"/>
<path d="M945.522 612.772H989.48" stroke="#73A6E4" stroke-width="7.34209" stroke-miterlimit="2.6131" stroke-linecap="round" stroke-linejoin="round"/>
<path d="M950.787 624.806H984.224H950.787Z" fill="url(#paint6_linear_1064_38)"/>
<path d="M950.787 624.806H984.224" stroke="#73A6E4" stroke-width="7.34211" stroke-miterlimit="2.6131" stroke-linecap="round" stroke-linejoin="round"/>
<path d="M967.503 431.957V411V431.957Z" fill="url(#paint7_linear_1064_38)"/>
<path d="M967.503 431.957V411" stroke="#73A6E4" stroke-width="7.3421" stroke-miterlimit="2.6131" stroke-linecap="round" stroke-linejoin="round"/>
<path d="M1003.59 440.119L1014.29 421.582L1003.59 440.119Z" fill="url(#paint8_linear_1064_38)"/>
<path d="M1003.59 440.119L1014.29 421.582" stroke="#73A6E4" stroke-width="7.34209" stroke-miterlimit="2.6131" stroke-linecap="round" stroke-linejoin="round"/>
<path d="M1031.32 465.782L1050.24 454.855L1031.32 465.782Z" fill="url(#paint9_linear_1064_38)"/>
<path d="M1031.32 465.782L1050.24 454.855" stroke="#73A6E4" stroke-width="7.34209" stroke-miterlimit="2.6131" stroke-linecap="round" stroke-linejoin="round"/>
<path d="M1042.7 502.628H1065H1042.7Z" fill="url(#paint10_linear_1064_38)"/>
<path d="M1042.7 502.628H1065" stroke="#73A6E4" stroke-width="7.34209" stroke-miterlimit="2.6131" stroke-linecap="round" stroke-linejoin="round"/>
<path d="M1033.93 540.977L1053.63 552.351L1033.93 540.977Z" fill="url(#paint11_linear_1064_38)"/>
<path d="M1033.93 540.977L1053.63 552.351" stroke="#73A6E4" stroke-width="7.34208" stroke-miterlimit="2.6131" stroke-linecap="round" stroke-linejoin="round"/>
<path d="M931.409 440.119L920.705 421.581L931.409 440.119Z" fill="url(#paint12_linear_1064_38)"/>
<path d="M931.409 440.119L920.705 421.581" stroke="#73A6E4" stroke-width="7.34209" stroke-miterlimit="2.6131" stroke-linecap="round" stroke-linejoin="round"/>
<path d="M903.685 465.781L884.76 454.854L903.685 465.781Z" fill="url(#paint13_linear_1064_38)"/>
<path d="M903.685 465.781L884.76 454.854" stroke="#73A6E4" stroke-width="7.34207" stroke-miterlimit="2.6131" stroke-linecap="round" stroke-linejoin="round"/>
<path d="M892.303 502.628H870H892.303Z" fill="url(#paint14_linear_1064_38)"/>
<path d="M892.303 502.628H870" stroke="#73A6E4" stroke-width="7.34207" stroke-miterlimit="2.6131" stroke-linecap="round" stroke-linejoin="round"/>
<path d="M901.071 540.978L881.37 552.352L901.071 540.978Z" fill="url(#paint15_linear_1064_38)"/>
<path d="M901.071 540.978L881.37 552.352" stroke="#73A6E4" stroke-width="7.34211" stroke-miterlimit="2.6131" stroke-linecap="round" stroke-linejoin="round"/>
<rect x="1381" y="83" width="550" height="632" rx="40" fill="#FAF9F6" stroke="url(#paint16_linear_1064_38)" stroke-width="20"/>
<path d="M1602.29 436.727C1602.08 434.928 1601.21 433.531 1599.7 432.537C1598.18 431.543 1596.32 431.045 1594.12 431.045C1592.51 431.045 1591.1 431.306 1589.9 431.827C1588.7 432.348 1587.77 433.064 1587.09 433.975C1586.43 434.887 1586.1 435.922 1586.1 437.082C1586.1 438.053 1586.33 438.888 1586.79 439.586C1587.26 440.272 1587.87 440.847 1588.6 441.308C1589.33 441.758 1590.1 442.131 1590.91 442.427C1591.71 442.711 1592.45 442.942 1593.13 443.119L1596.82 444.114C1597.77 444.362 1598.82 444.705 1599.98 445.143C1601.15 445.581 1602.27 446.179 1603.34 446.937C1604.41 447.683 1605.3 448.641 1606 449.813C1606.7 450.985 1607.05 452.423 1607.05 454.128C1607.05 456.093 1606.53 457.868 1605.5 459.455C1604.49 461.041 1602.99 462.301 1601.03 463.237C1599.08 464.172 1596.7 464.639 1593.91 464.639C1591.3 464.639 1589.05 464.219 1587.14 463.379C1585.25 462.538 1583.76 461.366 1582.67 459.863C1581.59 458.36 1580.98 456.614 1580.84 454.625H1585.39C1585.5 455.998 1585.97 457.134 1586.77 458.034C1587.59 458.922 1588.62 459.585 1589.86 460.023C1591.12 460.449 1592.46 460.662 1593.91 460.662C1595.59 460.662 1597.1 460.39 1598.44 459.845C1599.77 459.289 1600.83 458.519 1601.62 457.537C1602.4 456.543 1602.79 455.383 1602.79 454.057C1602.79 452.849 1602.45 451.867 1601.77 451.109C1601.1 450.352 1600.21 449.736 1599.11 449.263C1598.01 448.789 1596.82 448.375 1595.54 448.02L1591.07 446.741C1588.23 445.925 1585.98 444.759 1584.32 443.244C1582.66 441.728 1581.84 439.746 1581.84 437.295C1581.84 435.259 1582.39 433.484 1583.49 431.969C1584.6 430.442 1586.09 429.258 1587.96 428.418C1589.84 427.565 1591.94 427.139 1594.26 427.139C1596.61 427.139 1598.69 427.559 1600.51 428.4C1602.34 429.228 1603.78 430.365 1604.85 431.809C1605.92 433.253 1606.49 434.893 1606.55 436.727H1602.29ZM1612.3 431.543V427.636H1639.57V431.543H1628.14V464H1623.73V431.543H1612.3ZM1646.37 464V427.636H1668.31V431.543H1650.77V443.83H1667.18V447.736H1650.77V460.094H1668.6V464H1646.37ZM1676.25 464V427.636H1688.54C1691.39 427.636 1693.72 428.151 1695.53 429.181C1697.36 430.199 1698.71 431.578 1699.58 433.318C1700.46 435.058 1700.9 437 1700.9 439.142C1700.9 441.285 1700.46 443.232 1699.58 444.984C1698.72 446.736 1697.38 448.132 1695.57 449.174C1693.76 450.204 1691.44 450.719 1688.61 450.719H1679.8V446.812H1688.47C1690.42 446.812 1691.99 446.475 1693.17 445.8C1694.36 445.126 1695.21 444.214 1695.75 443.066C1696.29 441.906 1696.56 440.598 1696.56 439.142C1696.56 437.686 1696.29 436.384 1695.75 435.236C1695.21 434.088 1694.35 433.188 1693.15 432.537C1691.96 431.874 1690.37 431.543 1688.4 431.543H1680.65V464H1676.25ZM1733.7 464.497C1731.36 464.497 1729.27 464.095 1727.43 463.29C1725.61 462.485 1724.16 461.366 1723.08 459.934C1722.02 458.49 1721.44 456.815 1721.34 454.909H1725.82C1725.91 456.081 1726.31 457.093 1727.02 457.945C1727.73 458.786 1728.66 459.437 1729.81 459.898C1730.96 460.36 1732.23 460.591 1733.63 460.591C1735.19 460.591 1736.58 460.319 1737.78 459.774C1738.99 459.23 1739.94 458.472 1740.62 457.501C1741.31 456.531 1741.65 455.406 1741.65 454.128C1741.65 452.79 1741.32 451.612 1740.66 450.594C1740 449.565 1739.03 448.76 1737.75 448.18C1736.47 447.6 1734.91 447.31 1733.06 447.31H1730.15V443.403H1733.06C1734.5 443.403 1735.77 443.143 1736.86 442.622C1737.96 442.101 1738.82 441.367 1739.43 440.42C1740.06 439.473 1740.38 438.361 1740.38 437.082C1740.38 435.851 1740.1 434.78 1739.56 433.869C1739.01 432.957 1738.25 432.247 1737.25 431.738C1736.27 431.229 1735.11 430.974 1733.77 430.974C1732.52 430.974 1731.33 431.205 1730.22 431.667C1729.12 432.117 1728.22 432.774 1727.52 433.638C1726.82 434.49 1726.44 435.52 1726.38 436.727H1722.12C1722.19 434.821 1722.77 433.152 1723.85 431.72C1724.92 430.276 1726.33 429.152 1728.07 428.347C1729.82 427.542 1731.75 427.139 1733.84 427.139C1736.09 427.139 1738.02 427.595 1739.63 428.506C1741.24 429.406 1742.48 430.596 1743.34 432.075C1744.21 433.555 1744.64 435.153 1744.64 436.869C1744.64 438.917 1744.1 440.663 1743.02 442.107C1741.96 443.551 1740.51 444.552 1738.67 445.108V445.392C1740.97 445.771 1742.76 446.747 1744.05 448.322C1745.34 449.884 1745.99 451.82 1745.99 454.128C1745.99 456.105 1745.45 457.88 1744.37 459.455C1743.31 461.017 1741.85 462.248 1740 463.148C1738.16 464.047 1736.06 464.497 1733.7 464.497Z" fill="#9B9DA2"/>
<path d="M1514.31 515.364V559H1506.41V515.364H1514.31ZM1522.53 559V526.273H1529.9V531.834H1530.29C1530.97 529.959 1532.1 528.496 1533.67 527.445C1535.25 526.379 1537.13 525.847 1539.32 525.847C1541.54 525.847 1543.41 526.386 1544.92 527.466C1546.46 528.531 1547.54 529.987 1548.16 531.834H1548.5C1549.23 530.016 1550.45 528.567 1552.17 527.487C1553.9 526.393 1555.95 525.847 1558.33 525.847C1561.34 525.847 1563.8 526.798 1565.7 528.702C1567.6 530.605 1568.55 533.382 1568.55 537.033V559H1560.82V538.226C1560.82 536.195 1560.28 534.71 1559.2 533.773C1558.12 532.821 1556.8 532.345 1555.24 532.345C1553.38 532.345 1551.92 532.928 1550.87 534.092C1549.83 535.243 1549.31 536.741 1549.31 538.588V559H1541.75V537.906C1541.75 536.216 1541.24 534.866 1540.22 533.858C1539.21 532.849 1537.89 532.345 1536.25 532.345C1535.15 532.345 1534.14 532.629 1533.23 533.197C1532.32 533.751 1531.59 534.54 1531.05 535.562C1530.51 536.571 1530.24 537.75 1530.24 539.099V559H1522.53ZM1576.38 571.273V526.273H1583.96V531.685H1584.41C1584.81 530.889 1585.37 530.044 1586.09 529.149C1586.82 528.24 1587.8 527.466 1589.04 526.827C1590.27 526.173 1591.85 525.847 1593.77 525.847C1596.29 525.847 1598.57 526.493 1600.6 527.786C1602.65 529.064 1604.27 530.96 1605.46 533.474C1606.67 535.974 1607.27 539.043 1607.27 542.679C1607.27 546.273 1606.68 549.327 1605.51 551.841C1604.33 554.355 1602.72 556.273 1600.69 557.594C1598.66 558.915 1596.36 559.575 1593.79 559.575C1591.91 559.575 1590.36 559.263 1589.12 558.638C1587.88 558.013 1586.89 557.26 1586.14 556.379C1585.4 555.484 1584.82 554.639 1584.41 553.844H1584.09V571.273H1576.38ZM1583.94 542.636C1583.94 544.753 1584.24 546.607 1584.84 548.197C1585.45 549.788 1586.32 551.031 1587.46 551.926C1588.61 552.807 1590 553.247 1591.63 553.247C1593.34 553.247 1594.77 552.793 1595.92 551.884C1597.07 550.96 1597.93 549.703 1598.52 548.112C1599.11 546.507 1599.41 544.682 1599.41 542.636C1599.41 540.605 1599.12 538.801 1598.54 537.224C1597.96 535.648 1597.09 534.412 1595.94 533.517C1594.79 532.622 1593.35 532.175 1591.63 532.175C1589.99 532.175 1588.59 532.608 1587.44 533.474C1586.29 534.341 1585.41 535.555 1584.82 537.118C1584.23 538.68 1583.94 540.52 1583.94 542.636ZM1621.59 515.364V559H1613.88V515.364H1621.59ZM1644.01 559.639C1640.73 559.639 1637.9 558.957 1635.51 557.594C1633.14 556.216 1631.31 554.27 1630.03 551.756C1628.76 549.227 1628.12 546.251 1628.12 542.828C1628.12 539.462 1628.76 536.507 1630.03 533.964C1631.33 531.408 1633.13 529.419 1635.45 527.999C1637.76 526.564 1640.48 525.847 1643.61 525.847C1645.62 525.847 1647.53 526.173 1649.32 526.827C1651.12 527.466 1652.71 528.46 1654.09 529.81C1655.48 531.159 1656.58 532.878 1657.37 534.966C1658.17 537.04 1658.56 539.511 1658.56 542.381V544.746H1631.74V539.547H1651.17C1651.16 538.07 1650.84 536.756 1650.21 535.605C1649.59 534.44 1648.71 533.524 1647.59 532.857C1646.48 532.189 1645.19 531.855 1643.71 531.855C1642.14 531.855 1640.75 532.239 1639.56 533.006C1638.37 533.759 1637.44 534.753 1636.77 535.989C1636.11 537.21 1635.78 538.553 1635.77 540.016V544.554C1635.77 546.457 1636.11 548.091 1636.81 549.455C1637.51 550.804 1638.48 551.841 1639.73 552.565C1640.98 553.276 1642.44 553.631 1644.12 553.631C1645.24 553.631 1646.26 553.474 1647.17 553.162C1648.07 552.835 1648.86 552.359 1649.53 551.734C1650.2 551.109 1650.7 550.335 1651.04 549.412L1658.25 550.222C1657.79 552.125 1656.92 553.787 1655.65 555.207C1654.38 556.614 1652.76 557.707 1650.79 558.489C1648.81 559.256 1646.55 559.639 1644.01 559.639ZM1665.09 559V526.273H1672.46V531.834H1672.85C1673.53 529.959 1674.66 528.496 1676.23 527.445C1677.81 526.379 1679.69 525.847 1681.88 525.847C1684.1 525.847 1685.96 526.386 1687.48 527.466C1689.02 528.531 1690.1 529.987 1690.72 531.834H1691.06C1691.79 530.016 1693.01 528.567 1694.73 527.487C1696.46 526.393 1698.51 525.847 1700.89 525.847C1703.9 525.847 1706.35 526.798 1708.26 528.702C1710.16 530.605 1711.11 533.382 1711.11 537.033V559H1703.38V538.226C1703.38 536.195 1702.84 534.71 1701.76 533.773C1700.68 532.821 1699.36 532.345 1697.8 532.345C1695.94 532.345 1694.48 532.928 1693.43 534.092C1692.39 535.243 1691.87 536.741 1691.87 538.588V559H1684.31V537.906C1684.31 536.216 1683.8 534.866 1682.77 533.858C1681.77 532.849 1680.45 532.345 1678.81 532.345C1677.7 532.345 1676.7 532.629 1675.79 533.197C1674.88 533.751 1674.15 534.54 1673.61 535.562C1673.07 536.571 1672.8 537.75 1672.8 539.099V559H1665.09ZM1733.43 559.639C1730.15 559.639 1727.31 558.957 1724.92 557.594C1722.55 556.216 1720.73 554.27 1719.45 551.756C1718.17 549.227 1717.53 546.251 1717.53 542.828C1717.53 539.462 1718.17 536.507 1719.45 533.964C1720.74 531.408 1722.55 529.419 1724.86 527.999C1727.18 526.564 1729.9 525.847 1733.02 525.847C1735.04 525.847 1736.94 526.173 1738.73 526.827C1740.54 527.466 1742.13 528.46 1743.5 529.81C1744.9 531.159 1745.99 532.878 1746.79 534.966C1747.58 537.04 1747.98 539.511 1747.98 542.381V544.746H1721.15V539.547H1740.59C1740.57 538.07 1740.25 536.756 1739.63 535.605C1739 534.44 1738.13 533.524 1737.01 532.857C1735.9 532.189 1734.61 531.855 1733.13 531.855C1731.55 531.855 1730.17 532.239 1728.97 533.006C1727.78 533.759 1726.85 534.753 1726.18 535.989C1725.53 537.21 1725.19 538.553 1725.18 540.016V544.554C1725.18 546.457 1725.53 548.091 1726.22 549.455C1726.92 550.804 1727.89 551.841 1729.14 552.565C1730.39 553.276 1731.86 553.631 1733.53 553.631C1734.66 553.631 1735.67 553.474 1736.58 553.162C1737.49 552.835 1738.28 552.359 1738.94 551.734C1739.61 551.109 1740.12 550.335 1740.46 549.412L1747.66 550.222C1747.2 552.125 1746.34 553.787 1745.06 555.207C1743.8 556.614 1742.18 557.707 1740.2 558.489C1738.23 559.256 1735.97 559.639 1733.43 559.639ZM1762.22 539.824V559H1754.5V526.273H1761.88V531.834H1762.26C1763.01 530.001 1764.21 528.545 1765.86 527.466C1767.52 526.386 1769.58 525.847 1772.02 525.847C1774.28 525.847 1776.24 526.33 1777.92 527.295C1779.61 528.261 1780.92 529.661 1781.84 531.493C1782.78 533.325 1783.24 535.548 1783.23 538.162V559H1775.51V539.355C1775.51 537.168 1774.94 535.456 1773.81 534.22C1772.69 532.984 1771.13 532.366 1769.14 532.366C1767.79 532.366 1766.59 532.665 1765.54 533.261C1764.5 533.844 1763.69 534.689 1763.09 535.797C1762.51 536.905 1762.22 538.247 1762.22 539.824ZM1807.41 526.273V532.239H1788.59V526.273H1807.41ZM1793.24 518.432H1800.95V549.156C1800.95 550.193 1801.11 550.989 1801.42 551.543C1801.75 552.082 1802.17 552.452 1802.7 552.651C1803.23 552.849 1803.81 552.949 1804.45 552.949C1804.93 552.949 1805.37 552.913 1805.77 552.842C1806.18 552.771 1806.49 552.707 1806.71 552.651L1808.01 558.68C1807.59 558.822 1807 558.979 1806.24 559.149C1805.48 559.32 1804.56 559.419 1803.47 559.447C1801.54 559.504 1799.8 559.213 1798.25 558.574C1796.7 557.92 1795.47 556.912 1794.56 555.548C1793.67 554.185 1793.23 552.48 1793.24 550.435V518.432ZM1515.56 632.639C1512.58 632.639 1510.01 632.099 1507.87 631.02C1505.72 629.94 1504.07 628.484 1502.91 626.652C1501.75 624.805 1501.18 622.724 1501.18 620.409C1501.18 618.662 1501.53 617.114 1502.24 615.764C1502.97 614.415 1503.96 613.165 1505.23 612.014C1506.51 610.864 1507.98 609.72 1509.66 608.584L1517.39 603.321C1518.53 602.582 1519.39 601.801 1519.97 600.977C1520.57 600.153 1520.87 599.187 1520.87 598.08C1520.87 597.142 1520.47 596.254 1519.67 595.416C1518.89 594.578 1517.81 594.159 1516.44 594.159C1515.51 594.159 1514.69 594.379 1513.98 594.82C1513.29 595.246 1512.74 595.807 1512.34 596.503C1511.96 597.199 1511.77 597.938 1511.77 598.719C1511.77 599.67 1512.03 600.636 1512.56 601.616C1513.1 602.597 1513.79 603.612 1514.65 604.663C1515.51 605.714 1516.44 606.83 1517.42 608.009L1537.89 632H1529.54L1512.54 612.526C1511.27 611.048 1510.05 609.592 1508.87 608.158C1507.71 606.723 1506.75 605.232 1505.99 603.683C1505.26 602.121 1504.89 600.43 1504.89 598.612C1504.89 596.553 1505.36 594.713 1506.31 593.094C1507.27 591.46 1508.59 590.175 1510.3 589.237C1512.02 588.3 1514.03 587.831 1516.33 587.831C1518.63 587.831 1520.6 588.286 1522.25 589.195C1523.9 590.104 1525.17 591.311 1526.07 592.817C1526.96 594.322 1527.41 595.963 1527.41 597.739C1527.41 599.798 1526.9 601.645 1525.87 603.278C1524.85 604.898 1523.43 606.368 1521.61 607.689L1512.79 614.145C1511.34 615.196 1510.31 616.261 1509.68 617.341C1509.06 618.406 1508.74 619.315 1508.74 620.068C1508.74 621.219 1509.03 622.263 1509.62 623.2C1510.2 624.138 1511.02 624.891 1512.07 625.459C1513.13 626.013 1514.38 626.29 1515.8 626.29C1517.36 626.29 1518.9 625.942 1520.42 625.246C1521.94 624.536 1523.32 623.527 1524.57 622.22C1525.82 620.913 1526.82 619.351 1527.56 617.533C1528.3 615.7 1528.67 613.669 1528.67 611.439H1535.29C1535.29 614.195 1534.99 616.595 1534.38 618.641C1533.76 620.672 1532.98 622.391 1532.01 623.797C1531.04 625.189 1530.02 626.304 1528.94 627.142C1528.6 627.384 1528.27 627.625 1527.96 627.866C1527.65 628.108 1527.32 628.349 1526.98 628.591C1525.45 629.983 1523.65 631.006 1521.59 631.659C1519.55 632.312 1517.54 632.639 1515.56 632.639ZM1596.52 610.182C1596.52 614.884 1595.64 618.911 1593.88 622.263C1592.13 625.601 1589.75 628.158 1586.72 629.933C1583.71 631.709 1580.29 632.597 1576.47 632.597C1572.65 632.597 1569.23 631.709 1566.2 629.933C1563.19 628.143 1560.8 625.58 1559.04 622.241C1557.3 618.889 1556.42 614.869 1556.42 610.182C1556.42 605.48 1557.3 601.46 1559.04 598.122C1560.8 594.77 1563.19 592.206 1566.2 590.43C1569.23 588.655 1572.65 587.767 1576.47 587.767C1580.29 587.767 1583.71 588.655 1586.72 590.43C1589.75 592.206 1592.13 594.77 1593.88 598.122C1595.64 601.46 1596.52 605.48 1596.52 610.182ZM1588.57 610.182C1588.57 606.872 1588.06 604.081 1587.02 601.808C1586 599.521 1584.58 597.795 1582.76 596.631C1580.94 595.452 1578.84 594.862 1576.47 594.862C1574.1 594.862 1572 595.452 1570.19 596.631C1568.37 597.795 1566.94 599.521 1565.9 601.808C1564.88 604.081 1564.37 606.872 1564.37 610.182C1564.37 613.491 1564.88 616.29 1565.9 618.577C1566.94 620.849 1568.37 622.575 1570.19 623.754C1572 624.919 1574.1 625.501 1576.47 625.501C1578.84 625.501 1580.94 624.919 1582.76 623.754C1584.58 622.575 1586 620.849 1587.02 618.577C1588.06 616.29 1588.57 613.491 1588.57 610.182ZM1603.65 644.273V599.273H1611.24V604.685H1611.69C1612.08 603.889 1612.65 603.044 1613.37 602.149C1614.09 601.24 1615.07 600.466 1616.31 599.827C1617.55 599.173 1619.12 598.847 1621.04 598.847C1623.57 598.847 1625.85 599.493 1627.88 600.786C1629.93 602.064 1631.55 603.96 1632.74 606.474C1633.95 608.974 1634.55 612.043 1634.55 615.679C1634.55 619.273 1633.96 622.327 1632.78 624.841C1631.6 627.355 1630 629.273 1627.97 630.594C1625.93 631.915 1623.63 632.575 1621.06 632.575C1619.19 632.575 1617.63 632.263 1616.4 631.638C1615.16 631.013 1614.17 630.26 1613.41 629.379C1612.67 628.484 1612.1 627.639 1611.69 626.844H1611.37V644.273H1603.65ZM1611.22 615.636C1611.22 617.753 1611.52 619.607 1612.11 621.197C1612.72 622.788 1613.6 624.031 1614.73 624.926C1615.88 625.807 1617.28 626.247 1618.91 626.247C1620.61 626.247 1622.04 625.793 1623.19 624.884C1624.34 623.96 1625.21 622.703 1625.79 621.112C1626.39 619.507 1626.69 617.682 1626.69 615.636C1626.69 613.605 1626.4 611.801 1625.81 610.224C1625.23 608.648 1624.36 607.412 1623.21 606.517C1622.06 605.622 1620.63 605.175 1618.91 605.175C1617.26 605.175 1615.86 605.608 1614.71 606.474C1613.56 607.341 1612.69 608.555 1612.09 610.118C1611.51 611.68 1611.22 613.52 1611.22 615.636ZM1657.5 599.273V605.239H1638.68V599.273H1657.5ZM1643.33 591.432H1651.04V622.156C1651.04 623.193 1651.2 623.989 1651.51 624.543C1651.84 625.082 1652.26 625.452 1652.79 625.651C1653.31 625.849 1653.9 625.949 1654.54 625.949C1655.02 625.949 1655.46 625.913 1655.86 625.842C1656.27 625.771 1656.58 625.707 1656.79 625.651L1658.09 631.68C1657.68 631.822 1657.09 631.979 1656.32 632.149C1655.57 632.32 1654.65 632.419 1653.56 632.447C1651.62 632.504 1649.88 632.213 1648.33 631.574C1646.79 630.92 1645.56 629.912 1644.65 628.548C1643.75 627.185 1643.31 625.48 1643.33 623.435V591.432ZM1663.95 632V599.273H1671.66V632H1663.95ZM1667.83 594.628C1666.6 594.628 1665.55 594.223 1664.67 593.413C1663.79 592.589 1663.35 591.602 1663.35 590.452C1663.35 589.287 1663.79 588.3 1664.67 587.49C1665.55 586.666 1666.6 586.254 1667.83 586.254C1669.06 586.254 1670.11 586.666 1670.98 587.49C1671.86 588.3 1672.3 589.287 1672.3 590.452C1672.3 591.602 1671.86 592.589 1670.98 593.413C1670.11 594.223 1669.06 594.628 1667.83 594.628ZM1679.59 632V599.273H1686.96V604.834H1687.35C1688.03 602.959 1689.16 601.496 1690.74 600.445C1692.31 599.379 1694.19 598.847 1696.38 598.847C1698.6 598.847 1700.47 599.386 1701.99 600.466C1703.52 601.531 1704.6 602.987 1705.22 604.834H1705.56C1706.29 603.016 1707.51 601.567 1709.23 600.487C1710.96 599.393 1713.02 598.847 1715.39 598.847C1718.4 598.847 1720.86 599.798 1722.76 601.702C1724.66 603.605 1725.61 606.382 1725.61 610.033V632H1717.88V611.226C1717.88 609.195 1717.34 607.71 1716.26 606.773C1715.18 605.821 1713.86 605.345 1712.3 605.345C1710.44 605.345 1708.98 605.928 1707.93 607.092C1706.89 608.243 1706.37 609.741 1706.37 611.588V632H1698.81V610.906C1698.81 609.216 1698.3 607.866 1697.28 606.858C1696.27 605.849 1694.95 605.345 1693.31 605.345C1692.21 605.345 1691.2 605.629 1690.29 606.197C1689.38 606.751 1688.65 607.54 1688.11 608.562C1687.57 609.571 1687.31 610.75 1687.31 612.099V632H1679.59ZM1733.44 632V599.273H1741.15V632H1733.44ZM1737.32 594.628C1736.1 594.628 1735.04 594.223 1734.16 593.413C1733.28 592.589 1732.84 591.602 1732.84 590.452C1732.84 589.287 1733.28 588.3 1734.16 587.49C1735.04 586.666 1736.1 586.254 1737.32 586.254C1738.55 586.254 1739.6 586.666 1740.47 587.49C1741.35 588.3 1741.79 589.287 1741.79 590.452C1741.79 591.602 1741.35 592.589 1740.47 593.413C1739.6 594.223 1738.55 594.628 1737.32 594.628ZM1748.66 632V627.099L1765.53 605.942V605.665H1749.21V599.273H1774.97V604.536L1758.91 625.331V625.608H1775.53V632H1748.66ZM1796.33 632.639C1793.05 632.639 1790.21 631.957 1787.83 630.594C1785.45 629.216 1783.63 627.27 1782.35 624.756C1781.07 622.227 1780.43 619.251 1780.43 615.828C1780.43 612.462 1781.07 609.507 1782.35 606.964C1783.64 604.408 1785.45 602.419 1787.76 600.999C1790.08 599.564 1792.8 598.847 1795.92 598.847C1797.94 598.847 1799.84 599.173 1801.63 599.827C1803.44 600.466 1805.03 601.46 1806.4 602.81C1807.8 604.159 1808.89 605.878 1809.69 607.966C1810.48 610.04 1810.88 612.511 1810.88 615.381V617.746H1784.05V612.547H1803.49C1803.47 611.07 1803.15 609.756 1802.53 608.605C1801.9 607.44 1801.03 606.524 1799.91 605.857C1798.8 605.189 1797.51 604.855 1796.03 604.855C1794.45 604.855 1793.07 605.239 1791.87 606.006C1790.68 606.759 1789.75 607.753 1789.08 608.989C1788.43 610.21 1788.1 611.553 1788.08 613.016V617.554C1788.08 619.457 1788.43 621.091 1789.12 622.455C1789.82 623.804 1790.79 624.841 1792.04 625.565C1793.29 626.276 1794.76 626.631 1796.43 626.631C1797.56 626.631 1798.57 626.474 1799.48 626.162C1800.39 625.835 1801.18 625.359 1801.85 624.734C1802.51 624.109 1803.02 623.335 1803.36 622.412L1810.56 623.222C1810.11 625.125 1809.24 626.787 1807.96 628.207C1806.7 629.614 1805.08 630.707 1803.1 631.489C1801.13 632.256 1798.87 632.639 1796.33 632.639Z" fill="#395577"/>
<mask id="mask0_1064_38" style="mask-type:luminance" maskUnits="userSpaceOnUse" x="1546" y="160" width="221" height="220">
<path fill-rule="evenodd" clip-rule="evenodd" d="M1713.21 352.307C1699.34 352.307 1688.11 341.07 1688.11 327.206C1688.11 313.343 1699.34 302.105 1713.21 302.105C1727.07 302.105 1738.31 313.343 1738.31 327.206C1738.31 341.07 1727.07 352.307 1713.21 352.307ZM1764.68 336.47L1754.76 330.758C1753.9 330.266 1753.4 329.341 1753.44 328.358C1753.49 326.928 1753.47 325.492 1753.37 324.049C1753.3 323.079 1753.76 322.141 1754.58 321.617L1764.24 315.419C1765.35 314.707 1765.77 313.297 1765.23 312.101L1759.25 298.845C1758.72 297.661 1757.4 297.033 1756.15 297.376L1745.27 300.3C1744.32 300.553 1743.31 300.262 1742.64 299.543C1741.62 298.457 1740.55 297.434 1739.42 296.477C1738.67 295.836 1738.33 294.847 1738.53 293.883L1740.95 282.788C1741.23 281.507 1740.53 280.207 1739.3 279.741L1725.71 274.591C1724.49 274.132 1723.12 274.617 1722.47 275.749L1716.78 285.628C1716.3 286.475 1715.39 286.98 1714.41 286.954C1712.98 286.922 1711.55 286.967 1710.11 287.09C1709.13 287.174 1708.17 286.715 1707.64 285.88L1701.42 276.183C1700.7 275.07 1699.29 274.649 1698.09 275.186L1684.84 281.158C1683.65 281.695 1683.03 283.008 1683.37 284.263L1686.42 295.597C1686.68 296.522 1686.41 297.519 1685.72 298.185C1684.75 299.116 1683.84 300.1 1682.99 301.116C1682.36 301.866 1681.36 302.196 1680.41 301.989L1668.79 299.453C1667.51 299.175 1666.21 299.874 1665.75 301.103L1660.6 314.701C1660.14 315.917 1660.62 317.289 1661.76 317.936L1672.26 323.978C1673.09 324.457 1673.59 325.356 1673.58 326.326C1673.56 327.53 1673.6 328.733 1673.69 329.943C1673.77 330.92 1673.3 331.858 1672.48 332.388L1662.18 339C1661.07 339.711 1660.65 341.122 1661.19 342.319L1667.16 355.574C1667.7 356.758 1669.01 357.386 1670.27 357.043L1682.12 353.854C1683.06 353.601 1684.06 353.886 1684.73 354.585C1685.54 355.419 1686.37 356.221 1687.24 356.978C1687.98 357.619 1688.31 358.602 1688.11 359.553L1685.47 371.631C1685.19 372.912 1685.89 374.212 1687.12 374.678L1700.72 379.828C1701.94 380.287 1703.31 379.802 1703.96 378.67L1710.02 368.144C1710.51 367.297 1711.42 366.792 1712.4 366.818C1713.61 366.85 1714.81 366.831 1716.02 366.76C1716.98 366.702 1717.9 367.161 1718.43 367.97L1725.01 378.236C1725.72 379.343 1727.13 379.763 1728.33 379.22L1741.59 373.249C1742.77 372.712 1743.4 371.398 1743.06 370.143L1739.99 358.757C1739.74 357.813 1740.02 356.804 1740.73 356.137C1741.72 355.219 1742.65 354.261 1743.53 353.258C1744.16 352.54 1745.14 352.223 1746.08 352.43L1757.64 354.953C1758.92 355.232 1760.22 354.533 1760.68 353.304L1765.83 339.705C1766.29 338.489 1765.81 337.117 1764.68 336.47ZM1615.4 263.322C1596.67 263.322 1581.48 248.138 1581.48 229.403C1581.48 210.668 1596.67 195.484 1615.4 195.484C1634.14 195.484 1649.32 210.668 1649.32 229.403C1649.32 248.138 1634.14 263.322 1615.4 263.322ZM1671.19 267.675L1662.67 255.856C1661.92 254.828 1661.82 253.469 1662.38 252.324C1663.22 250.59 1663.97 248.817 1664.61 247.019C1665.04 245.816 1666.08 244.949 1667.35 244.761L1681.88 242.607C1683.56 242.355 1684.8 240.912 1684.8 239.21V220.398C1684.8 218.716 1683.58 217.279 1681.91 217.014L1667.36 214.659C1666.11 214.459 1665.09 213.586 1664.67 212.395C1664.05 210.655 1663.34 208.934 1662.53 207.258C1661.98 206.107 1662.1 204.742 1662.86 203.713L1671.75 191.739C1672.77 190.374 1672.62 188.472 1671.42 187.268L1658.12 173.967C1656.93 172.777 1655.05 172.628 1653.69 173.611L1641.37 182.5C1640.36 183.225 1639.04 183.361 1637.91 182.837C1636.34 182.099 1634.74 181.446 1633.11 180.87C1631.91 180.45 1631.06 179.395 1630.87 178.14L1628.61 162.924C1628.36 161.242 1626.92 160 1625.22 160H1606.4C1604.72 160 1603.29 161.223 1603.02 162.885L1600.52 178.36C1600.32 179.596 1599.46 180.618 1598.29 181.038C1596.82 181.569 1595.38 182.164 1593.96 182.83C1592.82 183.367 1591.47 183.244 1590.45 182.487L1577.74 173.055C1576.37 172.04 1574.47 172.182 1573.27 173.385L1559.97 186.686C1558.78 187.876 1558.63 189.752 1559.61 191.117L1568.9 203.998C1569.64 205.014 1569.75 206.353 1569.21 207.485C1568.57 208.843 1567.99 210.228 1567.47 211.625C1567.03 212.803 1565.99 213.657 1564.75 213.844L1548.92 216.193C1547.24 216.445 1546 217.888 1546 219.589V238.402C1546 240.084 1547.22 241.52 1548.89 241.785L1564.4 244.295C1565.65 244.496 1566.68 245.376 1567.1 246.573C1567.61 248.041 1568.18 249.497 1568.83 250.926C1569.34 252.065 1569.21 253.391 1568.47 254.394L1559.06 267.067C1558.04 268.433 1558.18 270.334 1559.38 271.538L1572.69 284.839C1573.88 286.029 1575.75 286.178 1577.12 285.194L1589.49 276.267C1590.52 275.529 1591.87 275.406 1593.01 275.963C1594.57 276.733 1596.16 277.425 1597.77 278.026C1598.94 278.46 1599.77 279.501 1599.95 280.731L1602.19 295.875C1602.44 297.557 1603.89 298.799 1605.59 298.799H1624.4C1626.08 298.799 1627.52 297.577 1627.79 295.914L1630.15 281.3C1630.35 280.038 1631.25 279.01 1632.46 278.602C1634.21 278.013 1635.94 277.321 1637.64 276.538C1638.78 276.008 1640.12 276.137 1641.14 276.888L1653.07 285.738C1654.43 286.754 1656.33 286.611 1657.54 285.408L1670.84 272.107C1672.03 270.917 1672.18 269.041 1671.19 267.675Z" fill="white"/>
</mask>
<g mask="url(#mask0_1064_38)">
<path d="M1656 49.9971L1436 270L1656 490.003L1876.01 270L1656 49.9971Z" fill="url(#paint17_linear_1064_38)"/>
</g>
<rect x="2069" y="389" width="550" height="632" rx="40" fill="#FAF9F6" stroke="url(#paint18_linear_1064_38)" stroke-width="20"/>
<path d="M2290.29 740.727C2290.08 738.928 2289.21 737.531 2287.7 736.537C2286.18 735.543 2284.32 735.045 2282.12 735.045C2280.51 735.045 2279.1 735.306 2277.9 735.827C2276.7 736.348 2275.77 737.064 2275.09 737.975C2274.43 738.887 2274.1 739.922 2274.1 741.082C2274.1 742.053 2274.33 742.888 2274.79 743.586C2275.26 744.272 2275.87 744.847 2276.6 745.308C2277.33 745.758 2278.1 746.131 2278.91 746.427C2279.71 746.711 2280.45 746.942 2281.13 747.119L2284.82 748.114C2285.77 748.362 2286.82 748.705 2287.98 749.143C2289.15 749.581 2290.27 750.179 2291.34 750.937C2292.41 751.683 2293.3 752.641 2294 753.813C2294.7 754.985 2295.05 756.423 2295.05 758.128C2295.05 760.093 2294.53 761.868 2293.5 763.455C2292.49 765.041 2290.99 766.301 2289.03 767.237C2287.08 768.172 2284.7 768.639 2281.91 768.639C2279.3 768.639 2277.05 768.219 2275.14 767.379C2273.25 766.538 2271.76 765.366 2270.67 763.863C2269.59 762.36 2268.98 760.614 2268.84 758.625H2273.39C2273.5 759.998 2273.97 761.134 2274.77 762.034C2275.59 762.922 2276.62 763.585 2277.86 764.023C2279.12 764.449 2280.46 764.662 2281.91 764.662C2283.59 764.662 2285.1 764.39 2286.44 763.845C2287.77 763.289 2288.83 762.519 2289.62 761.537C2290.4 760.543 2290.79 759.383 2290.79 758.057C2290.79 756.849 2290.45 755.867 2289.77 755.109C2289.1 754.352 2288.21 753.736 2287.11 753.263C2286.01 752.789 2284.82 752.375 2283.54 752.02L2279.07 750.741C2276.23 749.925 2273.98 748.759 2272.32 747.244C2270.66 745.728 2269.84 743.746 2269.84 741.295C2269.84 739.259 2270.39 737.484 2271.49 735.969C2272.6 734.442 2274.09 733.258 2275.96 732.418C2277.84 731.565 2279.94 731.139 2282.26 731.139C2284.61 731.139 2286.69 731.559 2288.51 732.4C2290.34 733.228 2291.78 734.365 2292.85 735.809C2293.92 737.253 2294.49 738.893 2294.55 740.727H2290.29ZM2300.3 735.543V731.636H2327.57V735.543H2316.14V768H2311.73V735.543H2300.3ZM2334.37 768V731.636H2356.31V735.543H2338.77V747.83H2355.18V751.736H2338.77V764.094H2356.6V768H2334.37ZM2364.25 768V731.636H2376.54C2379.39 731.636 2381.72 732.151 2383.53 733.181C2385.36 734.199 2386.71 735.578 2387.58 737.318C2388.46 739.058 2388.9 741 2388.9 743.142C2388.9 745.285 2388.46 747.232 2387.58 748.984C2386.72 750.736 2385.38 752.132 2383.57 753.174C2381.76 754.204 2379.44 754.719 2376.61 754.719H2367.8V750.812H2376.47C2378.42 750.812 2379.99 750.475 2381.17 749.8C2382.36 749.126 2383.21 748.214 2383.75 747.066C2384.29 745.906 2384.56 744.598 2384.56 743.142C2384.56 741.686 2384.29 740.384 2383.75 739.236C2383.21 738.088 2382.35 737.188 2381.15 736.537C2379.96 735.874 2378.37 735.543 2376.4 735.543H2368.65V768H2364.25ZM2408.56 760.543V756.92L2424.54 731.636H2427.17V737.247H2425.39L2413.32 756.352V756.636H2434.84V760.543H2408.56ZM2425.68 768V759.442V757.755V731.636H2429.87V768H2425.68Z" fill="#9B9DA2"/>
<path d="M2208.06 819.364H2217.73L2230.69 850.983H2231.2L2244.15 819.364H2253.83V863H2246.24V833.021H2245.84L2233.78 862.872H2228.11L2216.05 832.957H2215.65V863H2208.06V819.364ZM2276.37 863.639C2273.17 863.639 2270.4 862.936 2268.06 861.53C2265.72 860.124 2263.9 858.156 2262.61 855.628C2261.33 853.099 2260.69 850.145 2260.69 846.764C2260.69 843.384 2261.33 840.422 2262.61 837.879C2263.9 835.337 2265.72 833.362 2268.06 831.956C2270.4 830.55 2273.17 829.847 2276.37 829.847C2279.57 829.847 2282.34 830.55 2284.68 831.956C2287.02 833.362 2288.83 835.337 2290.11 837.879C2291.41 840.422 2292.05 843.384 2292.05 846.764C2292.05 850.145 2291.41 853.099 2290.11 855.628C2288.83 858.156 2287.02 860.124 2284.68 861.53C2282.34 862.936 2279.57 863.639 2276.37 863.639ZM2276.41 857.46C2278.15 857.46 2279.59 856.984 2280.76 856.033C2281.92 855.067 2282.79 853.774 2283.36 852.155C2283.94 850.536 2284.23 848.732 2284.23 846.743C2284.23 844.74 2283.94 842.929 2283.36 841.31C2282.79 839.676 2281.92 838.376 2280.76 837.411C2279.59 836.445 2278.15 835.962 2276.41 835.962C2274.64 835.962 2273.16 836.445 2271.98 837.411C2270.82 838.376 2269.94 839.676 2269.36 841.31C2268.79 842.929 2268.51 844.74 2268.51 846.743C2268.51 848.732 2268.79 850.536 2269.36 852.155C2269.94 853.774 2270.82 855.067 2271.98 856.033C2273.16 856.984 2274.64 857.46 2276.41 857.46ZM2306.31 843.824V863H2298.6V830.273H2305.97V835.834H2306.35C2307.11 834.001 2308.31 832.545 2309.95 831.466C2311.62 830.386 2313.67 829.847 2316.11 829.847C2318.37 829.847 2320.34 830.33 2322.01 831.295C2323.7 832.261 2325.01 833.661 2325.93 835.493C2326.87 837.325 2327.33 839.548 2327.32 842.162V863H2319.61V843.355C2319.61 841.168 2319.04 839.456 2317.9 838.22C2316.78 836.984 2315.22 836.366 2313.24 836.366C2311.89 836.366 2310.69 836.665 2309.63 837.261C2308.6 837.844 2307.78 838.689 2307.18 839.797C2306.6 840.905 2306.31 842.247 2306.31 843.824ZM2335.16 863V830.273H2342.87V863H2335.16ZM2339.04 825.628C2337.82 825.628 2336.77 825.223 2335.88 824.413C2335 823.589 2334.56 822.602 2334.56 821.452C2334.56 820.287 2335 819.3 2335.88 818.49C2336.77 817.666 2337.82 817.254 2339.04 817.254C2340.27 817.254 2341.33 817.666 2342.19 818.49C2343.07 819.3 2343.51 820.287 2343.51 821.452C2343.51 822.602 2343.07 823.589 2342.19 824.413C2341.33 825.223 2340.27 825.628 2339.04 825.628ZM2367.15 830.273V836.239H2348.33V830.273H2367.15ZM2352.98 822.432H2360.69V853.156C2360.69 854.193 2360.85 854.989 2361.16 855.543C2361.49 856.082 2361.91 856.452 2362.44 856.651C2362.96 856.849 2363.55 856.949 2364.19 856.949C2364.67 856.949 2365.11 856.913 2365.51 856.842C2365.92 856.771 2366.23 856.707 2366.44 856.651L2367.74 862.68C2367.33 862.822 2366.74 862.979 2365.98 863.149C2365.22 863.32 2364.3 863.419 2363.21 863.447C2361.27 863.504 2359.53 863.213 2357.99 862.574C2356.44 861.92 2355.21 860.912 2354.3 859.548C2353.4 858.185 2352.96 856.48 2352.98 854.435V822.432ZM2387.52 863.639C2384.33 863.639 2381.56 862.936 2379.21 861.53C2376.87 860.124 2375.05 858.156 2373.76 855.628C2372.48 853.099 2371.84 850.145 2371.84 846.764C2371.84 843.384 2372.48 840.422 2373.76 837.879C2375.05 835.337 2376.87 833.362 2379.21 831.956C2381.56 830.55 2384.33 829.847 2387.52 829.847C2390.72 829.847 2393.49 830.55 2395.83 831.956C2398.18 833.362 2399.99 835.337 2401.26 837.879C2402.56 840.422 2403.2 843.384 2403.2 846.764C2403.2 850.145 2402.56 853.099 2401.26 855.628C2399.99 858.156 2398.18 860.124 2395.83 861.53C2393.49 862.936 2390.72 863.639 2387.52 863.639ZM2387.56 857.46C2389.3 857.46 2390.75 856.984 2391.91 856.033C2393.08 855.067 2393.94 853.774 2394.51 852.155C2395.09 850.536 2395.38 848.732 2395.38 846.743C2395.38 844.74 2395.09 842.929 2394.51 841.31C2393.94 839.676 2393.08 838.376 2391.91 837.411C2390.75 836.445 2389.3 835.962 2387.56 835.962C2385.79 835.962 2384.31 836.445 2383.13 837.411C2381.97 838.376 2381.09 839.676 2380.51 841.31C2379.94 842.929 2379.66 844.74 2379.66 846.743C2379.66 848.732 2379.94 850.536 2380.51 852.155C2381.09 853.774 2381.97 855.067 2383.13 856.033C2384.31 856.984 2385.79 857.46 2387.56 857.46ZM2409.75 863V830.273H2417.23V835.727H2417.57C2418.17 833.838 2419.19 832.382 2420.64 831.359C2422.1 830.322 2423.77 829.804 2425.65 829.804C2426.07 829.804 2426.55 829.825 2427.07 829.868C2427.61 829.896 2428.06 829.946 2428.41 830.017V837.112C2428.09 836.999 2427.57 836.899 2426.86 836.814C2426.16 836.714 2425.49 836.665 2424.84 836.665C2423.43 836.665 2422.16 836.97 2421.04 837.581C2419.93 838.178 2419.06 839.009 2418.42 840.074C2417.78 841.139 2417.46 842.368 2417.46 843.76V863H2409.75ZM2461.46 863.639C2458.48 863.639 2455.91 863.099 2453.77 862.02C2451.63 860.94 2449.97 859.484 2448.81 857.652C2447.66 855.805 2447.08 853.724 2447.08 851.409C2447.08 849.662 2447.43 848.114 2448.15 846.764C2448.87 845.415 2449.86 844.165 2451.13 843.014C2452.41 841.864 2453.88 840.72 2455.56 839.584L2463.29 834.321C2464.43 833.582 2465.29 832.801 2465.87 831.977C2466.47 831.153 2466.77 830.187 2466.77 829.08C2466.77 828.142 2466.37 827.254 2465.57 826.416C2464.79 825.578 2463.71 825.159 2462.34 825.159C2461.41 825.159 2460.6 825.379 2459.89 825.82C2459.19 826.246 2458.64 826.807 2458.24 827.503C2457.86 828.199 2457.67 828.938 2457.67 829.719C2457.67 830.67 2457.93 831.636 2458.46 832.616C2459 833.597 2459.69 834.612 2460.55 835.663C2461.41 836.714 2462.34 837.83 2463.32 839.009L2483.79 863H2475.44L2458.44 843.526C2457.17 842.048 2455.95 840.592 2454.77 839.158C2453.61 837.723 2452.65 836.232 2451.9 834.683C2451.16 833.121 2450.79 831.43 2450.79 829.612C2450.79 827.553 2451.26 825.713 2452.21 824.094C2453.17 822.46 2454.49 821.175 2456.2 820.237C2457.92 819.3 2459.93 818.831 2462.23 818.831C2464.53 818.831 2466.5 819.286 2468.15 820.195C2469.8 821.104 2471.07 822.311 2471.97 823.817C2472.86 825.322 2473.31 826.963 2473.31 828.739C2473.31 830.798 2472.8 832.645 2471.77 834.278C2470.75 835.898 2469.33 837.368 2467.51 838.689L2458.69 845.145C2457.24 846.196 2456.21 847.261 2455.58 848.341C2454.96 849.406 2454.64 850.315 2454.64 851.068C2454.64 852.219 2454.93 853.263 2455.52 854.2C2456.1 855.138 2456.92 855.891 2457.97 856.459C2459.03 857.013 2460.28 857.29 2461.7 857.29C2463.26 857.29 2464.8 856.942 2466.32 856.246C2467.84 855.536 2469.22 854.527 2470.47 853.22C2471.72 851.913 2472.72 850.351 2473.46 848.533C2474.2 846.7 2474.57 844.669 2474.57 842.439H2481.19C2481.19 845.195 2480.89 847.595 2480.28 849.641C2479.66 851.672 2478.88 853.391 2477.91 854.797C2476.94 856.189 2475.92 857.304 2474.84 858.142C2474.5 858.384 2474.17 858.625 2473.86 858.866C2473.55 859.108 2473.22 859.349 2472.88 859.591C2471.35 860.983 2469.55 862.006 2467.49 862.659C2465.45 863.312 2463.44 863.639 2461.46 863.639ZM2252.77 936V892.364H2281.15V898.99H2260.67V910.837H2279.68V917.463H2260.67V929.374H2281.32V936H2252.77ZM2318.1 903.273L2306.45 936H2297.93L2286.27 903.273H2294.5L2302.02 927.584H2302.36L2309.9 903.273H2318.1ZM2336.6 936.639C2333.41 936.639 2330.64 935.936 2328.29 934.53C2325.95 933.124 2324.13 931.156 2322.84 928.628C2321.56 926.099 2320.92 923.145 2320.92 919.764C2320.92 916.384 2321.56 913.422 2322.84 910.879C2324.13 908.337 2325.95 906.362 2328.29 904.956C2330.64 903.55 2333.41 902.847 2336.6 902.847C2339.8 902.847 2342.57 903.55 2344.91 904.956C2347.26 906.362 2349.07 908.337 2350.35 910.879C2351.64 913.422 2352.29 916.384 2352.29 919.764C2352.29 923.145 2351.64 926.099 2350.35 928.628C2349.07 931.156 2347.26 933.124 2344.91 934.53C2342.57 935.936 2339.8 936.639 2336.6 936.639ZM2336.65 930.46C2338.38 930.46 2339.83 929.984 2340.99 929.033C2342.16 928.067 2343.02 926.774 2343.59 925.155C2344.17 923.536 2344.47 921.732 2344.47 919.743C2344.47 917.74 2344.17 915.929 2343.59 914.31C2343.02 912.676 2342.16 911.376 2340.99 910.411C2339.83 909.445 2338.38 908.962 2336.65 908.962C2334.87 908.962 2333.39 909.445 2332.21 910.411C2331.05 911.376 2330.18 912.676 2329.59 914.31C2329.03 915.929 2328.74 917.74 2328.74 919.743C2328.74 921.732 2329.03 923.536 2329.59 925.155C2330.18 926.774 2331.05 928.067 2332.21 929.033C2333.39 929.984 2334.87 930.46 2336.65 930.46ZM2366.55 892.364V936H2358.83V892.364H2366.55ZM2403.71 903.273L2392.05 936H2383.53L2371.88 903.273H2380.1L2387.62 927.584H2387.96L2395.51 903.273H2403.71ZM2422.42 936.639C2419.14 936.639 2416.31 935.957 2413.92 934.594C2411.55 933.216 2409.72 931.27 2408.45 928.756C2407.17 926.227 2406.53 923.251 2406.53 919.828C2406.53 916.462 2407.17 913.507 2408.45 910.964C2409.74 908.408 2411.54 906.419 2413.86 904.999C2416.17 903.564 2418.89 902.847 2422.02 902.847C2424.03 902.847 2425.94 903.173 2427.73 903.827C2429.53 904.466 2431.12 905.46 2432.5 906.81C2433.89 908.159 2434.99 909.878 2435.78 911.966C2436.58 914.04 2436.97 916.511 2436.97 919.381V921.746H2410.15V916.547H2429.58C2429.57 915.07 2429.25 913.756 2428.62 912.605C2428 911.44 2427.12 910.524 2426 909.857C2424.89 909.189 2423.6 908.855 2422.12 908.855C2420.55 908.855 2419.16 909.239 2417.97 910.006C2416.78 910.759 2415.85 911.753 2415.18 912.989C2414.52 914.21 2414.19 915.553 2414.18 917.016V921.554C2414.18 923.457 2414.52 925.091 2415.22 926.455C2415.92 927.804 2416.89 928.841 2418.14 929.565C2419.39 930.276 2420.85 930.631 2422.53 930.631C2423.65 930.631 2424.67 930.474 2425.58 930.162C2426.48 929.835 2427.27 929.359 2427.94 928.734C2428.61 928.109 2429.11 927.335 2429.45 926.412L2436.66 927.222C2436.2 929.125 2435.33 930.787 2434.06 932.207C2432.79 933.614 2431.17 934.707 2429.2 935.489C2427.22 936.256 2424.97 936.639 2422.42 936.639Z" fill="#395577"/>
<path d="M2230 664V564V464H2234.55H2239.1V559.909V655.818H2357.05H2475V659.909V664H2352.5H2230Z" fill="url(#paint19_linear_1064_38)"/>
<path d="M2394.17 476.922C2394.79 476.78 2402.07 475.089 2410.34 473.169C2418.6 471.249 2426.24 469.624 2427.31 469.564C2428.96 469.471 2420.68 499.799 2417.94 503.868C2417.82 504.048 2415.54 501.85 2412.86 498.981L2407.99 493.761L2390.72 508.859L2373.45 523.952L2353.9 524.203L2334.35 524.454L2320.3 540.136L2306.25 555.818H2282.24H2258.23V551.727V547.636H2280.5C2298.48 547.636 2302.91 547.396 2303.5 546.382C2303.9 545.689 2310.34 538.325 2317.81 530.018L2331.39 514.908H2350.96H2370.52L2375.62 510.599C2378.43 508.232 2381.24 505.81 2381.86 505.221C2382.48 504.632 2387.31 500.372 2392.59 495.757C2403.43 486.293 2403.02 488.18 2395.92 480.364C2394.15 478.417 2393.47 477.08 2394.17 476.922Z" fill="url(#paint20_linear_1064_38)"/>
<path d="M2394.85 638.549V579.911V521.274H2419.9H2444.94V579.911V638.549H2419.9H2394.85Z" fill="url(#paint21_linear_1064_38)"/>
<path d="M2326.54 638.549V596.275V554.002H2351.59H2376.63V596.275V638.549H2351.59H2326.54Z" fill="url(#paint22_linear_1064_38)"/>
<path d="M2258.23 638.549V612.181V585.819H2283.28H2308.33V612.181V638.549H2283.28H2258.23Z" fill="url(#paint23_linear_1064_38)"/>
<path d="M759.477 271.533C761.206 273.687 764.353 274.032 766.506 272.303L801.604 244.141C803.758 242.412 804.103 239.265 802.375 237.112C800.646 234.958 797.499 234.613 795.346 236.341L764.148 261.375L739.114 230.177C737.386 228.023 734.239 227.678 732.085 229.406C729.931 231.134 729.586 234.281 731.314 236.435L759.477 271.533ZM570.627 82.1936C662.573 70.5773 712.223 84.1577 737.639 115.403C750.428 131.126 757.569 151.858 760.517 177.515C763.468 203.188 762.18 233.44 758.407 267.859L768.347 268.948C772.151 234.255 773.528 203.142 770.452 176.373C767.374 149.586 759.797 126.797 745.396 109.093C716.433 73.4855 661.819 60.5931 569.373 72.2725L570.627 82.1936Z" fill="#73A6E4"/>
<path d="M1457.4 755.221C1459.21 753.232 1462.29 753.087 1464.28 754.898L1496.7 784.403C1498.69 786.214 1498.83 789.294 1497.02 791.284C1495.21 793.273 1492.13 793.418 1490.14 791.607L1461.32 765.38L1435.1 794.197C1433.29 796.186 1430.21 796.331 1428.22 794.521C1426.23 792.71 1426.08 789.63 1427.89 787.64L1457.4 755.221ZM1249.06 941.803C1344.2 947.863 1396.84 936.225 1425.28 907.198C1453.74 878.153 1459.5 830.208 1456.13 758.729L1465.87 758.271C1469.21 829.404 1464 881.602 1432.24 914.016C1400.46 946.45 1343.62 957.587 1248.44 951.525L1249.06 941.803Z" fill="#395577"/>
<path d="M2151.3 343.365C2153.16 345.408 2156.32 345.556 2158.37 343.698L2191.65 313.408C2193.69 311.55 2193.84 308.387 2191.98 306.345C2190.12 304.303 2186.96 304.154 2184.91 306.013L2155.33 332.937L2128.41 303.355C2126.55 301.312 2123.39 301.164 2121.35 303.022C2119.3 304.881 2119.15 308.043 2121.01 310.085L2151.3 343.365ZM1935.32 165.395C1984.02 162.293 2022.19 162.836 2051.98 167.568C2081.75 172.296 2102.76 181.149 2117.51 194.361C2132.21 207.523 2141.21 225.472 2146.11 249.426C2151.02 273.475 2151.72 303.277 2150.01 339.765L2159.99 340.235C2161.72 303.522 2161.07 272.719 2155.9 247.425C2150.72 222.035 2140.93 201.903 2124.18 186.911C2107.5 171.968 2084.42 162.595 2053.55 157.691C2022.7 152.791 1983.67 152.295 1934.68 155.415L1935.32 165.395Z" fill="#73A6E4"/>
<defs>
<linearGradient id="paint0_linear_1064_38" x1="285" y1="20" x2="285" y2="632" gradientUnits="userSpaceOnUse">
<stop stop-color="#A3CCFF"/>
<stop offset="0.5" stop-color="#73A6E4"/>
<stop offset="1" stop-color="#395577"/>
</linearGradient>
<linearGradient id="paint1_linear_1064_38" x1="277" y1="92" x2="277" y2="272" gradientUnits="userSpaceOnUse">
<stop stop-color="#567EAF"/>
<stop offset="0.5" stop-color="#73A6E4"/>
<stop offset="1" stop-color="#A3CCFF"/>
</linearGradient>
<linearGradient id="paint2_linear_1064_38" x1="968" y1="357" x2="968" y2="969" gradientUnits="userSpaceOnUse">
<stop stop-color="#A3CCFF"/>
<stop offset="0.5" stop-color="#73A6E4"/>
<stop offset="1" stop-color="#395577"/>
</linearGradient>
<linearGradient id="paint3_linear_1064_38" x1="967.501" y1="586.34" x2="967.501" y2="440.296" gradientUnits="userSpaceOnUse">
<stop stop-color="#A3CCFF"/>
<stop offset="0.5" stop-color="#73A6E4"/>
<stop offset="1" stop-color="#567EAF"/>
</linearGradient>
<linearGradient id="paint4_linear_1064_38" x1="967.502" y1="600.738" x2="967.502" y2="599.738" gradientUnits="userSpaceOnUse">
<stop stop-color="#A3CCFF"/>
<stop offset="0.5" stop-color="#73A6E4"/>
<stop offset="1" stop-color="#567EAF"/>
</linearGradient>
<linearGradient id="paint5_linear_1064_38" x1="967.501" y1="612.772" x2="967.501" y2="611.772" gradientUnits="userSpaceOnUse">
<stop stop-color="#A3CCFF"/>
<stop offset="0.5" stop-color="#73A6E4"/>
<stop offset="1" stop-color="#567EAF"/>
</linearGradient>
<linearGradient id="paint6_linear_1064_38" x1="967.506" y1="624.806" x2="967.506" y2="623.806" gradientUnits="userSpaceOnUse">
<stop stop-color="#A3CCFF"/>
<stop offset="0.5" stop-color="#73A6E4"/>
<stop offset="1" stop-color="#567EAF"/>
</linearGradient>
<linearGradient id="paint7_linear_1064_38" x1="968.003" y1="431.957" x2="968.003" y2="411" gradientUnits="userSpaceOnUse">
<stop stop-color="#A3CCFF"/>
<stop offset="0.5" stop-color="#73A6E4"/>
<stop offset="1" stop-color="#567EAF"/>
</linearGradient>
<linearGradient id="paint8_linear_1064_38" x1="1008.94" y1="440.119" x2="1008.94" y2="421.582" gradientUnits="userSpaceOnUse">
<stop stop-color="#A3CCFF"/>
<stop offset="0.5" stop-color="#73A6E4"/>
<stop offset="1" stop-color="#567EAF"/>
</linearGradient>
<linearGradient id="paint9_linear_1064_38" x1="1040.78" y1="465.782" x2="1040.78" y2="454.855" gradientUnits="userSpaceOnUse">
<stop stop-color="#A3CCFF"/>
<stop offset="0.5" stop-color="#73A6E4"/>
<stop offset="1" stop-color="#567EAF"/>
</linearGradient>
<linearGradient id="paint10_linear_1064_38" x1="1053.85" y1="502.628" x2="1053.85" y2="501.628" gradientUnits="userSpaceOnUse">
<stop stop-color="#A3CCFF"/>
<stop offset="0.5" stop-color="#73A6E4"/>
<stop offset="1" stop-color="#567EAF"/>
</linearGradient>
<linearGradient id="paint11_linear_1064_38" x1="1043.78" y1="552.351" x2="1043.78" y2="540.977" gradientUnits="userSpaceOnUse">
<stop stop-color="#A3CCFF"/>
<stop offset="0.5" stop-color="#73A6E4"/>
<stop offset="1" stop-color="#567EAF"/>
</linearGradient>
<linearGradient id="paint12_linear_1064_38" x1="926.057" y1="440.119" x2="926.057" y2="421.581" gradientUnits="userSpaceOnUse">
<stop stop-color="#A3CCFF"/>
<stop offset="0.5" stop-color="#73A6E4"/>
<stop offset="1" stop-color="#567EAF"/>
</linearGradient>
<linearGradient id="paint13_linear_1064_38" x1="894.222" y1="465.781" x2="894.222" y2="454.854" gradientUnits="userSpaceOnUse">
<stop stop-color="#A3CCFF"/>
<stop offset="0.5" stop-color="#73A6E4"/>
<stop offset="1" stop-color="#567EAF"/>
</linearGradient>
<linearGradient id="paint14_linear_1064_38" x1="881.152" y1="502.628" x2="881.152" y2="501.628" gradientUnits="userSpaceOnUse">
<stop stop-color="#A3CCFF"/>
<stop offset="0.5" stop-color="#73A6E4"/>
<stop offset="1" stop-color="#567EAF"/>
</linearGradient>
<linearGradient id="paint15_linear_1064_38" x1="891.221" y1="552.352" x2="891.221" y2="540.978" gradientUnits="userSpaceOnUse">
<stop stop-color="#A3CCFF"/>
<stop offset="0.5" stop-color="#73A6E4"/>
<stop offset="1" stop-color="#567EAF"/>
</linearGradient>
<linearGradient id="paint16_linear_1064_38" x1="1656" y1="93" x2="1656" y2="705" gradientUnits="userSpaceOnUse">
<stop stop-color="#A3CCFF"/>
<stop offset="0.5" stop-color="#73A6E4"/>
<stop offset="1" stop-color="#395577"/>
</linearGradient>
<linearGradient id="paint17_linear_1064_38" x1="1656" y1="49.9971" x2="1656" y2="490.003" gradientUnits="userSpaceOnUse">
<stop stop-color="#A3CCFF"/>
<stop offset="0.5" stop-color="#73A6E4"/>
<stop offset="1" stop-color="#395577"/>
</linearGradient>
<linearGradient id="paint18_linear_1064_38" x1="2344" y1="399" x2="2344" y2="1011" gradientUnits="userSpaceOnUse">
<stop stop-color="#A3CCFF"/>
<stop offset="0.5" stop-color="#73A6E4"/>
<stop offset="1" stop-color="#395577"/>
</linearGradient>
<linearGradient id="paint19_linear_1064_38" x1="2352.5" y1="464" x2="2352.5" y2="664" gradientUnits="userSpaceOnUse">
<stop stop-color="#567EAF"/>
<stop offset="0.5" stop-color="#73A6E4"/>
<stop offset="1" stop-color="#A3CCFF"/>
</linearGradient>
<linearGradient id="paint20_linear_1064_38" x1="2352.5" y1="464" x2="2352.5" y2="664" gradientUnits="userSpaceOnUse">
<stop stop-color="#567EAF"/>
<stop offset="0.5" stop-color="#73A6E4"/>
<stop offset="1" stop-color="#A3CCFF"/>
</linearGradient>
<linearGradient id="paint21_linear_1064_38" x1="2352.5" y1="464" x2="2352.5" y2="664" gradientUnits="userSpaceOnUse">
<stop stop-color="#567EAF"/>
<stop offset="0.5" stop-color="#73A6E4"/>
<stop offset="1" stop-color="#A3CCFF"/>
</linearGradient>
<linearGradient id="paint22_linear_1064_38" x1="2352.5" y1="464" x2="2352.5" y2="664" gradientUnits="userSpaceOnUse">
<stop stop-color="#567EAF"/>
<stop offset="0.5" stop-color="#73A6E4"/>
<stop offset="1" stop-color="#A3CCFF"/>
</linearGradient>
<linearGradient id="paint23_linear_1064_38" x1="2352.5" y1="464" x2="2352.5" y2="664" gradientUnits="userSpaceOnUse">
<stop stop-color="#567EAF"/>
<stop offset="0.5" stop-color="#73A6E4"/>
<stop offset="1" stop-color="#A3CCFF"/>
</linearGradient>
</defs>
</svg>
