<svg width="900" height="900" viewBox="0 0 900 900" fill="none" xmlns="http://www.w3.org/2000/svg">
<rect width="900" height="900" rx="30" fill="#526074" fill-opacity="0.3"/>
<g filter="url(#filter0_d_1066_168)">
<rect x="148" y="467" width="278" height="302" rx="30" fill="white" fill-opacity="0.7" shape-rendering="crispEdges"/>
</g>
<path d="M221.446 572.645H352.557C353.059 572.645 353.509 572.338 353.695 571.87L362.64 549.145C362.895 548.502 362.999 547.541 362.999 546.902C362.999 544.453 360.77 542 357.773 542H216.226C213.253 542 211 544.453 211 546.902C211 547.559 211.101 548.481 211.363 549.145L220.306 571.87C220.489 572.338 220.942 572.645 221.446 572.645Z" fill="#5CCAB2" fill-opacity="0.7"/>
<path d="M241.054 624.578L252.149 652.773C252.335 653.241 252.785 653.548 253.292 653.548H320.709C321.213 653.548 321.667 653.241 321.849 652.773L332.949 624.578C333.263 623.774 332.673 622.904 331.806 622.904H242.192C241.329 622.904 240.736 623.774 241.054 624.578Z" fill="#F7A745" fill-opacity="0.7"/>
<path d="M225.133 584.125L236.229 612.32C236.414 612.788 236.865 613.097 237.368 613.097H336.632C337.135 613.097 337.588 612.788 337.774 612.32L348.871 584.125C349.189 583.321 348.594 582.452 347.731 582.452H226.271C225.409 582.452 224.815 583.321 225.133 584.125Z" fill="#F7C945" fill-opacity="0.7"/>
<path d="M253.904 664.582V686.645C253.904 690.708 257.196 694 261.259 694H312.744C316.804 694 320.099 690.708 320.099 686.645V664.582C320.099 663.904 319.55 663.355 318.873 663.355H255.131C254.453 663.355 253.904 663.904 253.904 664.582Z" fill="#ED4B45" fill-opacity="0.7"/>
<g filter="url(#filter1_d_1066_168)">
<rect x="477" y="467" width="278" height="302" rx="30" fill="white" fill-opacity="0.7" shape-rendering="crispEdges"/>
</g>
<rect x="518" y="582" width="198" height="31" rx="15.5" fill="#C0C0C0" fill-opacity="0.3"/>
<rect x="519" y="628" width="198" height="31" rx="15.5" fill="#C0C0C0" fill-opacity="0.3"/>
<g filter="url(#filter2_d_1066_168)">
<rect x="140" y="131" width="619" height="285" rx="30" fill="white" fill-opacity="0.7" shape-rendering="crispEdges"/>
</g>
<path d="M222.202 193V174.818H228.345C229.772 174.818 230.938 175.076 231.843 175.591C232.754 176.1 233.429 176.789 233.867 177.659C234.305 178.529 234.524 179.5 234.524 180.571C234.524 181.642 234.305 182.616 233.867 183.492C233.435 184.368 232.766 185.066 231.861 185.587C230.955 186.102 229.795 186.359 228.381 186.359H223.977V184.406H228.31C229.286 184.406 230.07 184.238 230.662 183.9C231.254 183.563 231.683 183.107 231.95 182.533C232.222 181.953 232.358 181.299 232.358 180.571C232.358 179.843 232.222 179.192 231.95 178.618C231.683 178.044 231.251 177.594 230.653 177.268C230.056 176.937 229.263 176.771 228.274 176.771H224.403V193H222.202ZM237.787 193V179.364H239.811V181.423H239.953C240.202 180.749 240.651 180.201 241.302 179.781C241.953 179.361 242.687 179.151 243.504 179.151C243.658 179.151 243.85 179.154 244.081 179.159C244.312 179.165 244.487 179.174 244.605 179.186V181.317C244.534 181.299 244.371 181.272 244.117 181.237C243.868 181.195 243.605 181.175 243.327 181.175C242.664 181.175 242.072 181.314 241.551 181.592C241.036 181.864 240.628 182.243 240.326 182.728C240.03 183.208 239.882 183.755 239.882 184.371V193H237.787ZM252.213 193.284C250.982 193.284 249.902 192.991 248.973 192.405C248.05 191.819 247.327 191 246.807 189.946C246.292 188.893 246.034 187.661 246.034 186.253C246.034 184.832 246.292 183.592 246.807 182.533C247.327 181.474 248.05 180.651 248.973 180.065C249.902 179.479 250.982 179.186 252.213 179.186C253.444 179.186 254.521 179.479 255.445 180.065C256.374 180.651 257.096 181.474 257.611 182.533C258.132 183.592 258.392 184.832 258.392 186.253C258.392 187.661 258.132 188.893 257.611 189.946C257.096 191 256.374 191.819 255.445 192.405C254.521 192.991 253.444 193.284 252.213 193.284ZM252.213 191.402C253.148 191.402 253.918 191.162 254.521 190.683C255.125 190.203 255.572 189.573 255.862 188.792C256.152 188.011 256.297 187.164 256.297 186.253C256.297 185.341 256.152 184.492 255.862 183.705C255.572 182.918 255.125 182.281 254.521 181.796C253.918 181.311 253.148 181.068 252.213 181.068C251.278 181.068 250.509 181.311 249.905 181.796C249.301 182.281 248.854 182.918 248.564 183.705C248.274 184.492 248.129 185.341 248.129 186.253C248.129 187.164 248.274 188.011 248.564 188.792C248.854 189.573 249.301 190.203 249.905 190.683C250.509 191.162 251.278 191.402 252.213 191.402ZM261.875 193V174.818H263.97V181.53H264.147C264.301 181.293 264.514 180.991 264.786 180.624C265.065 180.251 265.461 179.92 265.976 179.63C266.497 179.334 267.201 179.186 268.089 179.186C269.237 179.186 270.249 179.473 271.125 180.047C272.001 180.621 272.685 181.435 273.176 182.489C273.667 183.542 273.913 184.785 273.913 186.217C273.913 187.661 273.667 188.913 273.176 189.973C272.685 191.026 272.004 191.843 271.134 192.423C270.264 192.997 269.261 193.284 268.125 193.284C267.249 193.284 266.547 193.139 266.021 192.849C265.494 192.553 265.088 192.219 264.804 191.846C264.52 191.467 264.301 191.153 264.147 190.905H263.899V193H261.875ZM263.934 186.182C263.934 187.212 264.085 188.12 264.387 188.907C264.689 189.689 265.13 190.301 265.71 190.745C266.29 191.183 267 191.402 267.84 191.402C268.716 191.402 269.447 191.171 270.033 190.71C270.625 190.242 271.069 189.615 271.365 188.827C271.667 188.034 271.818 187.152 271.818 186.182C271.818 185.223 271.67 184.359 271.374 183.589C271.084 182.814 270.643 182.202 270.051 181.752C269.465 181.296 268.728 181.068 267.84 181.068C266.988 181.068 266.272 181.284 265.692 181.716C265.112 182.142 264.674 182.74 264.378 183.51C264.082 184.273 263.934 185.164 263.934 186.182ZM279.213 174.818V193H277.118V174.818H279.213ZM288.768 193.284C287.454 193.284 286.32 192.994 285.368 192.414C284.421 191.828 283.69 191.011 283.175 189.964C282.666 188.91 282.411 187.685 282.411 186.288C282.411 184.892 282.666 183.661 283.175 182.595C283.69 181.524 284.406 180.689 285.323 180.092C286.246 179.488 287.324 179.186 288.555 179.186C289.265 179.186 289.966 179.304 290.659 179.541C291.351 179.778 291.982 180.163 292.55 180.695C293.118 181.222 293.571 181.92 293.908 182.79C294.245 183.661 294.414 184.732 294.414 186.004V186.892H283.903V185.081H292.283C292.283 184.312 292.129 183.625 291.822 183.021C291.52 182.418 291.088 181.941 290.526 181.592C289.969 181.243 289.312 181.068 288.555 181.068C287.72 181.068 286.998 181.275 286.388 181.69C285.785 182.098 285.32 182.631 284.995 183.288C284.669 183.945 284.506 184.649 284.506 185.401V186.608C284.506 187.638 284.684 188.511 285.039 189.227C285.4 189.937 285.9 190.479 286.539 190.852C287.179 191.219 287.921 191.402 288.768 191.402C289.318 191.402 289.815 191.325 290.259 191.171C290.709 191.011 291.097 190.775 291.422 190.461C291.748 190.141 291.999 189.745 292.177 189.271L294.201 189.839C293.988 190.526 293.63 191.13 293.127 191.651C292.624 192.165 292.002 192.568 291.262 192.858C290.523 193.142 289.691 193.284 288.768 193.284ZM297.601 193V179.364H299.625V181.494H299.803C300.087 180.766 300.546 180.201 301.179 179.799C301.812 179.39 302.573 179.186 303.461 179.186C304.36 179.186 305.109 179.39 305.707 179.799C306.31 180.201 306.781 180.766 307.118 181.494H307.26C307.609 180.79 308.133 180.231 308.832 179.816C309.53 179.396 310.368 179.186 311.344 179.186C312.563 179.186 313.561 179.568 314.336 180.331C315.111 181.089 315.499 182.27 315.499 183.874V193H313.404V183.874C313.404 182.867 313.129 182.148 312.578 181.716C312.028 181.284 311.38 181.068 310.634 181.068C309.675 181.068 308.932 181.358 308.406 181.938C307.879 182.512 307.615 183.24 307.615 184.122V193H305.485V183.661C305.485 182.885 305.233 182.261 304.73 181.787C304.227 181.308 303.579 181.068 302.786 181.068C302.241 181.068 301.732 181.213 301.259 181.503C300.791 181.793 300.413 182.196 300.123 182.711C299.838 183.22 299.696 183.808 299.696 184.477V193H297.601ZM328.989 182.418L327.107 182.95C326.988 182.637 326.814 182.332 326.583 182.036C326.358 181.734 326.05 181.485 325.66 181.29C325.269 181.095 324.769 180.997 324.159 180.997C323.325 180.997 322.629 181.19 322.073 181.574C321.523 181.953 321.247 182.435 321.247 183.021C321.247 183.542 321.437 183.953 321.816 184.255C322.194 184.557 322.786 184.809 323.591 185.01L325.615 185.507C326.834 185.803 327.743 186.256 328.341 186.865C328.939 187.469 329.237 188.247 329.237 189.2C329.237 189.982 329.012 190.68 328.563 191.295C328.119 191.911 327.497 192.396 326.698 192.751C325.899 193.107 324.97 193.284 323.911 193.284C322.52 193.284 321.369 192.982 320.457 192.379C319.546 191.775 318.969 190.893 318.726 189.733L320.715 189.236C320.904 189.97 321.262 190.52 321.789 190.887C322.322 191.254 323.017 191.438 323.875 191.438C324.852 191.438 325.627 191.23 326.201 190.816C326.781 190.396 327.071 189.893 327.071 189.307C327.071 188.833 326.905 188.437 326.574 188.117C326.243 187.792 325.734 187.549 325.047 187.389L322.774 186.857C321.526 186.561 320.608 186.102 320.022 185.48C319.442 184.853 319.152 184.069 319.152 183.128C319.152 182.358 319.368 181.678 319.8 181.086C320.238 180.494 320.833 180.029 321.585 179.692C322.342 179.355 323.2 179.186 324.159 179.186C325.509 179.186 326.568 179.482 327.338 180.074C328.113 180.666 328.663 181.447 328.989 182.418Z" fill="black" fill-opacity="0.6"/>
<path d="M399.145 179.364C399.038 178.464 398.606 177.766 397.849 177.268C397.091 176.771 396.162 176.523 395.061 176.523C394.256 176.523 393.552 176.653 392.948 176.913C392.35 177.174 391.883 177.532 391.545 177.988C391.214 178.443 391.048 178.961 391.048 179.541C391.048 180.027 391.164 180.444 391.395 180.793C391.631 181.136 391.933 181.423 392.3 181.654C392.667 181.879 393.052 182.065 393.454 182.213C393.857 182.355 394.227 182.471 394.564 182.56L396.411 183.057C396.884 183.181 397.411 183.353 397.991 183.572C398.577 183.791 399.136 184.09 399.669 184.468C400.207 184.841 400.651 185.321 401 185.907C401.35 186.493 401.524 187.212 401.524 188.064C401.524 189.046 401.267 189.934 400.752 190.727C400.243 191.52 399.497 192.151 398.515 192.618C397.538 193.086 396.351 193.32 394.955 193.32C393.652 193.32 392.525 193.109 391.572 192.689C390.625 192.269 389.879 191.683 389.335 190.931C388.796 190.18 388.491 189.307 388.42 188.312H390.693C390.752 188.999 390.983 189.567 391.386 190.017C391.794 190.461 392.309 190.792 392.93 191.011C393.558 191.224 394.232 191.331 394.955 191.331C395.795 191.331 396.55 191.195 397.218 190.923C397.887 190.644 398.417 190.26 398.808 189.768C399.198 189.271 399.393 188.691 399.393 188.028C399.393 187.425 399.225 186.933 398.887 186.555C398.55 186.176 398.106 185.868 397.556 185.631C397.005 185.395 396.411 185.187 395.771 185.01L393.534 184.371C392.114 183.962 390.989 183.379 390.161 182.622C389.332 181.864 388.918 180.873 388.918 179.648C388.918 178.63 389.193 177.742 389.743 176.984C390.3 176.221 391.045 175.629 391.98 175.209C392.922 174.783 393.972 174.57 395.132 174.57C396.304 174.57 397.346 174.78 398.257 175.2C399.169 175.614 399.891 176.182 400.423 176.904C400.962 177.627 401.246 178.446 401.276 179.364H399.145ZM410.4 193.284C409.169 193.284 408.089 192.991 407.159 192.405C406.236 191.819 405.514 191 404.993 189.946C404.478 188.893 404.221 187.661 404.221 186.253C404.221 184.832 404.478 183.592 404.993 182.533C405.514 181.474 406.236 180.651 407.159 180.065C408.089 179.479 409.169 179.186 410.4 179.186C411.631 179.186 412.708 179.479 413.631 180.065C414.561 180.651 415.283 181.474 415.797 182.533C416.318 183.592 416.579 184.832 416.579 186.253C416.579 187.661 416.318 188.893 415.797 189.946C415.283 191 414.561 191.819 413.631 192.405C412.708 192.991 411.631 193.284 410.4 193.284ZM410.4 191.402C411.335 191.402 412.104 191.162 412.708 190.683C413.312 190.203 413.759 189.573 414.049 188.792C414.339 188.011 414.484 187.164 414.484 186.253C414.484 185.341 414.339 184.492 414.049 183.705C413.759 182.918 413.312 182.281 412.708 181.796C412.104 181.311 411.335 181.068 410.4 181.068C409.465 181.068 408.695 181.311 408.092 181.796C407.488 182.281 407.041 182.918 406.751 183.705C406.461 184.492 406.316 185.341 406.316 186.253C406.316 187.164 406.461 188.011 406.751 188.792C407.041 189.573 407.488 190.203 408.092 190.683C408.695 191.162 409.465 191.402 410.4 191.402ZM421.872 174.818V193H419.777V174.818H421.872ZM434.303 187.425V179.364H436.399V193H434.303V190.692H434.161C433.842 191.384 433.345 191.973 432.67 192.458C431.995 192.938 431.143 193.178 430.113 193.178C429.261 193.178 428.503 192.991 427.84 192.618C427.177 192.239 426.657 191.671 426.278 190.914C425.899 190.15 425.71 189.188 425.71 188.028V179.364H427.805V187.886C427.805 188.881 428.083 189.674 428.639 190.266C429.202 190.857 429.918 191.153 430.788 191.153C431.309 191.153 431.838 191.02 432.377 190.754C432.921 190.488 433.377 190.079 433.744 189.529C434.117 188.978 434.303 188.277 434.303 187.425ZM446.166 179.364V181.139H439.1V179.364H446.166ZM441.159 176.097H443.254V189.094C443.254 189.686 443.34 190.129 443.512 190.425C443.689 190.715 443.914 190.911 444.187 191.011C444.465 191.106 444.758 191.153 445.066 191.153C445.296 191.153 445.486 191.142 445.634 191.118C445.782 191.088 445.9 191.065 445.989 191.047L446.415 192.929C446.273 192.982 446.075 193.036 445.82 193.089C445.566 193.148 445.243 193.178 444.852 193.178C444.261 193.178 443.681 193.05 443.112 192.796C442.55 192.541 442.083 192.154 441.71 191.633C441.343 191.112 441.159 190.455 441.159 189.662V176.097ZM449.318 193V179.364H451.413V193H449.318ZM450.383 177.091C449.975 177.091 449.623 176.952 449.327 176.674C449.037 176.395 448.892 176.061 448.892 175.67C448.892 175.28 449.037 174.945 449.327 174.667C449.623 174.389 449.975 174.25 450.383 174.25C450.792 174.25 451.141 174.389 451.431 174.667C451.727 174.945 451.875 175.28 451.875 175.67C451.875 176.061 451.727 176.395 451.431 176.674C451.141 176.952 450.792 177.091 450.383 177.091ZM460.79 193.284C459.559 193.284 458.479 192.991 457.55 192.405C456.627 191.819 455.905 191 455.384 189.946C454.869 188.893 454.611 187.661 454.611 186.253C454.611 184.832 454.869 183.592 455.384 182.533C455.905 181.474 456.627 180.651 457.55 180.065C458.479 179.479 459.559 179.186 460.79 179.186C462.021 179.186 463.099 179.479 464.022 180.065C464.951 180.651 465.673 181.474 466.188 182.533C466.709 183.592 466.969 184.832 466.969 186.253C466.969 187.661 466.709 188.893 466.188 189.946C465.673 191 464.951 191.819 464.022 192.405C463.099 192.991 462.021 193.284 460.79 193.284ZM460.79 191.402C461.726 191.402 462.495 191.162 463.099 190.683C463.702 190.203 464.149 189.573 464.439 188.792C464.729 188.011 464.874 187.164 464.874 186.253C464.874 185.341 464.729 184.492 464.439 183.705C464.149 182.918 463.702 182.281 463.099 181.796C462.495 181.311 461.726 181.068 460.79 181.068C459.855 181.068 459.086 181.311 458.482 181.796C457.878 182.281 457.432 182.918 457.142 183.705C456.852 184.492 456.707 185.341 456.707 186.253C456.707 187.164 456.852 188.011 457.142 188.792C457.432 189.573 457.878 190.203 458.482 190.683C459.086 191.162 459.855 191.402 460.79 191.402ZM472.263 184.797V193H470.168V179.364H472.192V181.494H472.369C472.689 180.802 473.174 180.246 473.825 179.825C474.476 179.399 475.317 179.186 476.347 179.186C477.27 179.186 478.078 179.375 478.77 179.754C479.463 180.127 480.001 180.695 480.386 181.459C480.771 182.216 480.963 183.175 480.963 184.335V193H478.868V184.477C478.868 183.406 478.59 182.571 478.033 181.974C477.477 181.37 476.714 181.068 475.743 181.068C475.074 181.068 474.476 181.213 473.95 181.503C473.429 181.793 473.017 182.216 472.716 182.773C472.414 183.329 472.263 184.004 472.263 184.797ZM494.451 182.418L492.569 182.95C492.45 182.637 492.276 182.332 492.045 182.036C491.82 181.734 491.512 181.485 491.122 181.29C490.731 181.095 490.231 180.997 489.621 180.997C488.787 180.997 488.091 181.19 487.535 181.574C486.984 181.953 486.709 182.435 486.709 183.021C486.709 183.542 486.899 183.953 487.277 184.255C487.656 184.557 488.248 184.809 489.053 185.01L491.077 185.507C492.296 185.803 493.205 186.256 493.803 186.865C494.4 187.469 494.699 188.247 494.699 189.2C494.699 189.982 494.474 190.68 494.025 191.295C493.581 191.911 492.959 192.396 492.16 192.751C491.361 193.107 490.432 193.284 489.373 193.284C487.982 193.284 486.831 192.982 485.919 192.379C485.008 191.775 484.431 190.893 484.188 189.733L486.177 189.236C486.366 189.97 486.724 190.52 487.251 190.887C487.783 191.254 488.479 191.438 489.337 191.438C490.314 191.438 491.089 191.23 491.663 190.816C492.243 190.396 492.533 189.893 492.533 189.307C492.533 188.833 492.367 188.437 492.036 188.117C491.705 187.792 491.196 187.549 490.509 187.389L488.236 186.857C486.987 186.561 486.07 186.102 485.484 185.48C484.904 184.853 484.614 184.069 484.614 183.128C484.614 182.358 484.83 181.678 485.262 181.086C485.7 180.494 486.295 180.029 487.047 179.692C487.804 179.355 488.662 179.186 489.621 179.186C490.971 179.186 492.03 179.482 492.799 180.074C493.575 180.666 494.125 181.447 494.451 182.418Z" fill="black" fill-opacity="0.6"/>
<path d="M555.207 176.771V174.818H568.844V176.771H563.126V193H560.925V176.771H555.207ZM575.697 193.284C574.384 193.284 573.25 192.994 572.297 192.414C571.35 191.828 570.619 191.011 570.104 189.964C569.595 188.91 569.341 187.685 569.341 186.288C569.341 184.892 569.595 183.661 570.104 182.595C570.619 181.524 571.335 180.689 572.253 180.092C573.176 179.488 574.253 179.186 575.484 179.186C576.195 179.186 576.896 179.304 577.588 179.541C578.281 179.778 578.911 180.163 579.479 180.695C580.048 181.222 580.5 181.92 580.838 182.79C581.175 183.661 581.344 184.732 581.344 186.004V186.892H570.832V185.081H579.213C579.213 184.312 579.059 183.625 578.751 183.021C578.45 182.418 578.018 181.941 577.455 181.592C576.899 181.243 576.242 181.068 575.484 181.068C574.65 181.068 573.928 181.275 573.318 181.69C572.714 182.098 572.25 182.631 571.924 183.288C571.599 183.945 571.436 184.649 571.436 185.401V186.608C571.436 187.638 571.614 188.511 571.969 189.227C572.33 189.937 572.83 190.479 573.469 190.852C574.108 191.219 574.851 191.402 575.697 191.402C576.248 191.402 576.745 191.325 577.189 191.171C577.639 191.011 578.026 190.775 578.352 190.461C578.677 190.141 578.929 189.745 579.107 189.271L581.131 189.839C580.918 190.526 580.56 191.13 580.056 191.651C579.553 192.165 578.932 192.568 578.192 192.858C577.452 193.142 576.621 193.284 575.697 193.284ZM594.19 182.418L592.308 182.95C592.19 182.637 592.015 182.332 591.784 182.036C591.559 181.734 591.251 181.485 590.861 181.29C590.47 181.095 589.97 180.997 589.36 180.997C588.526 180.997 587.83 181.19 587.274 181.574C586.724 181.953 586.449 182.435 586.449 183.021C586.449 183.542 586.638 183.953 587.017 184.255C587.395 184.557 587.987 184.809 588.792 185.01L590.816 185.507C592.036 185.803 592.944 186.256 593.542 186.865C594.14 187.469 594.439 188.247 594.439 189.2C594.439 189.982 594.214 190.68 593.764 191.295C593.32 191.911 592.699 192.396 591.9 192.751C591.1 193.107 590.171 193.284 589.112 193.284C587.721 193.284 586.57 192.982 585.658 192.379C584.747 191.775 584.17 190.893 583.927 189.733L585.916 189.236C586.105 189.97 586.463 190.52 586.99 190.887C587.523 191.254 588.218 191.438 589.076 191.438C590.053 191.438 590.828 191.23 591.402 190.816C591.982 190.396 592.272 189.893 592.272 189.307C592.272 188.833 592.107 188.437 591.775 188.117C591.444 187.792 590.935 187.549 590.248 187.389L587.975 186.857C586.727 186.561 585.809 186.102 585.223 185.48C584.643 184.853 584.353 184.069 584.353 183.128C584.353 182.358 584.569 181.678 585.001 181.086C585.439 180.494 586.034 180.029 586.786 179.692C587.543 179.355 588.402 179.186 589.36 179.186C590.71 179.186 591.769 179.482 592.539 180.074C593.314 180.666 593.864 181.447 594.19 182.418ZM603.523 179.364V181.139H596.456V179.364H603.523ZM598.516 176.097H600.611V189.094C600.611 189.686 600.697 190.129 600.868 190.425C601.046 190.715 601.271 190.911 601.543 191.011C601.821 191.106 602.114 191.153 602.422 191.153C602.653 191.153 602.842 191.142 602.99 191.118C603.138 191.088 603.256 191.065 603.345 191.047L603.771 192.929C603.629 192.982 603.431 193.036 603.177 193.089C602.922 193.148 602.6 193.178 602.209 193.178C601.617 193.178 601.037 193.05 600.469 192.796C599.907 192.541 599.439 192.154 599.066 191.633C598.699 191.112 598.516 190.455 598.516 189.662V176.097ZM616.191 174.818V193H613.99V174.818H616.191ZM625.471 193.284C624.335 193.284 623.331 192.997 622.461 192.423C621.591 191.843 620.911 191.026 620.42 189.973C619.928 188.913 619.683 187.661 619.683 186.217C619.683 184.785 619.928 183.542 620.42 182.489C620.911 181.435 621.594 180.621 622.47 180.047C623.346 179.473 624.358 179.186 625.507 179.186C626.394 179.186 627.096 179.334 627.611 179.63C628.131 179.92 628.528 180.251 628.8 180.624C629.078 180.991 629.294 181.293 629.448 181.53H629.626V174.818H631.721V193H629.697V190.905H629.448C629.294 191.153 629.075 191.467 628.791 191.846C628.507 192.219 628.102 192.553 627.575 192.849C627.048 193.139 626.347 193.284 625.471 193.284ZM625.755 191.402C626.596 191.402 627.306 191.183 627.886 190.745C628.466 190.301 628.907 189.689 629.209 188.907C629.51 188.12 629.661 187.212 629.661 186.182C629.661 185.164 629.513 184.273 629.218 183.51C628.922 182.74 628.484 182.142 627.904 181.716C627.324 181.284 626.607 181.068 625.755 181.068C624.867 181.068 624.128 181.296 623.536 181.752C622.95 182.202 622.509 182.814 622.213 183.589C621.923 184.359 621.778 185.223 621.778 186.182C621.778 187.152 621.926 188.034 622.222 188.827C622.524 189.615 622.968 190.242 623.553 190.71C624.145 191.171 624.879 191.402 625.755 191.402ZM641.567 193.284C640.253 193.284 639.119 192.994 638.166 192.414C637.219 191.828 636.488 191.011 635.974 189.964C635.465 188.91 635.21 187.685 635.21 186.288C635.21 184.892 635.465 183.661 635.974 182.595C636.488 181.524 637.205 180.689 638.122 180.092C639.045 179.488 640.122 179.186 641.354 179.186C642.064 179.186 642.765 179.304 643.458 179.541C644.15 179.778 644.78 180.163 645.349 180.695C645.917 181.222 646.369 181.92 646.707 182.79C647.044 183.661 647.213 184.732 647.213 186.004V186.892H636.702V185.081H645.082C645.082 184.312 644.928 183.625 644.621 183.021C644.319 182.418 643.887 181.941 643.324 181.592C642.768 181.243 642.111 181.068 641.354 181.068C640.519 181.068 639.797 181.275 639.187 181.69C638.584 182.098 638.119 182.631 637.794 183.288C637.468 183.945 637.305 184.649 637.305 185.401V186.608C637.305 187.638 637.483 188.511 637.838 189.227C638.199 189.937 638.699 190.479 639.338 190.852C639.977 191.219 640.72 191.402 641.567 191.402C642.117 191.402 642.614 191.325 643.058 191.171C643.508 191.011 643.896 190.775 644.221 190.461C644.547 190.141 644.798 189.745 644.976 189.271L647 189.839C646.787 190.526 646.429 191.13 645.926 191.651C645.423 192.165 644.801 192.568 644.061 192.858C643.321 193.142 642.49 193.284 641.567 193.284ZM654.413 193.32C653.549 193.32 652.765 193.157 652.06 192.831C651.356 192.5 650.797 192.023 650.382 191.402C649.968 190.775 649.761 190.017 649.761 189.129C649.761 188.348 649.915 187.715 650.222 187.229C650.53 186.738 650.942 186.353 651.456 186.075C651.971 185.797 652.54 185.59 653.161 185.454C653.788 185.312 654.419 185.199 655.052 185.116C655.881 185.01 656.552 184.93 657.067 184.877C657.588 184.818 657.967 184.72 658.204 184.584C658.446 184.448 658.568 184.211 658.568 183.874V183.803C658.568 182.927 658.328 182.246 657.849 181.761C657.375 181.275 656.656 181.033 655.691 181.033C654.691 181.033 653.907 181.252 653.339 181.69C652.77 182.128 652.371 182.595 652.14 183.092L650.151 182.382C650.507 181.554 650.98 180.908 651.572 180.447C652.17 179.979 652.821 179.654 653.525 179.47C654.235 179.281 654.934 179.186 655.62 179.186C656.058 179.186 656.561 179.239 657.129 179.346C657.704 179.446 658.257 179.657 658.79 179.976C659.328 180.296 659.775 180.778 660.13 181.423C660.485 182.068 660.663 182.933 660.663 184.016V193H658.568V191.153H658.461C658.319 191.449 658.082 191.766 657.751 192.103C657.419 192.441 656.979 192.728 656.428 192.964C655.878 193.201 655.206 193.32 654.413 193.32ZM654.732 191.438C655.561 191.438 656.259 191.275 656.828 190.949C657.402 190.624 657.834 190.203 658.124 189.689C658.42 189.174 658.568 188.632 658.568 188.064V186.146C658.479 186.253 658.284 186.35 657.982 186.439C657.686 186.522 657.343 186.596 656.952 186.661C656.567 186.72 656.191 186.774 655.824 186.821C655.463 186.862 655.17 186.898 654.945 186.928C654.401 186.999 653.892 187.114 653.419 187.274C652.951 187.428 652.572 187.661 652.282 187.975C651.998 188.283 651.856 188.703 651.856 189.236C651.856 189.964 652.125 190.514 652.664 190.887C653.208 191.254 653.898 191.438 654.732 191.438ZM674.146 182.418L672.264 182.95C672.146 182.637 671.971 182.332 671.74 182.036C671.515 181.734 671.207 181.485 670.817 181.29C670.426 181.095 669.926 180.997 669.316 180.997C668.482 180.997 667.787 181.19 667.23 181.574C666.68 181.953 666.405 182.435 666.405 183.021C666.405 183.542 666.594 183.953 666.973 184.255C667.352 184.557 667.943 184.809 668.748 185.01L670.772 185.507C671.992 185.803 672.9 186.256 673.498 186.865C674.096 187.469 674.395 188.247 674.395 189.2C674.395 189.982 674.17 190.68 673.72 191.295C673.276 191.911 672.655 192.396 671.856 192.751C671.057 193.107 670.127 193.284 669.068 193.284C667.677 193.284 666.526 192.982 665.614 192.379C664.703 191.775 664.126 190.893 663.883 189.733L665.872 189.236C666.061 189.97 666.419 190.52 666.946 190.887C667.479 191.254 668.174 191.438 669.032 191.438C670.009 191.438 670.784 191.23 671.358 190.816C671.938 190.396 672.228 189.893 672.228 189.307C672.228 188.833 672.063 188.437 671.731 188.117C671.4 187.792 670.891 187.549 670.204 187.389L667.932 186.857C666.683 186.561 665.765 186.102 665.179 185.48C664.599 184.853 664.309 184.069 664.309 183.128C664.309 182.358 664.525 181.678 664.957 181.086C665.395 180.494 665.99 180.029 666.742 179.692C667.499 179.355 668.358 179.186 669.316 179.186C670.666 179.186 671.725 179.482 672.495 180.074C673.27 180.666 673.821 181.447 674.146 182.418Z" fill="black" fill-opacity="0.6"/>
<line x1="358.493" y1="366.007" x2="358.493" y2="221.007" stroke="#1A1A1A" stroke-opacity="0.7"/>
<line x1="531.5" y1="366.015" x2="531.5" y2="221.015" stroke="#1A1A1A" stroke-opacity="0.7"/>
<path fill-rule="evenodd" clip-rule="evenodd" d="M300.607 342.525H242.763C237.479 342.525 233.183 338.229 233.183 332.945V256.974C233.183 251.69 237.479 247.394 242.763 247.394H301.459C303.614 247.394 303.614 250.667 301.459 250.667H242.763C239.285 250.667 236.456 253.497 236.456 256.975V332.956C236.456 336.434 239.285 339.264 242.763 339.264L299.925 339.263L325.04 314.148V256.985C325.04 252.832 321.249 252.117 323.143 250.19C325.26 248.034 328.325 253.214 328.325 256.997V314.841C328.325 315.273 328.154 315.693 327.847 316L301.766 342.081C301.448 342.355 301.039 342.525 300.607 342.525Z" fill="#458B7B"/>
<path fill-rule="evenodd" clip-rule="evenodd" d="M308.142 352.593H232.171C226.887 352.593 222.591 348.298 222.591 343.013V267.032C222.591 261.748 226.887 257.451 232.171 257.451C233.952 257.451 236.455 257.018 236.455 259.088V332.945C236.455 336.422 239.285 339.252 242.763 339.252H299.925L314.937 324.24C315.956 323.221 317.732 323.938 317.732 325.399V343.002C317.722 348.298 313.425 352.593 308.142 352.593ZM232.171 260.724C228.693 260.724 225.864 263.554 225.864 267.032V343.013C225.864 346.491 228.693 349.321 232.171 349.321H308.153C311.631 349.321 314.46 346.491 314.46 343.013V329.353L301.767 342.048C301.459 342.355 301.039 342.525 300.607 342.525H242.763C237.478 342.525 233.182 338.229 233.182 332.945V260.724H232.171Z" fill="#458B7B"/>
<path fill-rule="evenodd" clip-rule="evenodd" d="M297.562 362.651H221.58C216.296 362.651 212 358.355 212 353.071V277.101C212 271.816 216.296 267.521 221.58 267.521C223.362 267.521 225.865 267.087 225.865 269.157V343.014C225.865 346.491 228.694 349.321 232.172 349.321L305.505 349.321C307.507 349.321 307.142 351.658 307.142 353.071C307.142 358.356 302.835 362.651 297.562 362.651ZM221.58 270.793C218.102 270.793 215.273 273.623 215.273 277.101V353.082C215.273 356.56 218.102 359.39 221.58 359.39H297.562C301.2 359.39 303.869 356.601 303.869 352.605H232.171C226.887 352.605 222.591 348.309 222.591 343.025V270.793H221.58Z" fill="#458B7B"/>
<path fill-rule="evenodd" clip-rule="evenodd" d="M300.607 342.525C299.711 342.525 298.972 341.792 298.972 340.888V322.887C298.972 317.535 303.324 313.182 308.688 313.182H326.689C328.15 313.182 328.866 314.959 327.848 315.978L301.767 342.058C301.449 342.366 301.028 342.525 300.607 342.525ZM308.676 316.455C305.13 316.455 302.233 319.342 302.233 322.888V336.934L322.723 316.444L308.676 316.444V316.455Z" fill="#458B7B"/>
<path fill-rule="evenodd" clip-rule="evenodd" d="M306.426 288.624H255.07C252.913 288.624 252.913 285.351 255.07 285.351L306.426 285.351C308.574 285.351 308.588 288.624 306.426 288.624Z" fill="#458B7B"/>
<path fill-rule="evenodd" clip-rule="evenodd" d="M306.425 304.636H255.07C252.916 304.636 252.915 301.363 255.07 301.363L306.425 301.363C308.572 301.363 308.586 304.636 306.425 304.636Z" fill="#458B7B"/>
<path fill-rule="evenodd" clip-rule="evenodd" d="M280.753 275.384C276.071 275.384 272.253 271.577 272.253 266.884C272.253 262.201 276.06 258.383 280.753 258.383C285.435 258.383 289.254 262.19 289.254 266.884C289.243 271.577 285.435 275.384 280.753 275.384ZM280.753 261.668C273.871 261.668 273.871 272.123 280.753 272.123C287.641 272.123 287.627 261.668 280.753 261.668Z" fill="#458B7B"/>
<path fill-rule="evenodd" clip-rule="evenodd" d="M335.61 253.565C333.507 253.565 331.45 252.474 330.326 250.519L319.723 232.143C315.666 225.119 326.28 219.169 330.28 226.052L340.883 244.428C343.242 248.512 340.251 253.565 335.61 253.565ZM322.54 230.507L333.143 248.883C334.992 252.102 339.882 249.276 338.03 246.065L327.427 227.688C325.587 224.506 320.666 227.252 322.54 230.507Z" fill="white" fill-opacity="0.3"/>
<path fill-rule="evenodd" clip-rule="evenodd" d="M308.983 240.916C301.424 240.916 304.183 236.816 306.074 237.268C315.051 239.462 319.336 230.745 319.518 230.37C320.441 228.442 323.382 229.8 322.473 231.779C322.279 232.211 317.983 240.916 308.983 240.916Z" fill="white" fill-opacity="0.3"/>
<path fill-rule="evenodd" clip-rule="evenodd" d="M317.494 260.941C312.711 260.941 318.958 247.366 332.017 248.292C334.158 248.443 333.941 251.722 331.767 251.565C331.358 251.531 321.664 250.895 319.073 259.758C318.857 260.475 318.198 260.941 317.494 260.941Z" fill="white" fill-opacity="0.3"/>
<path fill-rule="evenodd" clip-rule="evenodd" d="M313.198 266.509C311.027 266.509 308.994 265.341 307.903 263.463L297.3 245.087C293.243 238.063 303.857 232.113 307.857 238.996L318.46 257.372C320.825 261.466 317.811 266.509 313.198 266.509ZM300.13 243.451L310.733 261.827C312.582 265.047 317.471 262.221 315.619 259.009L305.016 240.633C303.158 237.42 298.274 240.247 300.13 243.451Z" fill="white" fill-opacity="0.3"/>
<path fill-rule="evenodd" clip-rule="evenodd" d="M280.754 268.52C279.097 268.52 278.478 266.307 279.936 265.463L303.199 252.031C305.061 250.953 306.71 253.787 304.835 254.872C302.173 256.412 281.818 268.52 280.754 268.52Z" fill="white" fill-opacity="0.3"/>
<path fill-rule="evenodd" clip-rule="evenodd" d="M306.425 304.636H255.07C252.915 304.636 252.915 301.363 255.07 301.363L306.425 301.363C308.571 301.363 308.586 304.636 306.425 304.636ZM306.425 288.624H255.07C252.913 288.624 252.912 285.351 255.07 285.351H306.425C308.574 285.351 308.588 288.624 306.425 288.624ZM280.753 275.384C276.071 275.384 272.253 271.577 272.253 266.884C272.253 259.054 282.008 255.411 287.154 261.295L301.779 252.85L300.52 250.667H242.762C239.285 250.667 236.455 253.497 236.455 256.974V332.956C236.462 336.429 239.289 339.252 242.762 339.252H298.97V322.887C298.97 317.535 303.323 313.182 308.687 313.182H325.04V256.985C325.04 255.359 324.459 254.26 323.866 253.41C321.941 254.56 320.16 256.408 319.194 259.369C319.828 262.94 317.079 266.509 313.198 266.509C311.027 266.509 308.994 265.341 307.903 263.463L303.422 255.699C300.436 257.455 294.062 261.217 288.825 264.215C290.629 269.659 286.566 275.384 280.753 275.384Z" fill="#5CCAB2" fill-opacity="0.5"/>
<path fill-rule="evenodd" clip-rule="evenodd" d="M308.676 316.455C305.13 316.455 302.232 319.342 302.232 322.888V336.934L322.722 316.445L308.676 316.444V316.455Z" fill="#5CCAB2" fill-opacity="0.5"/>
<path fill-rule="evenodd" clip-rule="evenodd" d="M314.461 329.387C312.855 330.993 302.103 342.084 301.193 342.419C300.382 342.719 248.34 342.525 242.763 342.525C237.479 342.525 233.183 338.229 233.183 332.945V260.724H232.172C228.694 260.724 225.864 263.554 225.864 267.032L225.865 343.014C225.865 346.492 228.694 349.321 232.172 349.321L308.153 349.321C311.631 349.321 314.461 346.491 314.461 343.013V329.387Z" fill="#5CCAB2" fill-opacity="0.8"/>
<path fill-rule="evenodd" clip-rule="evenodd" d="M303.868 352.605H232.171C226.886 352.605 222.591 348.313 222.591 343.013V270.793H221.579C218.102 270.793 215.272 273.623 215.272 277.101V353.082C215.272 356.56 218.102 359.389 221.579 359.389H297.561C301.2 359.389 303.868 356.601 303.868 352.605Z" fill="#5CCAB2" fill-opacity="0.5"/>
<path fill-rule="evenodd" clip-rule="evenodd" d="M302.903 248.257L310.732 261.827C312.582 265.047 317.471 262.22 315.619 259.009L305.017 240.633C303.159 237.419 298.275 240.247 300.13 243.451L302.903 248.257Z" fill="#567EAF"/>
<path fill-rule="evenodd" clip-rule="evenodd" d="M308.966 240.916L317.292 255.347C319.799 251.457 324.194 248.811 329.061 248.329L320.946 234.263C318.957 236.987 315.037 240.916 308.966 240.916Z" fill="#CBDDF3"/>
<path fill-rule="evenodd" clip-rule="evenodd" d="M322.558 230.538L333.395 249.263C335.396 251.86 339.802 249.139 338.029 246.065L327.426 227.688C325.646 224.61 320.984 227.079 322.377 230.189C322.452 230.296 322.513 230.413 322.558 230.538Z" fill="#567EAF"/>
<path fill-rule="evenodd" clip-rule="evenodd" d="M473.607 345.525H415.763C410.479 345.525 406.183 341.229 406.183 335.945V259.974C406.183 254.69 410.479 250.394 415.763 250.394H474.459C476.614 250.394 476.614 253.667 474.459 253.667H415.763C412.285 253.667 409.456 256.497 409.456 259.975V335.956C409.456 339.434 412.285 342.264 415.763 342.264L472.925 342.263L498.04 317.148V259.985C498.04 255.832 494.249 255.117 496.143 253.19C498.26 251.034 501.325 256.214 501.325 259.997V317.841C501.325 318.273 501.154 318.694 500.847 319L474.766 345.081C474.448 345.355 474.039 345.525 473.607 345.525Z" fill="#B14642"/>
<path fill-rule="evenodd" clip-rule="evenodd" d="M481.143 355.593H405.172C399.888 355.593 395.592 351.298 395.592 346.013V270.032C395.592 264.748 399.888 260.451 405.172 260.451C406.953 260.451 409.456 260.018 409.456 262.088V335.945C409.456 339.422 412.286 342.252 415.764 342.252H472.926L487.938 327.24C488.957 326.221 490.733 326.938 490.733 328.399V346.002C490.723 351.298 486.426 355.593 481.143 355.593ZM405.172 263.724C401.694 263.724 398.865 266.554 398.865 270.032V346.013C398.865 349.491 401.694 352.321 405.172 352.321H481.154C484.631 352.321 487.461 349.491 487.461 346.013V332.353L474.768 345.048C474.46 345.355 474.04 345.525 473.608 345.525H415.764C410.479 345.525 406.183 341.229 406.183 335.945V263.724H405.172Z" fill="#B14642"/>
<path fill-rule="evenodd" clip-rule="evenodd" d="M470.562 365.651H394.58C389.296 365.651 385 361.355 385 356.071V280.101C385 274.816 389.296 270.521 394.58 270.521C396.362 270.521 398.865 270.087 398.865 272.157V346.014C398.865 349.491 401.694 352.321 405.172 352.321L478.505 352.321C480.507 352.321 480.142 354.658 480.142 356.071C480.142 361.356 475.835 365.651 470.562 365.651ZM394.58 273.793C391.102 273.793 388.273 276.623 388.273 280.101V356.082C388.273 359.56 391.102 362.39 394.58 362.39H470.562C474.2 362.39 476.869 359.601 476.869 355.605H405.171C399.887 355.605 395.591 351.309 395.591 346.025V273.793H394.58Z" fill="#B14642"/>
<path fill-rule="evenodd" clip-rule="evenodd" d="M473.607 345.525C472.711 345.525 471.972 344.793 471.972 343.888V325.887C471.972 320.535 476.324 316.182 481.688 316.182H499.689C501.15 316.182 501.866 317.959 500.848 318.978L474.767 345.059C474.449 345.366 474.028 345.525 473.607 345.525ZM481.676 319.455C478.13 319.455 475.233 322.342 475.233 325.888V339.934L495.723 319.444L481.676 319.444V319.455Z" fill="#B14642"/>
<path fill-rule="evenodd" clip-rule="evenodd" d="M479.426 291.624H428.07C425.913 291.624 425.913 288.351 428.07 288.351L479.426 288.352C481.574 288.352 481.588 291.624 479.426 291.624Z" fill="#B14642"/>
<path fill-rule="evenodd" clip-rule="evenodd" d="M479.425 307.636H428.07C425.916 307.636 425.915 304.363 428.07 304.363L479.425 304.363C481.572 304.363 481.586 307.636 479.425 307.636Z" fill="#B14642"/>
<path fill-rule="evenodd" clip-rule="evenodd" d="M453.753 278.385C449.071 278.385 445.253 274.577 445.253 269.884C445.253 265.201 449.06 261.383 453.753 261.383C458.435 261.383 462.254 265.19 462.254 269.884C462.243 274.577 458.435 278.385 453.753 278.385ZM453.753 264.668C446.871 264.668 446.871 275.123 453.753 275.123C460.641 275.123 460.627 264.668 453.753 264.668Z" fill="#B14642"/>
<path fill-rule="evenodd" clip-rule="evenodd" d="M508.61 256.565C506.507 256.565 504.45 255.474 503.326 253.519L492.723 235.143C488.666 228.119 499.28 222.169 503.28 229.052L513.883 247.428C516.242 251.512 513.251 256.565 508.61 256.565ZM495.54 233.507L506.143 251.883C507.992 255.102 512.882 252.276 511.03 249.065L500.427 230.688C498.587 227.506 493.666 230.252 495.54 233.507Z" fill="white" fill-opacity="0.3"/>
<path fill-rule="evenodd" clip-rule="evenodd" d="M481.983 243.916C474.424 243.916 477.183 239.816 479.074 240.268C488.051 242.462 492.336 233.745 492.518 233.37C493.441 231.442 496.382 232.8 495.473 234.779C495.279 235.211 490.983 243.916 481.983 243.916Z" fill="white" fill-opacity="0.3"/>
<path fill-rule="evenodd" clip-rule="evenodd" d="M490.495 263.941C485.712 263.941 491.958 250.366 505.018 251.292C507.159 251.443 506.942 254.722 504.768 254.565C504.359 254.531 494.665 253.895 492.074 262.758C491.858 263.475 491.199 263.941 490.495 263.941Z" fill="white" fill-opacity="0.3"/>
<path fill-rule="evenodd" clip-rule="evenodd" d="M486.199 269.509C484.028 269.509 481.995 268.341 480.904 266.463L470.301 248.087C466.244 241.063 476.858 235.113 480.858 241.996L491.461 260.372C493.826 264.466 490.812 269.509 486.199 269.509ZM473.131 246.451L483.734 264.827C485.582 268.047 490.472 265.221 488.62 262.009L478.017 243.633C476.159 240.42 471.275 243.247 473.131 246.451Z" fill="white" fill-opacity="0.3"/>
<path fill-rule="evenodd" clip-rule="evenodd" d="M453.755 271.52C452.098 271.52 451.479 269.307 452.937 268.463L476.2 255.031C478.062 253.953 479.711 256.787 477.836 257.872C475.174 259.412 454.819 271.52 453.755 271.52Z" fill="white" fill-opacity="0.3"/>
<path fill-rule="evenodd" clip-rule="evenodd" d="M479.426 307.636H428.071C425.916 307.636 425.916 304.363 428.071 304.363L479.426 304.363C481.572 304.363 481.586 307.636 479.426 307.636ZM479.426 291.624H428.071C425.914 291.624 425.913 288.351 428.071 288.351H479.426C481.575 288.351 481.589 291.624 479.426 291.624ZM453.754 278.384C449.072 278.384 445.254 274.577 445.254 269.884C445.254 262.054 455.009 258.411 460.155 264.295L474.78 255.85L473.521 253.667H415.763C412.286 253.667 409.456 256.497 409.456 259.974V335.956C409.463 339.429 412.29 342.252 415.763 342.252H471.971V325.887C471.971 320.535 476.324 316.182 481.688 316.182H498.041V259.985C498.041 258.359 497.46 257.26 496.867 256.41C494.942 257.56 493.161 259.408 492.195 262.369C492.829 265.94 490.08 269.509 486.199 269.509C484.028 269.509 481.995 268.341 480.904 266.463L476.423 258.699C473.437 260.455 467.063 264.217 461.826 267.215C463.63 272.659 459.567 278.384 453.754 278.384Z" fill="#ED4B45" fill-opacity="0.5"/>
<path fill-rule="evenodd" clip-rule="evenodd" d="M481.676 319.455C478.13 319.455 475.232 322.342 475.232 325.888V339.934L495.722 319.445L481.676 319.444V319.455Z" fill="#ED4B45" fill-opacity="0.5"/>
<path fill-rule="evenodd" clip-rule="evenodd" d="M487.461 332.387C485.855 333.993 475.103 345.084 474.193 345.419C473.382 345.719 421.34 345.525 415.763 345.525C410.479 345.525 406.183 341.229 406.183 335.945V263.724H405.172C401.694 263.724 398.864 266.554 398.864 270.032L398.865 346.014C398.865 349.492 401.694 352.321 405.172 352.321L481.153 352.321C484.631 352.321 487.461 349.491 487.461 346.013V332.387Z" fill="#ED4B45" fill-opacity="0.7"/>
<path fill-rule="evenodd" clip-rule="evenodd" d="M476.869 355.605H405.172C399.887 355.605 395.592 351.313 395.592 346.013V273.793H394.58C391.103 273.793 388.273 276.623 388.273 280.101V356.082C388.273 359.56 391.103 362.389 394.58 362.389H470.562C474.201 362.389 476.869 359.601 476.869 355.605Z" fill="#ED4B45" fill-opacity="0.5"/>
<path fill-rule="evenodd" clip-rule="evenodd" d="M475.903 251.257L483.732 264.827C485.582 268.047 490.471 265.22 488.619 262.009L478.017 243.633C476.159 240.419 471.275 243.247 473.13 246.451L475.903 251.257Z" fill="#567EAF"/>
<path fill-rule="evenodd" clip-rule="evenodd" d="M481.967 243.916L490.293 258.347C492.8 254.457 497.195 251.811 502.062 251.329L493.947 237.263C491.958 239.987 488.038 243.916 481.967 243.916Z" fill="#CBDDF3"/>
<path fill-rule="evenodd" clip-rule="evenodd" d="M495.558 233.538L506.395 252.263C508.396 254.86 512.802 252.139 511.029 249.065L500.426 230.688C498.646 227.61 493.984 230.079 495.377 233.189C495.452 233.296 495.513 233.413 495.558 233.538Z" fill="#567EAF"/>
<path fill-rule="evenodd" clip-rule="evenodd" d="M647.607 339.525H589.763C584.479 339.525 580.183 335.229 580.183 329.945V253.974C580.183 248.69 584.479 244.394 589.763 244.394H648.459C650.614 244.394 650.614 247.667 648.459 247.667H589.763C586.285 247.667 583.456 250.497 583.456 253.975V329.956C583.456 333.434 586.285 336.264 589.763 336.264L646.925 336.263L672.04 311.148V253.985C672.04 249.832 668.249 249.117 670.143 247.19C672.26 245.034 675.325 250.214 675.325 253.997V311.841C675.325 312.273 675.154 312.693 674.847 313L648.766 339.081C648.448 339.355 648.039 339.525 647.607 339.525Z" fill="#947BC4"/>
<path fill-rule="evenodd" clip-rule="evenodd" d="M655.142 349.593H579.171C573.887 349.593 569.591 345.298 569.591 340.013V264.032C569.591 258.748 573.887 254.451 579.171 254.451C580.952 254.451 583.455 254.018 583.455 256.088V329.945C583.455 333.422 586.285 336.252 589.763 336.252H646.925L661.937 321.24C662.956 320.221 664.732 320.938 664.732 322.399V340.002C664.722 345.298 660.425 349.593 655.142 349.593ZM579.171 257.724C575.693 257.724 572.864 260.554 572.864 264.032V340.013C572.864 343.491 575.693 346.321 579.171 346.321H655.153C658.631 346.321 661.46 343.491 661.46 340.013V326.353L648.767 339.048C648.459 339.355 648.039 339.525 647.607 339.525H589.763C584.478 339.525 580.182 335.229 580.182 329.945V257.724H579.171Z" fill="#947BC4"/>
<path fill-rule="evenodd" clip-rule="evenodd" d="M644.562 359.651H568.58C563.296 359.651 559 355.355 559 350.071V274.101C559 268.816 563.296 264.521 568.58 264.521C570.362 264.521 572.865 264.087 572.865 266.157V340.014C572.865 343.491 575.694 346.321 579.172 346.321L652.505 346.321C654.507 346.321 654.142 348.658 654.142 350.071C654.142 355.356 649.835 359.651 644.562 359.651ZM568.58 267.793C565.102 267.793 562.273 270.623 562.273 274.101V350.082C562.273 353.56 565.102 356.39 568.58 356.39H644.562C648.2 356.39 650.869 353.601 650.869 349.605H579.171C573.887 349.605 569.591 345.309 569.591 340.025V267.793H568.58Z" fill="#947BC4"/>
<path fill-rule="evenodd" clip-rule="evenodd" d="M647.607 339.525C646.71 339.525 645.971 338.792 645.971 337.888V319.887C645.971 314.535 650.323 310.182 655.687 310.182H673.688C675.149 310.182 675.865 311.959 674.847 312.978L648.766 339.058C648.448 339.366 648.027 339.525 647.607 339.525ZM655.675 313.455C652.129 313.455 649.232 316.342 649.232 319.888V333.934L669.722 313.444L655.675 313.444V313.455Z" fill="#947BC4"/>
<path fill-rule="evenodd" clip-rule="evenodd" d="M653.426 285.624H602.07C599.913 285.624 599.913 282.351 602.07 282.351L653.426 282.351C655.574 282.351 655.588 285.624 653.426 285.624Z" fill="#947BC4"/>
<path fill-rule="evenodd" clip-rule="evenodd" d="M653.425 301.636H602.07C599.916 301.636 599.915 298.363 602.07 298.363L653.425 298.363C655.572 298.363 655.586 301.636 653.425 301.636Z" fill="#947BC4"/>
<path fill-rule="evenodd" clip-rule="evenodd" d="M627.753 272.384C623.071 272.384 619.253 268.577 619.253 263.884C619.253 259.201 623.06 255.383 627.753 255.383C632.435 255.383 636.254 259.19 636.254 263.884C636.243 268.577 632.435 272.384 627.753 272.384ZM627.753 258.668C620.871 258.668 620.871 269.123 627.753 269.123C634.641 269.123 634.627 258.668 627.753 258.668Z" fill="#947BC4"/>
<path fill-rule="evenodd" clip-rule="evenodd" d="M682.609 250.565C680.506 250.565 678.449 249.474 677.325 247.519L666.722 229.143C662.665 222.119 673.279 216.169 677.279 223.052L687.882 241.428C690.241 245.512 687.25 250.565 682.609 250.565ZM669.54 227.507L680.142 245.883C681.991 249.102 686.881 246.276 685.029 243.065L674.426 224.688C672.586 221.506 667.665 224.252 669.54 227.507Z" fill="white" fill-opacity="0.3"/>
<path fill-rule="evenodd" clip-rule="evenodd" d="M655.983 237.916C648.424 237.916 651.183 233.816 653.074 234.268C662.051 236.461 666.336 227.745 666.518 227.37C667.441 225.442 670.382 226.8 669.473 228.779C669.279 229.211 664.983 237.916 655.983 237.916Z" fill="white" fill-opacity="0.3"/>
<path fill-rule="evenodd" clip-rule="evenodd" d="M664.494 257.941C659.711 257.941 665.958 244.366 679.017 245.292C681.158 245.443 680.941 248.722 678.767 248.565C678.358 248.531 668.664 247.895 666.073 256.758C665.857 257.475 665.198 257.941 664.494 257.941Z" fill="white" fill-opacity="0.3"/>
<path fill-rule="evenodd" clip-rule="evenodd" d="M660.198 263.509C658.027 263.509 655.994 262.341 654.903 260.463L644.3 242.087C640.243 235.063 650.857 229.113 654.857 235.996L665.46 254.372C667.825 258.466 664.811 263.509 660.198 263.509ZM647.13 240.451L657.733 258.827C659.582 262.047 664.471 259.22 662.619 256.009L652.016 237.633C650.158 234.419 645.274 237.247 647.13 240.451Z" fill="white" fill-opacity="0.3"/>
<path fill-rule="evenodd" clip-rule="evenodd" d="M627.753 265.52C626.096 265.52 625.477 263.307 626.935 262.463L650.198 249.031C652.06 247.953 653.709 250.787 651.834 251.872C649.172 253.412 628.817 265.52 627.753 265.52Z" fill="white" fill-opacity="0.3"/>
<path fill-rule="evenodd" clip-rule="evenodd" d="M653.425 301.636H602.07C599.915 301.636 599.915 298.363 602.07 298.363L653.425 298.363C655.571 298.363 655.586 301.636 653.425 301.636ZM653.425 285.624H602.07C599.913 285.624 599.912 282.351 602.07 282.351H653.425C655.574 282.351 655.588 285.624 653.425 285.624ZM627.753 272.384C623.071 272.384 619.253 268.577 619.253 263.884C619.253 256.054 629.008 252.411 634.154 258.295L648.779 249.85L647.52 247.667H589.762C586.285 247.667 583.455 250.497 583.455 253.974V329.956C583.462 333.429 586.289 336.252 589.762 336.252H645.97V319.887C645.97 314.535 650.323 310.182 655.687 310.182H672.04V253.985C672.04 252.359 671.459 251.26 670.866 250.41C668.941 251.56 667.16 253.408 666.194 256.369C666.828 259.94 664.079 263.509 660.198 263.509C658.027 263.509 655.994 262.341 654.903 260.463L650.422 252.699C647.436 254.455 641.062 258.217 635.825 261.215C637.629 266.659 633.566 272.384 627.753 272.384Z" fill="#A98DDD" fill-opacity="0.5"/>
<path fill-rule="evenodd" clip-rule="evenodd" d="M655.676 313.455C652.13 313.455 649.232 316.342 649.232 319.888V333.934L669.722 313.444L655.676 313.444V313.455Z" fill="#A98DDD" fill-opacity="0.5"/>
<path fill-rule="evenodd" clip-rule="evenodd" d="M661.46 326.387C659.854 327.993 649.102 339.084 648.192 339.419C647.381 339.719 595.339 339.525 589.762 339.525C584.478 339.525 580.182 335.229 580.182 329.945V257.724H579.171C575.693 257.724 572.863 260.554 572.863 264.032L572.864 340.014C572.864 343.491 575.693 346.321 579.171 346.321L655.152 346.321C658.63 346.321 661.46 343.491 661.46 340.013V326.387Z" fill="#A98DDD" fill-opacity="0.7"/>
<path fill-rule="evenodd" clip-rule="evenodd" d="M650.868 349.605H579.171C573.886 349.605 569.591 345.313 569.591 340.013V267.793H568.579C565.102 267.793 562.272 270.623 562.272 274.101V350.082C562.272 353.56 565.102 356.389 568.579 356.389H644.561C648.2 356.389 650.868 353.601 650.868 349.605Z" fill="#A98DDD" fill-opacity="0.5"/>
<path fill-rule="evenodd" clip-rule="evenodd" d="M649.903 245.257L657.732 258.827C659.582 262.047 664.471 259.22 662.619 256.009L652.017 237.633C650.159 234.419 645.275 237.247 647.13 240.451L649.903 245.257Z" fill="#567EAF"/>
<path fill-rule="evenodd" clip-rule="evenodd" d="M655.966 237.916L664.292 252.347C666.799 248.457 671.194 245.811 676.061 245.329L667.946 231.263C665.957 233.987 662.037 237.916 655.966 237.916Z" fill="#CBDDF3"/>
<path fill-rule="evenodd" clip-rule="evenodd" d="M669.558 227.538L680.395 246.263C682.396 248.86 686.802 246.139 685.029 243.065L674.426 224.688C672.646 221.61 667.984 224.079 669.377 227.189C669.452 227.296 669.513 227.413 669.558 227.538Z" fill="#567EAF"/>
<rect x="524" y="679" width="87" height="53" rx="15" stroke="#C0C0C0" stroke-opacity="0.3" stroke-width="10"/>
<rect x="519" y="502" width="197" height="65" rx="20" fill="#F7A745" fill-opacity="0.7"/>
<defs>
<filter id="filter0_d_1066_168" x="144" y="467" width="286" height="310" filterUnits="userSpaceOnUse" color-interpolation-filters="sRGB">
<feFlood flood-opacity="0" result="BackgroundImageFix"/>
<feColorMatrix in="SourceAlpha" type="matrix" values="0 0 0 0 0 0 0 0 0 0 0 0 0 0 0 0 0 0 127 0" result="hardAlpha"/>
<feOffset dy="4"/>
<feGaussianBlur stdDeviation="2"/>
<feComposite in2="hardAlpha" operator="out"/>
<feColorMatrix type="matrix" values="0 0 0 0 0 0 0 0 0 0 0 0 0 0 0 0 0 0 0.25 0"/>
<feBlend mode="normal" in2="BackgroundImageFix" result="effect1_dropShadow_1066_168"/>
<feBlend mode="normal" in="SourceGraphic" in2="effect1_dropShadow_1066_168" result="shape"/>
</filter>
<filter id="filter1_d_1066_168" x="473" y="467" width="286" height="310" filterUnits="userSpaceOnUse" color-interpolation-filters="sRGB">
<feFlood flood-opacity="0" result="BackgroundImageFix"/>
<feColorMatrix in="SourceAlpha" type="matrix" values="0 0 0 0 0 0 0 0 0 0 0 0 0 0 0 0 0 0 127 0" result="hardAlpha"/>
<feOffset dy="4"/>
<feGaussianBlur stdDeviation="2"/>
<feComposite in2="hardAlpha" operator="out"/>
<feColorMatrix type="matrix" values="0 0 0 0 0 0 0 0 0 0 0 0 0 0 0 0 0 0 0.25 0"/>
<feBlend mode="normal" in2="BackgroundImageFix" result="effect1_dropShadow_1066_168"/>
<feBlend mode="normal" in="SourceGraphic" in2="effect1_dropShadow_1066_168" result="shape"/>
</filter>
<filter id="filter2_d_1066_168" x="136" y="131" width="627" height="293" filterUnits="userSpaceOnUse" color-interpolation-filters="sRGB">
<feFlood flood-opacity="0" result="BackgroundImageFix"/>
<feColorMatrix in="SourceAlpha" type="matrix" values="0 0 0 0 0 0 0 0 0 0 0 0 0 0 0 0 0 0 127 0" result="hardAlpha"/>
<feOffset dy="4"/>
<feGaussianBlur stdDeviation="2"/>
<feComposite in2="hardAlpha" operator="out"/>
<feColorMatrix type="matrix" values="0 0 0 0 0 0 0 0 0 0 0 0 0 0 0 0 0 0 0.25 0"/>
<feBlend mode="normal" in2="BackgroundImageFix" result="effect1_dropShadow_1066_168"/>
<feBlend mode="normal" in="SourceGraphic" in2="effect1_dropShadow_1066_168" result="shape"/>
</filter>
</defs>
</svg>
