<svg width="155" height="45" viewBox="0 0 155 45" fill="none" xmlns="http://www.w3.org/2000/svg">
<path d="M129.989 0.149414H134.308L136.467 0.494905L138.281 0.926768L140.354 1.61775L142.427 2.56785L144.241 3.60432L145.45 4.46805L146.659 5.41815L147.955 6.62737L148.818 7.49109L149.423 8.26845L149.337 8.70031L148.386 10.5141L147.177 12.5007L146.054 14.0554L145.277 15.0055L144.5 15.8692L143.895 16.5602L142.081 18.3741L141.131 19.1514L140.095 20.0151L138.454 21.138L136.985 22.0881L134.912 23.2109L132.58 24.2474L130.162 25.1111L127.571 25.8021L125.325 26.234L123.338 26.4931L121.956 26.5795H117.897L115.738 26.4067L112.974 25.9748L110.642 25.4566L109.951 25.1975L109.778 24.0746L109.691 22.2608L109.864 19.9288L110.123 18.2013L110.642 16.042L111.246 14.3145L112.023 12.5871L112.801 11.1187L113.837 9.47766L114.787 8.26845L115.651 7.31835L116.256 6.62737L116.947 5.93638L117.897 5.15903L119.106 4.20893L120.574 3.25883L122.129 2.3951L124.288 1.445L126.275 0.840396L128.175 0.408532L129.989 0.149414Z" fill="#C0C0C0"/>
<path fill-rule="evenodd" clip-rule="evenodd" d="M51.0444 5.24609H47.6759L46.2075 5.41884L43.7027 5.93708L41.8889 6.54168L40.1615 7.31904L38.6067 8.18277L37.3975 9.04649L36.1883 9.99659L34.8927 11.2922L33.9426 12.415L32.9061 13.797L32.0424 15.2653L31.3514 16.7337L30.6605 18.5475L30.1422 20.6204L29.8831 22.3479L29.7967 24.0753L29.7104 24.5072L29.7967 25.1118L29.8831 26.8393L30.2286 28.9986L30.7468 30.8988L31.6969 33.2308L32.4743 34.6128L33.2516 35.822L34.3745 37.2904L35.4973 38.4132L36.5338 39.3633L37.743 40.3134L39.3841 41.3499L41.3707 42.3L43.7027 43.0773L45.6029 43.5092L47.8486 43.7683H50.6989L52.7719 43.5092L54.7584 43.0773L56.054 42.6455L57.6951 41.9545L59.0771 41.2635L60.1999 40.5725L60.6318 40.3998L61.4955 41.0908L62.7911 42.3L63.7412 43.0773L64.5185 43.8547L64.9504 44.0274V44.2002H65.2095L65.9869 43.2501L67.0234 42.1272L67.628 41.4362L68.7508 40.227L68.9236 39.8815L69.1827 39.7952V39.4497L68.2326 38.6723L67.2825 37.8086L66.3324 37.0312L65.4686 36.2539L65.0368 36.0811L65.9869 34.6128L66.8506 33.0581L67.628 31.2443L68.1462 29.6032L68.5781 27.703L68.8372 25.3709V23.5571L68.5781 21.1387L68.1462 19.1521L67.4552 17.0792L66.8506 15.6972L65.9869 14.1425L65.1232 12.8469L64.2594 11.724L62.8775 10.3421L61.7546 9.39198L60.6318 8.52826L58.9043 7.49178L56.8314 6.54168L55.0176 5.93708L53.031 5.50521L51.0444 5.24609ZM50.6125 11.2924H47.7622L46.2939 11.5515L44.9983 11.897L43.2709 12.6744L41.8889 13.5381L40.7661 14.4882L39.7296 15.611L38.6931 16.993L37.8294 18.6341L37.3112 20.016L36.8793 21.7435L36.7065 23.0391V25.8894L36.7929 26.6667L37.052 27.9623L37.4839 29.3443L38.1749 30.9854L38.8659 32.1082L39.7296 33.3174L41.1116 34.6994L42.3208 35.6495L43.53 36.3405L45.0847 37.0315L46.6394 37.4633L48.2805 37.7224H50.2671L51.0444 37.6361L52.7719 37.2906L54.3266 36.7723L55.7085 36.0814V35.9086L55.0176 35.304L54.0675 34.5267L51.649 32.4537L50.6989 31.6764L49.6624 30.7263L49.4897 30.3808L50.5262 29.2579L51.3035 28.3078L52.34 27.185L53.1174 26.2349L53.6356 25.803L54.5857 26.6667L55.4494 27.4441L57.5224 29.3443L58.2133 29.9489L59.5089 31.1581L60.1135 31.6764L60.459 31.1581L61.0636 29.7762L61.5819 28.0487L61.841 26.494L62.0137 24.5074L61.841 22.6936L61.5819 21.2253L61.15 19.7569L60.5454 18.2886L59.7681 16.9066L58.818 15.611L57.8679 14.6609L57.0041 13.8836L55.7949 13.0199L54.3266 12.2425L52.5991 11.6379L50.6125 11.2924Z" fill="#C0C0C0"/>
<path d="M0.602753 5.93652H30.7468V11.9826L19.0001 12.069L18.9138 43.1632H12.3494V11.9826H0.602753V5.93652Z" fill="#C0C0C0"/>
<path d="M74.1923 5.93652H80.6702V37.2034H100.277V43.1632H74.1923V5.93652Z" fill="#C0C0C0"/>
<path d="M151.669 11.6367L151.928 11.9822L152.878 13.9688L153.742 16.56L154.173 18.5465L154.346 19.583L154.519 21.9151V23.0379L154.346 25.2836L154.001 27.2702L153.396 29.5159L152.532 31.6752L151.841 33.0571L151.15 34.2664L150.459 35.3028L149.596 36.4257L148.646 37.5485L146.918 39.276L145.968 40.0533L144.759 40.9171L143.118 41.9535L141.217 42.9036L139.231 43.681L136.985 44.2856L134.999 44.6311L133.617 44.8038H130.68L128.089 44.4583L125.843 43.9401L123.597 43.1627L121.265 42.0399L119.711 41.0898L118.933 40.5716L119.106 40.3988L121.265 40.2261L124.029 39.7942L126.62 39.1896L129.125 38.4123L131.544 37.4622L133.358 36.5984L135.344 35.4756L136.726 34.6119L138.194 33.5754L139.404 32.6253L140.613 31.5888L141.908 30.3796L142.513 29.775L143.118 29.084L143.981 28.1339L145.104 26.6656L146.227 25.1109L147.35 23.297L148.559 20.965L149.25 19.4966L150.114 17.2509L150.805 15.0916L151.323 13.0187L151.669 11.6367Z" fill="#C0C0C0"/>
<path d="M151.755 2.74023H151.841V3.60396L151.409 6.36789L150.891 8.61358L149.941 11.6366L149.077 13.7096L148.386 15.1779L147.35 17.0781L145.795 19.4102L144.586 20.9649L143.809 21.8286L143.204 22.5196L141.131 24.5925L140.181 25.3699L138.885 26.4064L137.417 27.4428L135.862 28.3929L134.308 29.2566L132.321 30.2067L130.075 31.0705L127.83 31.7615L125.67 32.2797L123.079 32.7116L120.143 32.9707H117.033L114.096 32.7116L111.073 32.1933L108.914 31.6751L107.532 31.2432L106.668 29.8613L106.409 29.4294L107.014 29.5158L109.26 30.2067L111.851 30.8114L113.837 31.1568L116.256 31.416H121.352L123.857 31.1568L126.707 30.6386L129.298 29.9476L131.889 28.9975L133.617 28.2202L134.999 27.5292L136.812 26.4927L138.713 25.1971L139.749 24.4198L140.872 23.4697L141.736 22.6923L142.859 21.6559L143.463 20.9649L144.413 19.9284L145.536 18.4601L146.573 16.9917L147.695 15.1779L148.905 12.8458L149.855 10.6001L150.632 8.26809L151.237 5.93602L151.669 3.51759L151.755 2.74023Z" fill="#C0C0C0"/>
</svg>
